<ttFont>
    <TTGlyph name=".notdef" xMin="80" yMin="-10" xMax="474" yMax="703">
      <contour>
        <pt x="85" y="597" on="1"/>
        <pt x="87" y="637" on="0"/>
        <pt x="110" y="662" on="0"/>
        <pt x="128" y="663" on="1"/>
        <pt x="151" y="676" on="0"/>
        <pt x="224" y="692" on="0"/>
        <pt x="298" y="700" on="0"/>
        <pt x="361" y="703" on="0"/>
        <pt x="373" y="703" on="1"/>
        <pt x="409" y="703" on="0"/>
        <pt x="449" y="694" on="0"/>
        <pt x="469" y="649" on="0"/>
        <pt x="474" y="557" on="0"/>
        <pt x="474" y="473" on="1"/>
        <pt x="474" y="392" on="0"/>
        <pt x="474" y="279" on="0"/>
        <pt x="472" y="194" on="0"/>
        <pt x="470" y="128" on="0"/>
        <pt x="469" y="96" on="1"/>
        <pt x="467" y="55" on="0"/>
        <pt x="443" y="30" on="0"/>
        <pt x="426" y="30" on="1"/>
        <pt x="402" y="17" on="0"/>
        <pt x="329" y="1" on="0"/>
        <pt x="255" y="-7" on="0"/>
        <pt x="193" y="-10" on="0"/>
        <pt x="181" y="-10" on="1"/>
        <pt x="145" y="-10" on="0"/>
        <pt x="105" y="-1" on="0"/>
        <pt x="85" y="44" on="0"/>
        <pt x="80" y="136" on="0"/>
        <pt x="80" y="220" on="1"/>
        <pt x="80" y="301" on="0"/>
        <pt x="80" y="414" on="0"/>
        <pt x="82" y="499" on="0"/>
        <pt x="83" y="565" on="0"/>
      </contour>
      <contour>
        <pt x="374" y="414" on="1"/>
        <pt x="374" y="446" on="0"/>
        <pt x="374" y="495" on="0"/>
        <pt x="375" y="539" on="0"/>
        <pt x="377" y="583" on="0"/>
        <pt x="378" y="610" on="1"/>
        <pt x="327" y="604" on="0"/>
        <pt x="258" y="595" on="0"/>
        <pt x="213" y="589" on="0"/>
        <pt x="185" y="586" on="0"/>
        <pt x="174" y="585" on="1"/>
        <pt x="176" y="543" on="0"/>
        <pt x="178" y="472" on="0"/>
        <pt x="180" y="401" on="0"/>
        <pt x="180" y="325" on="0"/>
        <pt x="180" y="279" on="1"/>
        <pt x="180" y="247" on="0"/>
        <pt x="180" y="198" on="0"/>
        <pt x="179" y="154" on="0"/>
        <pt x="177" y="110" on="0"/>
        <pt x="176" y="83" on="1"/>
        <pt x="227" y="89" on="0"/>
        <pt x="295" y="97" on="0"/>
        <pt x="340" y="103" on="0"/>
        <pt x="368" y="107" on="0"/>
        <pt x="379" y="108" on="1"/>
        <pt x="377" y="150" on="0"/>
        <pt x="376" y="221" on="0"/>
        <pt x="374" y="292" on="0"/>
        <pt x="374" y="367" on="0"/>
      </contour>
    </TTGlyph>
    <TTGlyph name="A" xMin="20" yMin="0" xMax="577" yMax="722">
      <contour>
        <pt x="479" y="51" on="1"/>
        <pt x="469" y="75" on="0"/>
        <pt x="446" y="138" on="0"/>
        <pt x="433" y="173" on="1"/>
        <pt x="403" y="172" on="0"/>
        <pt x="337" y="171" on="0"/>
        <pt x="303" y="171" on="1"/>
        <pt x="260" y="171" on="0"/>
        <pt x="190" y="171" on="0"/>
        <pt x="161" y="172" on="1"/>
        <pt x="149" y="137" on="0"/>
        <pt x="127" y="75" on="0"/>
        <pt x="117" y="51" on="1"/>
        <pt x="97" y="0" on="0"/>
        <pt x="59" y="0" on="1"/>
        <pt x="45" y="0" on="0"/>
        <pt x="20" y="18" on="0"/>
        <pt x="20" y="35" on="1"/>
        <pt x="20" y="52" on="0"/>
        <pt x="32" y="107" on="0"/>
        <pt x="51" y="170" on="0"/>
        <pt x="73" y="237" on="0"/>
        <pt x="83" y="266" on="1"/>
        <pt x="93" y="298" on="0"/>
        <pt x="130" y="397" on="0"/>
        <pt x="172" y="505" on="0"/>
        <pt x="214" y="610" on="0"/>
        <pt x="231" y="649" on="1"/>
        <pt x="235" y="659" on="0"/>
        <pt x="247" y="684" on="0"/>
        <pt x="264" y="706" on="0"/>
        <pt x="285" y="722" on="0"/>
        <pt x="298" y="722" on="1"/>
        <pt x="311" y="722" on="0"/>
        <pt x="333" y="705" on="0"/>
        <pt x="350" y="681" on="0"/>
        <pt x="363" y="655" on="0"/>
        <pt x="367" y="645" on="1"/>
        <pt x="383" y="605" on="0"/>
        <pt x="424" y="501" on="0"/>
        <pt x="465" y="395" on="0"/>
        <pt x="501" y="299" on="0"/>
        <pt x="512" y="266" on="1"/>
        <pt x="521" y="237" on="0"/>
        <pt x="544" y="171" on="0"/>
        <pt x="564" y="107" on="0"/>
        <pt x="577" y="52" on="0"/>
        <pt x="577" y="35" on="1"/>
        <pt x="577" y="18" on="0"/>
        <pt x="552" y="0" on="0"/>
        <pt x="538" y="0" on="1"/>
        <pt x="520" y="0" on="0"/>
        <pt x="490" y="25" on="0"/>
      </contour>
      <contour>
        <pt x="302" y="271" on="1"/>
        <pt x="326" y="271" on="0"/>
        <pt x="374" y="270" on="0"/>
        <pt x="398" y="269" on="1"/>
        <pt x="386" y="304" on="0"/>
        <pt x="362" y="374" on="0"/>
        <pt x="341" y="438" on="0"/>
        <pt x="324" y="493" on="0"/>
        <pt x="318" y="514" on="1"/>
        <pt x="314" y="527" on="0"/>
        <pt x="304" y="543" on="0"/>
        <pt x="296" y="543" on="1"/>
        <pt x="288" y="543" on="0"/>
        <pt x="278" y="526" on="0"/>
        <pt x="274" y="513" on="1"/>
        <pt x="262" y="472" on="0"/>
        <pt x="219" y="341" on="0"/>
        <pt x="195" y="269" on="1"/>
        <pt x="222" y="270" on="0"/>
        <pt x="276" y="271" on="0"/>
      </contour>
    </TTGlyph>
    <TTGlyph name="AE" xMin="10" yMin="-7" xMax="868" yMax="703">
      <contour>
        <pt x="403" y="172" on="1"/>
        <pt x="353" y="169" on="0"/>
        <pt x="304" y="169" on="1"/>
        <pt x="247" y="169" on="0"/>
        <pt x="187" y="172" on="1"/>
        <pt x="171" y="147" on="0"/>
        <pt x="134" y="86" on="0"/>
        <pt x="98" y="33" on="0"/>
        <pt x="65" y="-3" on="0"/>
        <pt x="53" y="-3" on="1"/>
        <pt x="36" y="-3" on="0"/>
        <pt x="10" y="20" on="0"/>
        <pt x="10" y="39" on="1"/>
        <pt x="10" y="47" on="0"/>
        <pt x="17" y="69" on="0"/>
        <pt x="25" y="85" on="1"/>
        <pt x="44" y="122" on="0"/>
        <pt x="99" y="219" on="0"/>
        <pt x="166" y="332" on="0"/>
        <pt x="240" y="456" on="0"/>
        <pt x="279" y="521" on="1"/>
        <pt x="310" y="572" on="0"/>
        <pt x="353" y="638" on="0"/>
        <pt x="386" y="676" on="0"/>
        <pt x="412" y="692" on="0"/>
        <pt x="425" y="694" on="1"/>
        <pt x="445" y="697" on="0"/>
        <pt x="482" y="701" on="0"/>
        <pt x="524" y="702" on="0"/>
        <pt x="577" y="703" on="0"/>
        <pt x="613" y="703" on="1"/>
        <pt x="614" y="703" on="0"/>
        <pt x="655" y="703" on="0"/>
        <pt x="713" y="702" on="0"/>
        <pt x="776" y="700" on="0"/>
        <pt x="797" y="699" on="1"/>
        <pt x="819" y="697" on="0"/>
        <pt x="846" y="690" on="0"/>
        <pt x="860" y="679" on="0"/>
        <pt x="864" y="664" on="0"/>
        <pt x="864" y="655" on="1"/>
        <pt x="864" y="632" on="0"/>
        <pt x="838" y="611" on="0"/>
        <pt x="798" y="608" on="1"/>
        <pt x="778" y="606" on="0"/>
        <pt x="701" y="605" on="0"/>
        <pt x="621" y="605" on="0"/>
        <pt x="557" y="604" on="0"/>
        <pt x="549" y="604" on="1"/>
        <pt x="523" y="603" on="0"/>
        <pt x="502" y="582" on="0"/>
        <pt x="502" y="543" on="1"/>
        <pt x="502" y="534" on="0"/>
        <pt x="505" y="465" on="0"/>
        <pt x="505" y="403" on="1"/>
        <pt x="588" y="403" on="1"/>
        <pt x="641" y="403" on="0"/>
        <pt x="708" y="400" on="0"/>
        <pt x="745" y="390" on="0"/>
        <pt x="759" y="368" on="0"/>
        <pt x="759" y="350" on="1"/>
        <pt x="759" y="335" on="0"/>
        <pt x="744" y="317" on="0"/>
        <pt x="705" y="306" on="0"/>
        <pt x="639" y="303" on="0"/>
        <pt x="587" y="303" on="1"/>
        <pt x="503" y="303" on="1"/>
        <pt x="503" y="288" on="0"/>
        <pt x="503" y="246" on="0"/>
        <pt x="503" y="202" on="0"/>
        <pt x="504" y="160" on="0"/>
        <pt x="505" y="147" on="1"/>
        <pt x="506" y="131" on="0"/>
        <pt x="513" y="109" on="0"/>
        <pt x="532" y="95" on="0"/>
        <pt x="569" y="89" on="0"/>
        <pt x="600" y="89" on="1"/>
        <pt x="815" y="89" on="1"/>
        <pt x="850" y="89" on="0"/>
        <pt x="868" y="63" on="0"/>
        <pt x="868" y="41" on="1"/>
        <pt x="868" y="23" on="0"/>
        <pt x="852" y="4" on="0"/>
        <pt x="791" y="-5" on="0"/>
        <pt x="670" y="-7" on="0"/>
        <pt x="564" y="-7" on="1"/>
        <pt x="519" y="-7" on="0"/>
        <pt x="461" y="9" on="0"/>
        <pt x="425" y="47" on="0"/>
        <pt x="408" y="108" on="0"/>
        <pt x="405" y="152" on="1"/>
      </contour>
      <contour>
        <pt x="328" y="271" on="1"/>
        <pt x="346" y="271" on="0"/>
        <pt x="382" y="270" on="0"/>
        <pt x="400" y="269" on="1"/>
        <pt x="398" y="289" on="0"/>
        <pt x="398" y="331" on="0"/>
        <pt x="398" y="351" on="1"/>
        <pt x="398" y="396" on="0"/>
        <pt x="401" y="486" on="0"/>
        <pt x="402" y="534" on="1"/>
        <pt x="364" y="467" on="0"/>
        <pt x="288" y="336" on="0"/>
        <pt x="248" y="270" on="1"/>
        <pt x="268" y="271" on="0"/>
        <pt x="308" y="271" on="0"/>
      </contour>
    </TTGlyph>
    <TTGlyph name="Aacute" xMin="20" yMin="0" xMax="577" yMax="951">
      <contour>
        <pt x="479" y="51" on="1"/>
        <pt x="469" y="75" on="0"/>
        <pt x="446" y="138" on="0"/>
        <pt x="433" y="173" on="1"/>
        <pt x="403" y="172" on="0"/>
        <pt x="337" y="171" on="0"/>
        <pt x="303" y="171" on="1"/>
        <pt x="260" y="171" on="0"/>
        <pt x="190" y="171" on="0"/>
        <pt x="161" y="172" on="1"/>
        <pt x="149" y="137" on="0"/>
        <pt x="127" y="75" on="0"/>
        <pt x="117" y="51" on="1"/>
        <pt x="97" y="0" on="0"/>
        <pt x="59" y="0" on="1"/>
        <pt x="45" y="0" on="0"/>
        <pt x="20" y="18" on="0"/>
        <pt x="20" y="35" on="1"/>
        <pt x="20" y="52" on="0"/>
        <pt x="32" y="107" on="0"/>
        <pt x="51" y="170" on="0"/>
        <pt x="73" y="237" on="0"/>
        <pt x="83" y="266" on="1"/>
        <pt x="93" y="298" on="0"/>
        <pt x="130" y="397" on="0"/>
        <pt x="172" y="505" on="0"/>
        <pt x="214" y="610" on="0"/>
        <pt x="231" y="649" on="1"/>
        <pt x="235" y="659" on="0"/>
        <pt x="247" y="684" on="0"/>
        <pt x="264" y="706" on="0"/>
        <pt x="285" y="722" on="0"/>
        <pt x="298" y="722" on="1"/>
        <pt x="311" y="722" on="0"/>
        <pt x="333" y="705" on="0"/>
        <pt x="350" y="681" on="0"/>
        <pt x="363" y="655" on="0"/>
        <pt x="367" y="645" on="1"/>
        <pt x="383" y="605" on="0"/>
        <pt x="424" y="501" on="0"/>
        <pt x="465" y="395" on="0"/>
        <pt x="501" y="299" on="0"/>
        <pt x="512" y="266" on="1"/>
        <pt x="521" y="237" on="0"/>
        <pt x="544" y="171" on="0"/>
        <pt x="564" y="107" on="0"/>
        <pt x="577" y="52" on="0"/>
        <pt x="577" y="35" on="1"/>
        <pt x="577" y="18" on="0"/>
        <pt x="552" y="0" on="0"/>
        <pt x="538" y="0" on="1"/>
        <pt x="520" y="0" on="0"/>
        <pt x="490" y="25" on="0"/>
      </contour>
      <contour>
        <pt x="302" y="271" on="1"/>
        <pt x="326" y="271" on="0"/>
        <pt x="374" y="270" on="0"/>
        <pt x="398" y="269" on="1"/>
        <pt x="386" y="304" on="0"/>
        <pt x="362" y="374" on="0"/>
        <pt x="341" y="438" on="0"/>
        <pt x="324" y="493" on="0"/>
        <pt x="318" y="514" on="1"/>
        <pt x="314" y="527" on="0"/>
        <pt x="304" y="543" on="0"/>
        <pt x="296" y="543" on="1"/>
        <pt x="288" y="543" on="0"/>
        <pt x="278" y="526" on="0"/>
        <pt x="274" y="513" on="1"/>
        <pt x="262" y="472" on="0"/>
        <pt x="219" y="341" on="0"/>
        <pt x="195" y="269" on="1"/>
        <pt x="222" y="270" on="0"/>
        <pt x="276" y="271" on="0"/>
      </contour>
      <contour>
        <pt x="238" y="776" on="1"/>
        <pt x="227" y="778" on="0"/>
        <pt x="206" y="789" on="0"/>
        <pt x="206" y="804" on="1"/>
        <pt x="207" y="816" on="0"/>
        <pt x="234" y="848" on="0"/>
        <pt x="274" y="881" on="0"/>
        <pt x="324" y="912" on="0"/>
        <pt x="373" y="936" on="0"/>
        <pt x="415" y="951" on="0"/>
        <pt x="428" y="951" on="1"/>
        <pt x="445" y="951" on="0"/>
        <pt x="470" y="931" on="0"/>
        <pt x="470" y="912" on="1"/>
        <pt x="470" y="900" on="0"/>
        <pt x="444" y="871" on="0"/>
        <pt x="402" y="841" on="0"/>
        <pt x="350" y="812" on="0"/>
        <pt x="299" y="790" on="0"/>
        <pt x="253" y="776" on="0"/>
      </contour>
    </TTGlyph>
    <TTGlyph name="Acircumflex" xMin="20" yMin="0" xMax="577" yMax="952">
      <contour>
        <pt x="479" y="51" on="1"/>
        <pt x="469" y="75" on="0"/>
        <pt x="446" y="138" on="0"/>
        <pt x="433" y="173" on="1"/>
        <pt x="403" y="172" on="0"/>
        <pt x="337" y="171" on="0"/>
        <pt x="303" y="171" on="1"/>
        <pt x="260" y="171" on="0"/>
        <pt x="190" y="171" on="0"/>
        <pt x="161" y="172" on="1"/>
        <pt x="149" y="137" on="0"/>
        <pt x="127" y="75" on="0"/>
        <pt x="117" y="51" on="1"/>
        <pt x="97" y="0" on="0"/>
        <pt x="59" y="0" on="1"/>
        <pt x="45" y="0" on="0"/>
        <pt x="20" y="18" on="0"/>
        <pt x="20" y="35" on="1"/>
        <pt x="20" y="52" on="0"/>
        <pt x="32" y="107" on="0"/>
        <pt x="51" y="170" on="0"/>
        <pt x="73" y="237" on="0"/>
        <pt x="83" y="266" on="1"/>
        <pt x="93" y="298" on="0"/>
        <pt x="130" y="397" on="0"/>
        <pt x="172" y="505" on="0"/>
        <pt x="214" y="610" on="0"/>
        <pt x="231" y="649" on="1"/>
        <pt x="235" y="659" on="0"/>
        <pt x="247" y="684" on="0"/>
        <pt x="264" y="706" on="0"/>
        <pt x="285" y="722" on="0"/>
        <pt x="298" y="722" on="1"/>
        <pt x="311" y="722" on="0"/>
        <pt x="333" y="705" on="0"/>
        <pt x="350" y="681" on="0"/>
        <pt x="363" y="655" on="0"/>
        <pt x="367" y="645" on="1"/>
        <pt x="383" y="605" on="0"/>
        <pt x="424" y="501" on="0"/>
        <pt x="465" y="395" on="0"/>
        <pt x="501" y="299" on="0"/>
        <pt x="512" y="266" on="1"/>
        <pt x="521" y="237" on="0"/>
        <pt x="544" y="171" on="0"/>
        <pt x="564" y="107" on="0"/>
        <pt x="577" y="52" on="0"/>
        <pt x="577" y="35" on="1"/>
        <pt x="577" y="18" on="0"/>
        <pt x="552" y="0" on="0"/>
        <pt x="538" y="0" on="1"/>
        <pt x="520" y="0" on="0"/>
        <pt x="490" y="25" on="0"/>
      </contour>
      <contour>
        <pt x="302" y="271" on="1"/>
        <pt x="326" y="271" on="0"/>
        <pt x="374" y="270" on="0"/>
        <pt x="398" y="269" on="1"/>
        <pt x="386" y="304" on="0"/>
        <pt x="362" y="374" on="0"/>
        <pt x="341" y="438" on="0"/>
        <pt x="324" y="493" on="0"/>
        <pt x="318" y="514" on="1"/>
        <pt x="314" y="527" on="0"/>
        <pt x="304" y="543" on="0"/>
        <pt x="296" y="543" on="1"/>
        <pt x="288" y="543" on="0"/>
        <pt x="278" y="526" on="0"/>
        <pt x="274" y="513" on="1"/>
        <pt x="262" y="472" on="0"/>
        <pt x="219" y="341" on="0"/>
        <pt x="195" y="269" on="1"/>
        <pt x="222" y="270" on="0"/>
        <pt x="276" y="271" on="0"/>
      </contour>
      <contour>
        <pt x="299" y="952" on="1"/>
        <pt x="309" y="952" on="0"/>
        <pt x="344" y="935" on="0"/>
        <pt x="382" y="910" on="0"/>
        <pt x="419" y="879" on="0"/>
        <pt x="432" y="866" on="1"/>
        <pt x="443" y="854" on="0"/>
        <pt x="456" y="831" on="0"/>
        <pt x="456" y="818" on="1"/>
        <pt x="456" y="801" on="0"/>
        <pt x="435" y="775" on="0"/>
        <pt x="415" y="775" on="1"/>
        <pt x="398" y="775" on="0"/>
        <pt x="355" y="805" on="0"/>
        <pt x="320" y="837" on="1"/>
        <pt x="299" y="856" on="1"/>
        <pt x="278" y="837" on="1"/>
        <pt x="243" y="805" on="0"/>
        <pt x="198" y="776" on="0"/>
        <pt x="181" y="776" on="1"/>
        <pt x="163" y="776" on="0"/>
        <pt x="140" y="799" on="0"/>
        <pt x="140" y="816" on="1"/>
        <pt x="140" y="825" on="0"/>
        <pt x="151" y="850" on="0"/>
        <pt x="166" y="866" on="1"/>
        <pt x="179" y="879" on="0"/>
        <pt x="216" y="910" on="0"/>
        <pt x="254" y="935" on="0"/>
        <pt x="288" y="952" on="0"/>
      </contour>
    </TTGlyph>
    <TTGlyph name="Adieresis" xMin="20" yMin="0" xMax="577" yMax="932">
      <contour>
        <pt x="479" y="51" on="1"/>
        <pt x="469" y="75" on="0"/>
        <pt x="446" y="138" on="0"/>
        <pt x="433" y="173" on="1"/>
        <pt x="403" y="172" on="0"/>
        <pt x="337" y="171" on="0"/>
        <pt x="303" y="171" on="1"/>
        <pt x="260" y="171" on="0"/>
        <pt x="190" y="171" on="0"/>
        <pt x="161" y="172" on="1"/>
        <pt x="149" y="137" on="0"/>
        <pt x="127" y="75" on="0"/>
        <pt x="117" y="51" on="1"/>
        <pt x="97" y="0" on="0"/>
        <pt x="59" y="0" on="1"/>
        <pt x="45" y="0" on="0"/>
        <pt x="20" y="18" on="0"/>
        <pt x="20" y="35" on="1"/>
        <pt x="20" y="52" on="0"/>
        <pt x="32" y="107" on="0"/>
        <pt x="51" y="170" on="0"/>
        <pt x="73" y="237" on="0"/>
        <pt x="83" y="266" on="1"/>
        <pt x="93" y="298" on="0"/>
        <pt x="130" y="397" on="0"/>
        <pt x="172" y="505" on="0"/>
        <pt x="214" y="610" on="0"/>
        <pt x="231" y="649" on="1"/>
        <pt x="235" y="659" on="0"/>
        <pt x="247" y="684" on="0"/>
        <pt x="264" y="706" on="0"/>
        <pt x="285" y="722" on="0"/>
        <pt x="298" y="722" on="1"/>
        <pt x="311" y="722" on="0"/>
        <pt x="333" y="705" on="0"/>
        <pt x="350" y="681" on="0"/>
        <pt x="363" y="655" on="0"/>
        <pt x="367" y="645" on="1"/>
        <pt x="383" y="605" on="0"/>
        <pt x="424" y="501" on="0"/>
        <pt x="465" y="395" on="0"/>
        <pt x="501" y="299" on="0"/>
        <pt x="512" y="266" on="1"/>
        <pt x="521" y="237" on="0"/>
        <pt x="544" y="171" on="0"/>
        <pt x="564" y="107" on="0"/>
        <pt x="577" y="52" on="0"/>
        <pt x="577" y="35" on="1"/>
        <pt x="577" y="18" on="0"/>
        <pt x="552" y="0" on="0"/>
        <pt x="538" y="0" on="1"/>
        <pt x="520" y="0" on="0"/>
        <pt x="490" y="25" on="0"/>
      </contour>
      <contour>
        <pt x="302" y="271" on="1"/>
        <pt x="326" y="271" on="0"/>
        <pt x="374" y="270" on="0"/>
        <pt x="398" y="269" on="1"/>
        <pt x="386" y="304" on="0"/>
        <pt x="362" y="374" on="0"/>
        <pt x="341" y="438" on="0"/>
        <pt x="324" y="493" on="0"/>
        <pt x="318" y="514" on="1"/>
        <pt x="314" y="527" on="0"/>
        <pt x="304" y="543" on="0"/>
        <pt x="296" y="543" on="1"/>
        <pt x="288" y="543" on="0"/>
        <pt x="278" y="526" on="0"/>
        <pt x="274" y="513" on="1"/>
        <pt x="262" y="472" on="0"/>
        <pt x="219" y="341" on="0"/>
        <pt x="195" y="269" on="1"/>
        <pt x="222" y="270" on="0"/>
        <pt x="276" y="271" on="0"/>
      </contour>
      <contour>
        <pt x="209" y="932" on="1"/>
        <pt x="232" y="932" on="0"/>
        <pt x="271" y="896" on="0"/>
        <pt x="271" y="871" on="1"/>
        <pt x="271" y="847" on="0"/>
        <pt x="231" y="812" on="0"/>
        <pt x="206" y="812" on="1"/>
        <pt x="185" y="812" on="0"/>
        <pt x="148" y="847" on="0"/>
        <pt x="148" y="873" on="1"/>
        <pt x="148" y="897" on="0"/>
        <pt x="185" y="932" on="0"/>
      </contour>
      <contour>
        <pt x="389" y="932" on="1"/>
        <pt x="412" y="932" on="0"/>
        <pt x="451" y="896" on="0"/>
        <pt x="451" y="871" on="1"/>
        <pt x="451" y="847" on="0"/>
        <pt x="411" y="812" on="0"/>
        <pt x="386" y="812" on="1"/>
        <pt x="365" y="812" on="0"/>
        <pt x="328" y="847" on="0"/>
        <pt x="328" y="873" on="1"/>
        <pt x="328" y="897" on="0"/>
        <pt x="365" y="932" on="0"/>
      </contour>
    </TTGlyph>
    <TTGlyph name="Agrave" xMin="20" yMin="0" xMax="577" yMax="952">
      <contour>
        <pt x="479" y="51" on="1"/>
        <pt x="469" y="75" on="0"/>
        <pt x="446" y="138" on="0"/>
        <pt x="433" y="173" on="1"/>
        <pt x="403" y="172" on="0"/>
        <pt x="337" y="171" on="0"/>
        <pt x="303" y="171" on="1"/>
        <pt x="260" y="171" on="0"/>
        <pt x="190" y="171" on="0"/>
        <pt x="161" y="172" on="1"/>
        <pt x="149" y="137" on="0"/>
        <pt x="127" y="75" on="0"/>
        <pt x="117" y="51" on="1"/>
        <pt x="97" y="0" on="0"/>
        <pt x="59" y="0" on="1"/>
        <pt x="45" y="0" on="0"/>
        <pt x="20" y="18" on="0"/>
        <pt x="20" y="35" on="1"/>
        <pt x="20" y="52" on="0"/>
        <pt x="32" y="107" on="0"/>
        <pt x="51" y="170" on="0"/>
        <pt x="73" y="237" on="0"/>
        <pt x="83" y="266" on="1"/>
        <pt x="93" y="298" on="0"/>
        <pt x="130" y="397" on="0"/>
        <pt x="172" y="505" on="0"/>
        <pt x="214" y="610" on="0"/>
        <pt x="231" y="649" on="1"/>
        <pt x="235" y="659" on="0"/>
        <pt x="247" y="684" on="0"/>
        <pt x="264" y="706" on="0"/>
        <pt x="285" y="722" on="0"/>
        <pt x="298" y="722" on="1"/>
        <pt x="311" y="722" on="0"/>
        <pt x="333" y="705" on="0"/>
        <pt x="350" y="681" on="0"/>
        <pt x="363" y="655" on="0"/>
        <pt x="367" y="645" on="1"/>
        <pt x="383" y="605" on="0"/>
        <pt x="424" y="501" on="0"/>
        <pt x="465" y="395" on="0"/>
        <pt x="501" y="299" on="0"/>
        <pt x="512" y="266" on="1"/>
        <pt x="521" y="237" on="0"/>
        <pt x="544" y="171" on="0"/>
        <pt x="564" y="107" on="0"/>
        <pt x="577" y="52" on="0"/>
        <pt x="577" y="35" on="1"/>
        <pt x="577" y="18" on="0"/>
        <pt x="552" y="0" on="0"/>
        <pt x="538" y="0" on="1"/>
        <pt x="520" y="0" on="0"/>
        <pt x="490" y="25" on="0"/>
      </contour>
      <contour>
        <pt x="302" y="271" on="1"/>
        <pt x="326" y="271" on="0"/>
        <pt x="374" y="270" on="0"/>
        <pt x="398" y="269" on="1"/>
        <pt x="386" y="304" on="0"/>
        <pt x="362" y="374" on="0"/>
        <pt x="341" y="438" on="0"/>
        <pt x="324" y="493" on="0"/>
        <pt x="318" y="514" on="1"/>
        <pt x="314" y="527" on="0"/>
        <pt x="304" y="543" on="0"/>
        <pt x="296" y="543" on="1"/>
        <pt x="288" y="543" on="0"/>
        <pt x="278" y="526" on="0"/>
        <pt x="274" y="513" on="1"/>
        <pt x="262" y="472" on="0"/>
        <pt x="219" y="341" on="0"/>
        <pt x="195" y="269" on="1"/>
        <pt x="222" y="270" on="0"/>
        <pt x="276" y="271" on="0"/>
      </contour>
      <contour>
        <pt x="359" y="779" on="1"/>
        <pt x="344" y="779" on="0"/>
        <pt x="298" y="793" on="0"/>
        <pt x="247" y="815" on="0"/>
        <pt x="195" y="844" on="0"/>
        <pt x="153" y="874" on="0"/>
        <pt x="127" y="903" on="0"/>
        <pt x="127" y="915" on="1"/>
        <pt x="127" y="934" on="0"/>
        <pt x="151" y="952" on="0"/>
        <pt x="168" y="952" on="1"/>
        <pt x="187" y="952" on="0"/>
        <pt x="260" y="920" on="0"/>
        <pt x="333" y="874" on="0"/>
        <pt x="388" y="824" on="0"/>
        <pt x="390" y="805" on="1"/>
        <pt x="390" y="790" on="0"/>
        <pt x="370" y="781" on="0"/>
      </contour>
    </TTGlyph>
    <TTGlyph name="Aring" xMin="20" yMin="0" xMax="577" yMax="922">
      <contour>
        <pt x="418" y="807" on="1"/>
        <pt x="418" y="769" on="0"/>
        <pt x="373" y="711" on="0"/>
        <pt x="337" y="699" on="1"/>
        <pt x="348" y="686" on="0"/>
        <pt x="362" y="656" on="0"/>
        <pt x="367" y="645" on="1"/>
        <pt x="383" y="605" on="0"/>
        <pt x="424" y="501" on="0"/>
        <pt x="465" y="395" on="0"/>
        <pt x="501" y="299" on="0"/>
        <pt x="512" y="266" on="1"/>
        <pt x="521" y="237" on="0"/>
        <pt x="544" y="171" on="0"/>
        <pt x="564" y="107" on="0"/>
        <pt x="577" y="52" on="0"/>
        <pt x="577" y="35" on="1"/>
        <pt x="577" y="18" on="0"/>
        <pt x="552" y="0" on="0"/>
        <pt x="538" y="0" on="1"/>
        <pt x="520" y="0" on="0"/>
        <pt x="490" y="25" on="0"/>
        <pt x="479" y="51" on="1"/>
        <pt x="469" y="75" on="0"/>
        <pt x="446" y="138" on="0"/>
        <pt x="433" y="173" on="1"/>
        <pt x="403" y="172" on="0"/>
        <pt x="337" y="171" on="0"/>
        <pt x="303" y="171" on="1"/>
        <pt x="260" y="171" on="0"/>
        <pt x="190" y="171" on="0"/>
        <pt x="161" y="172" on="1"/>
        <pt x="149" y="137" on="0"/>
        <pt x="127" y="75" on="0"/>
        <pt x="117" y="51" on="1"/>
        <pt x="97" y="0" on="0"/>
        <pt x="59" y="0" on="1"/>
        <pt x="45" y="0" on="0"/>
        <pt x="20" y="18" on="0"/>
        <pt x="20" y="35" on="1"/>
        <pt x="20" y="52" on="0"/>
        <pt x="32" y="107" on="0"/>
        <pt x="51" y="170" on="0"/>
        <pt x="73" y="237" on="0"/>
        <pt x="83" y="266" on="1"/>
        <pt x="93" y="298" on="0"/>
        <pt x="130" y="397" on="0"/>
        <pt x="172" y="505" on="0"/>
        <pt x="214" y="610" on="0"/>
        <pt x="231" y="649" on="1"/>
        <pt x="236" y="660" on="0"/>
        <pt x="248" y="686" on="0"/>
        <pt x="257" y="698" on="1"/>
        <pt x="221" y="709" on="0"/>
        <pt x="173" y="769" on="0"/>
        <pt x="173" y="807" on="1"/>
        <pt x="173" y="832" on="0"/>
        <pt x="194" y="874" on="0"/>
        <pt x="228" y="905" on="0"/>
        <pt x="273" y="922" on="0"/>
        <pt x="296" y="922" on="1"/>
        <pt x="320" y="922" on="0"/>
        <pt x="365" y="904" on="0"/>
        <pt x="398" y="873" on="0"/>
        <pt x="418" y="831" on="0"/>
      </contour>
      <contour>
        <pt x="302" y="271" on="1"/>
        <pt x="326" y="271" on="0"/>
        <pt x="374" y="270" on="0"/>
        <pt x="398" y="269" on="1"/>
        <pt x="386" y="304" on="0"/>
        <pt x="362" y="374" on="0"/>
        <pt x="341" y="438" on="0"/>
        <pt x="324" y="493" on="0"/>
        <pt x="318" y="514" on="1"/>
        <pt x="314" y="527" on="0"/>
        <pt x="304" y="543" on="0"/>
        <pt x="296" y="543" on="1"/>
        <pt x="288" y="543" on="0"/>
        <pt x="278" y="526" on="0"/>
        <pt x="274" y="513" on="1"/>
        <pt x="262" y="472" on="0"/>
        <pt x="219" y="341" on="0"/>
        <pt x="195" y="269" on="1"/>
        <pt x="222" y="270" on="0"/>
        <pt x="276" y="271" on="0"/>
      </contour>
      <contour>
        <pt x="230" y="806" on="1"/>
        <pt x="230" y="776" on="0"/>
        <pt x="269" y="746" on="0"/>
        <pt x="295" y="746" on="1"/>
        <pt x="325" y="746" on="0"/>
        <pt x="359" y="781" on="0"/>
        <pt x="359" y="808" on="1"/>
        <pt x="359" y="834" on="0"/>
        <pt x="326" y="872" on="0"/>
        <pt x="300" y="872" on="1"/>
        <pt x="266" y="872" on="0"/>
        <pt x="230" y="835" on="0"/>
      </contour>
    </TTGlyph>
    <TTGlyph name="Atilde" xMin="20" yMin="0" xMax="577" yMax="942">
      <contour>
        <pt x="479" y="51" on="1"/>
        <pt x="469" y="75" on="0"/>
        <pt x="446" y="138" on="0"/>
        <pt x="433" y="173" on="1"/>
        <pt x="403" y="172" on="0"/>
        <pt x="337" y="171" on="0"/>
        <pt x="303" y="171" on="1"/>
        <pt x="260" y="171" on="0"/>
        <pt x="190" y="171" on="0"/>
        <pt x="161" y="172" on="1"/>
        <pt x="149" y="137" on="0"/>
        <pt x="127" y="75" on="0"/>
        <pt x="117" y="51" on="1"/>
        <pt x="97" y="0" on="0"/>
        <pt x="59" y="0" on="1"/>
        <pt x="45" y="0" on="0"/>
        <pt x="20" y="18" on="0"/>
        <pt x="20" y="35" on="1"/>
        <pt x="20" y="52" on="0"/>
        <pt x="32" y="107" on="0"/>
        <pt x="51" y="170" on="0"/>
        <pt x="73" y="237" on="0"/>
        <pt x="83" y="266" on="1"/>
        <pt x="93" y="298" on="0"/>
        <pt x="130" y="397" on="0"/>
        <pt x="172" y="505" on="0"/>
        <pt x="214" y="610" on="0"/>
        <pt x="231" y="649" on="1"/>
        <pt x="235" y="659" on="0"/>
        <pt x="247" y="684" on="0"/>
        <pt x="264" y="706" on="0"/>
        <pt x="285" y="722" on="0"/>
        <pt x="298" y="722" on="1"/>
        <pt x="311" y="722" on="0"/>
        <pt x="333" y="705" on="0"/>
        <pt x="350" y="681" on="0"/>
        <pt x="363" y="655" on="0"/>
        <pt x="367" y="645" on="1"/>
        <pt x="383" y="605" on="0"/>
        <pt x="424" y="501" on="0"/>
        <pt x="465" y="395" on="0"/>
        <pt x="501" y="299" on="0"/>
        <pt x="512" y="266" on="1"/>
        <pt x="521" y="237" on="0"/>
        <pt x="544" y="171" on="0"/>
        <pt x="564" y="107" on="0"/>
        <pt x="577" y="52" on="0"/>
        <pt x="577" y="35" on="1"/>
        <pt x="577" y="18" on="0"/>
        <pt x="552" y="0" on="0"/>
        <pt x="538" y="0" on="1"/>
        <pt x="520" y="0" on="0"/>
        <pt x="490" y="25" on="0"/>
      </contour>
      <contour>
        <pt x="302" y="271" on="1"/>
        <pt x="326" y="271" on="0"/>
        <pt x="374" y="270" on="0"/>
        <pt x="398" y="269" on="1"/>
        <pt x="386" y="304" on="0"/>
        <pt x="362" y="374" on="0"/>
        <pt x="341" y="438" on="0"/>
        <pt x="324" y="493" on="0"/>
        <pt x="318" y="514" on="1"/>
        <pt x="314" y="527" on="0"/>
        <pt x="304" y="543" on="0"/>
        <pt x="296" y="543" on="1"/>
        <pt x="288" y="543" on="0"/>
        <pt x="278" y="526" on="0"/>
        <pt x="274" y="513" on="1"/>
        <pt x="262" y="472" on="0"/>
        <pt x="219" y="341" on="0"/>
        <pt x="195" y="269" on="1"/>
        <pt x="222" y="270" on="0"/>
        <pt x="276" y="271" on="0"/>
      </contour>
      <contour>
        <pt x="224" y="843" on="1"/>
        <pt x="208" y="843" on="0"/>
        <pt x="184" y="829" on="0"/>
        <pt x="163" y="811" on="0"/>
        <pt x="142" y="797" on="0"/>
        <pt x="130" y="797" on="1"/>
        <pt x="117" y="797" on="0"/>
        <pt x="100" y="818" on="0"/>
        <pt x="100" y="835" on="1"/>
        <pt x="100" y="852" on="0"/>
        <pt x="114" y="890" on="0"/>
        <pt x="143" y="921" on="0"/>
        <pt x="185" y="942" on="0"/>
        <pt x="213" y="942" on="1"/>
        <pt x="242" y="942" on="0"/>
        <pt x="282" y="927" on="0"/>
        <pt x="313" y="908" on="0"/>
        <pt x="343" y="893" on="0"/>
        <pt x="363" y="893" on="1"/>
        <pt x="393" y="893" on="0"/>
        <pt x="422" y="907" on="0"/>
        <pt x="437" y="925" on="0"/>
        <pt x="447" y="939" on="0"/>
        <pt x="458" y="939" on="1"/>
        <pt x="472" y="939" on="0"/>
        <pt x="496" y="923" on="0"/>
        <pt x="496" y="908" on="1"/>
        <pt x="496" y="885" on="0"/>
        <pt x="479" y="844" on="0"/>
        <pt x="445" y="812" on="0"/>
        <pt x="394" y="793" on="0"/>
        <pt x="361" y="793" on="1"/>
        <pt x="340" y="793" on="0"/>
        <pt x="306" y="809" on="0"/>
        <pt x="274" y="827" on="0"/>
        <pt x="242" y="843" on="0"/>
      </contour>
    </TTGlyph>
    <TTGlyph name="B" xMin="60" yMin="0" xMax="552" yMax="715">
      <contour>
        <pt x="243" y="0" on="1"/>
        <pt x="187" y="0" on="0"/>
        <pt x="119" y="18" on="0"/>
        <pt x="82" y="51" on="0"/>
        <pt x="69" y="99" on="0"/>
        <pt x="66" y="129" on="1"/>
        <pt x="63" y="164" on="0"/>
        <pt x="60" y="279" on="0"/>
        <pt x="60" y="341" on="1"/>
        <pt x="60" y="371" on="0"/>
        <pt x="61" y="438" on="0"/>
        <pt x="62" y="503" on="0"/>
        <pt x="64" y="559" on="0"/>
        <pt x="66" y="579" on="1"/>
        <pt x="69" y="610" on="0"/>
        <pt x="83" y="660" on="0"/>
        <pt x="122" y="696" on="0"/>
        <pt x="193" y="715" on="0"/>
        <pt x="252" y="715" on="1"/>
        <pt x="386" y="715" on="0"/>
        <pt x="519" y="616" on="0"/>
        <pt x="519" y="525" on="1"/>
        <pt x="519" y="478" on="0"/>
        <pt x="478" y="398" on="0"/>
        <pt x="428" y="378" on="1"/>
        <pt x="456" y="373" on="0"/>
        <pt x="502" y="341" on="0"/>
        <pt x="535" y="296" on="0"/>
        <pt x="552" y="241" on="0"/>
        <pt x="552" y="213" on="1"/>
        <pt x="552" y="177" on="0"/>
        <pt x="522" y="102" on="0"/>
        <pt x="450" y="40" on="0"/>
        <pt x="331" y="0" on="0"/>
      </contour>
      <contour>
        <pt x="452" y="216" on="1"/>
        <pt x="452" y="252" on="0"/>
        <pt x="419" y="296" on="0"/>
        <pt x="367" y="319" on="0"/>
        <pt x="303" y="327" on="0"/>
        <pt x="271" y="327" on="1"/>
        <pt x="246" y="327" on="0"/>
        <pt x="192" y="327" on="0"/>
        <pt x="169" y="326" on="1"/>
        <pt x="168" y="305" on="0"/>
        <pt x="166" y="261" on="0"/>
        <pt x="165" y="222" on="0"/>
        <pt x="165" y="193" on="0"/>
        <pt x="165" y="187" on="1"/>
        <pt x="165" y="160" on="0"/>
        <pt x="173" y="124" on="0"/>
        <pt x="195" y="102" on="0"/>
        <pt x="236" y="93" on="0"/>
        <pt x="268" y="93" on="1"/>
        <pt x="356" y="93" on="0"/>
        <pt x="452" y="155" on="0"/>
      </contour>
      <contour>
        <pt x="267" y="620" on="1"/>
        <pt x="234" y="620" on="0"/>
        <pt x="193" y="609" on="0"/>
        <pt x="172" y="591" on="0"/>
        <pt x="165" y="565" on="0"/>
        <pt x="165" y="550" on="1"/>
        <pt x="165" y="410" on="1"/>
        <pt x="179" y="409" on="0"/>
        <pt x="210" y="409" on="0"/>
        <pt x="224" y="409" on="1"/>
        <pt x="260" y="409" on="0"/>
        <pt x="329" y="419" on="0"/>
        <pt x="385" y="443" on="0"/>
        <pt x="419" y="485" on="0"/>
        <pt x="419" y="518" on="1"/>
        <pt x="419" y="563" on="0"/>
        <pt x="346" y="620" on="0"/>
      </contour>
    </TTGlyph>
    <TTGlyph name="C" xMin="40" yMin="-9" xMax="571" yMax="708">
      <contour>
        <pt x="351" y="708" on="1"/>
        <pt x="384" y="708" on="0"/>
        <pt x="451" y="697" on="0"/>
        <pt x="505" y="674" on="0"/>
        <pt x="540" y="641" on="0"/>
        <pt x="540" y="619" on="1"/>
        <pt x="540" y="596" on="0"/>
        <pt x="516" y="572" on="0"/>
        <pt x="498" y="572" on="1"/>
        <pt x="481" y="572" on="0"/>
        <pt x="455" y="583" on="0"/>
        <pt x="422" y="597" on="0"/>
        <pt x="376" y="608" on="0"/>
        <pt x="338" y="608" on="1"/>
        <pt x="300" y="608" on="0"/>
        <pt x="231" y="569" on="0"/>
        <pt x="180" y="500" on="0"/>
        <pt x="150" y="406" on="0"/>
        <pt x="150" y="351" on="1"/>
        <pt x="150" y="283" on="0"/>
        <pt x="185" y="185" on="0"/>
        <pt x="241" y="122" on="0"/>
        <pt x="312" y="91" on="0"/>
        <pt x="348" y="91" on="1"/>
        <pt x="391" y="91" on="0"/>
        <pt x="449" y="109" on="0"/>
        <pt x="490" y="131" on="0"/>
        <pt x="520" y="149" on="0"/>
        <pt x="534" y="149" on="1"/>
        <pt x="551" y="149" on="0"/>
        <pt x="571" y="130" on="0"/>
        <pt x="571" y="106" on="1"/>
        <pt x="571" y="86" on="0"/>
        <pt x="540" y="45" on="0"/>
        <pt x="481" y="12" on="0"/>
        <pt x="399" y="-9" on="0"/>
        <pt x="348" y="-9" on="1"/>
        <pt x="292" y="-9" on="0"/>
        <pt x="181" y="35" on="0"/>
        <pt x="94" y="122" on="0"/>
        <pt x="40" y="253" on="0"/>
        <pt x="40" y="340" on="1"/>
        <pt x="40" y="427" on="0"/>
        <pt x="89" y="563" on="0"/>
        <pt x="174" y="658" on="0"/>
        <pt x="287" y="708" on="0"/>
      </contour>
    </TTGlyph>
    <TTGlyph name="Ccedilla" xMin="40" yMin="-241" xMax="571" yMax="708">
      <contour>
        <pt x="351" y="708" on="1"/>
        <pt x="384" y="708" on="0"/>
        <pt x="451" y="697" on="0"/>
        <pt x="505" y="674" on="0"/>
        <pt x="540" y="641" on="0"/>
        <pt x="540" y="619" on="1"/>
        <pt x="540" y="596" on="0"/>
        <pt x="516" y="572" on="0"/>
        <pt x="498" y="572" on="1"/>
        <pt x="481" y="572" on="0"/>
        <pt x="455" y="583" on="0"/>
        <pt x="422" y="597" on="0"/>
        <pt x="376" y="608" on="0"/>
        <pt x="338" y="608" on="1"/>
        <pt x="300" y="608" on="0"/>
        <pt x="231" y="569" on="0"/>
        <pt x="180" y="500" on="0"/>
        <pt x="150" y="406" on="0"/>
        <pt x="150" y="351" on="1"/>
        <pt x="150" y="283" on="0"/>
        <pt x="185" y="185" on="0"/>
        <pt x="241" y="122" on="0"/>
        <pt x="312" y="91" on="0"/>
        <pt x="348" y="91" on="1"/>
        <pt x="391" y="91" on="0"/>
        <pt x="449" y="109" on="0"/>
        <pt x="490" y="131" on="0"/>
        <pt x="520" y="149" on="0"/>
        <pt x="534" y="149" on="1"/>
        <pt x="551" y="149" on="0"/>
        <pt x="571" y="130" on="0"/>
        <pt x="571" y="106" on="1"/>
        <pt x="571" y="87" on="0"/>
        <pt x="542" y="48" on="0"/>
        <pt x="489" y="16" on="0"/>
        <pt x="413" y="-6" on="0"/>
        <pt x="366" y="-8" on="1"/>
        <pt x="366" y="-14" on="1"/>
        <pt x="366" y="-34" on="0"/>
        <pt x="386" y="-51" on="0"/>
        <pt x="405" y="-58" on="1"/>
        <pt x="434" y="-69" on="0"/>
        <pt x="464" y="-106" on="0"/>
        <pt x="464" y="-141" on="1"/>
        <pt x="464" y="-155" on="0"/>
        <pt x="457" y="-190" on="0"/>
        <pt x="431" y="-220" on="0"/>
        <pt x="383" y="-241" on="0"/>
        <pt x="343" y="-241" on="1"/>
        <pt x="314" y="-241" on="0"/>
        <pt x="271" y="-225" on="0"/>
        <pt x="271" y="-201" on="1"/>
        <pt x="271" y="-181" on="0"/>
        <pt x="298" y="-166" on="0"/>
        <pt x="313" y="-166" on="1"/>
        <pt x="322" y="-166" on="0"/>
        <pt x="351" y="-169" on="0"/>
        <pt x="360" y="-169" on="1"/>
        <pt x="372" y="-169" on="0"/>
        <pt x="391" y="-159" on="0"/>
        <pt x="391" y="-145" on="1"/>
        <pt x="391" y="-127" on="0"/>
        <pt x="359" y="-112" on="0"/>
        <pt x="322" y="-95" on="0"/>
        <pt x="290" y="-67" on="0"/>
        <pt x="290" y="-37" on="1"/>
        <pt x="290" y="-34" on="0"/>
        <pt x="291" y="-21" on="0"/>
        <pt x="293" y="-4" on="1"/>
        <pt x="243" y="5" on="0"/>
        <pt x="152" y="58" on="0"/>
        <pt x="82" y="144" on="0"/>
        <pt x="40" y="263" on="0"/>
        <pt x="40" y="340" on="1"/>
        <pt x="40" y="427" on="0"/>
        <pt x="89" y="563" on="0"/>
        <pt x="174" y="658" on="0"/>
        <pt x="287" y="708" on="0"/>
      </contour>
    </TTGlyph>
    <TTGlyph name="D" xMin="60" yMin="-11" xMax="579" yMax="707">
      <contour>
        <pt x="265" y="707" on="1"/>
        <pt x="368" y="707" on="0"/>
        <pt x="492" y="645" on="0"/>
        <pt x="558" y="543" on="0"/>
        <pt x="579" y="413" on="0"/>
        <pt x="579" y="346" on="1"/>
        <pt x="579" y="273" on="0"/>
        <pt x="542" y="143" on="0"/>
        <pt x="465" y="46" on="0"/>
        <pt x="345" y="-11" on="0"/>
        <pt x="262" y="-11" on="1"/>
        <pt x="196" y="-11" on="0"/>
        <pt x="117" y="8" on="0"/>
        <pt x="74" y="46" on="0"/>
        <pt x="60" y="104" on="0"/>
        <pt x="60" y="143" on="1"/>
        <pt x="60" y="519" on="1"/>
        <pt x="60" y="562" on="0"/>
        <pt x="75" y="632" on="0"/>
        <pt x="119" y="681" on="0"/>
        <pt x="200" y="707" on="0"/>
      </contour>
      <contour>
        <pt x="269" y="89" on="1"/>
        <pt x="331" y="89" on="0"/>
        <pt x="412" y="134" on="0"/>
        <pt x="460" y="208" on="0"/>
        <pt x="479" y="302" on="0"/>
        <pt x="479" y="351" on="1"/>
        <pt x="479" y="396" on="0"/>
        <pt x="465" y="487" on="0"/>
        <pt x="421" y="561" on="0"/>
        <pt x="339" y="607" on="0"/>
        <pt x="271" y="607" on="1"/>
        <pt x="209" y="607" on="0"/>
        <pt x="161" y="571" on="0"/>
        <pt x="161" y="534" on="1"/>
        <pt x="161" y="151" on="1"/>
        <pt x="161" y="120" on="0"/>
        <pt x="206" y="89" on="0"/>
      </contour>
    </TTGlyph>
    <TTGlyph name="E" xMin="60" yMin="-7" xMax="529" yMax="703">
      <contour>
        <pt x="66" y="152" on="1"/>
        <pt x="64" y="184" on="0"/>
        <pt x="60" y="294" on="0"/>
        <pt x="60" y="352" on="1"/>
        <pt x="60" y="385" on="0"/>
        <pt x="61" y="456" on="0"/>
        <pt x="62" y="493" on="1"/>
        <pt x="64" y="567" on="0"/>
        <pt x="79" y="651" on="0"/>
        <pt x="124" y="693" on="0"/>
        <pt x="206" y="703" on="0"/>
        <pt x="274" y="703" on="1"/>
        <pt x="275" y="703" on="0"/>
        <pt x="316" y="703" on="0"/>
        <pt x="374" y="702" on="0"/>
        <pt x="437" y="700" on="0"/>
        <pt x="458" y="699" on="1"/>
        <pt x="480" y="697" on="0"/>
        <pt x="507" y="690" on="0"/>
        <pt x="521" y="679" on="0"/>
        <pt x="525" y="664" on="0"/>
        <pt x="525" y="655" on="1"/>
        <pt x="525" y="632" on="0"/>
        <pt x="499" y="611" on="0"/>
        <pt x="459" y="608" on="1"/>
        <pt x="439" y="606" on="0"/>
        <pt x="362" y="605" on="0"/>
        <pt x="282" y="605" on="0"/>
        <pt x="218" y="604" on="0"/>
        <pt x="210" y="604" on="1"/>
        <pt x="184" y="603" on="0"/>
        <pt x="163" y="582" on="0"/>
        <pt x="163" y="543" on="1"/>
        <pt x="163" y="534" on="0"/>
        <pt x="166" y="465" on="0"/>
        <pt x="166" y="403" on="1"/>
        <pt x="249" y="403" on="1"/>
        <pt x="302" y="403" on="0"/>
        <pt x="369" y="400" on="0"/>
        <pt x="406" y="390" on="0"/>
        <pt x="420" y="368" on="0"/>
        <pt x="420" y="350" on="1"/>
        <pt x="420" y="341" on="0"/>
        <pt x="417" y="326" on="0"/>
        <pt x="403" y="315" on="0"/>
        <pt x="377" y="308" on="0"/>
        <pt x="353" y="306" on="1"/>
        <pt x="324" y="304" on="0"/>
        <pt x="273" y="303" on="0"/>
        <pt x="248" y="303" on="1"/>
        <pt x="164" y="303" on="1"/>
        <pt x="164" y="288" on="0"/>
        <pt x="164" y="246" on="0"/>
        <pt x="164" y="202" on="0"/>
        <pt x="165" y="160" on="0"/>
        <pt x="166" y="147" on="1"/>
        <pt x="167" y="131" on="0"/>
        <pt x="174" y="109" on="0"/>
        <pt x="193" y="95" on="0"/>
        <pt x="230" y="89" on="0"/>
        <pt x="261" y="89" on="1"/>
        <pt x="476" y="89" on="1"/>
        <pt x="511" y="89" on="0"/>
        <pt x="529" y="63" on="0"/>
        <pt x="529" y="41" on="1"/>
        <pt x="529" y="23" on="0"/>
        <pt x="513" y="4" on="0"/>
        <pt x="452" y="-5" on="0"/>
        <pt x="331" y="-7" on="0"/>
        <pt x="225" y="-7" on="1"/>
        <pt x="180" y="-7" on="0"/>
        <pt x="122" y="9" on="0"/>
        <pt x="86" y="47" on="0"/>
        <pt x="69" y="108" on="0"/>
      </contour>
    </TTGlyph>
    <TTGlyph name="Eacute" xMin="60" yMin="-7" xMax="529" yMax="933">
      <contour>
        <pt x="66" y="152" on="1"/>
        <pt x="64" y="184" on="0"/>
        <pt x="60" y="294" on="0"/>
        <pt x="60" y="352" on="1"/>
        <pt x="60" y="385" on="0"/>
        <pt x="61" y="456" on="0"/>
        <pt x="62" y="493" on="1"/>
        <pt x="64" y="567" on="0"/>
        <pt x="79" y="651" on="0"/>
        <pt x="124" y="693" on="0"/>
        <pt x="206" y="703" on="0"/>
        <pt x="274" y="703" on="1"/>
        <pt x="275" y="703" on="0"/>
        <pt x="316" y="703" on="0"/>
        <pt x="374" y="702" on="0"/>
        <pt x="437" y="700" on="0"/>
        <pt x="458" y="699" on="1"/>
        <pt x="480" y="697" on="0"/>
        <pt x="507" y="690" on="0"/>
        <pt x="521" y="679" on="0"/>
        <pt x="525" y="664" on="0"/>
        <pt x="525" y="655" on="1"/>
        <pt x="525" y="632" on="0"/>
        <pt x="499" y="611" on="0"/>
        <pt x="459" y="608" on="1"/>
        <pt x="439" y="606" on="0"/>
        <pt x="362" y="605" on="0"/>
        <pt x="282" y="605" on="0"/>
        <pt x="218" y="604" on="0"/>
        <pt x="210" y="604" on="1"/>
        <pt x="184" y="603" on="0"/>
        <pt x="163" y="582" on="0"/>
        <pt x="163" y="543" on="1"/>
        <pt x="163" y="534" on="0"/>
        <pt x="166" y="465" on="0"/>
        <pt x="166" y="403" on="1"/>
        <pt x="249" y="403" on="1"/>
        <pt x="302" y="403" on="0"/>
        <pt x="369" y="400" on="0"/>
        <pt x="406" y="390" on="0"/>
        <pt x="420" y="368" on="0"/>
        <pt x="420" y="350" on="1"/>
        <pt x="420" y="341" on="0"/>
        <pt x="417" y="326" on="0"/>
        <pt x="403" y="315" on="0"/>
        <pt x="377" y="308" on="0"/>
        <pt x="353" y="306" on="1"/>
        <pt x="324" y="304" on="0"/>
        <pt x="273" y="303" on="0"/>
        <pt x="248" y="303" on="1"/>
        <pt x="164" y="303" on="1"/>
        <pt x="164" y="288" on="0"/>
        <pt x="164" y="246" on="0"/>
        <pt x="164" y="202" on="0"/>
        <pt x="165" y="160" on="0"/>
        <pt x="166" y="147" on="1"/>
        <pt x="167" y="131" on="0"/>
        <pt x="174" y="109" on="0"/>
        <pt x="193" y="95" on="0"/>
        <pt x="230" y="89" on="0"/>
        <pt x="261" y="89" on="1"/>
        <pt x="476" y="89" on="1"/>
        <pt x="511" y="89" on="0"/>
        <pt x="529" y="63" on="0"/>
        <pt x="529" y="41" on="1"/>
        <pt x="529" y="23" on="0"/>
        <pt x="513" y="4" on="0"/>
        <pt x="452" y="-5" on="0"/>
        <pt x="331" y="-7" on="0"/>
        <pt x="225" y="-7" on="1"/>
        <pt x="180" y="-7" on="0"/>
        <pt x="122" y="9" on="0"/>
        <pt x="86" y="47" on="0"/>
        <pt x="69" y="108" on="0"/>
      </contour>
      <contour>
        <pt x="261" y="758" on="1"/>
        <pt x="250" y="760" on="0"/>
        <pt x="229" y="771" on="0"/>
        <pt x="229" y="786" on="1"/>
        <pt x="230" y="798" on="0"/>
        <pt x="257" y="830" on="0"/>
        <pt x="297" y="863" on="0"/>
        <pt x="347" y="894" on="0"/>
        <pt x="396" y="918" on="0"/>
        <pt x="438" y="933" on="0"/>
        <pt x="451" y="933" on="1"/>
        <pt x="468" y="933" on="0"/>
        <pt x="493" y="913" on="0"/>
        <pt x="493" y="894" on="1"/>
        <pt x="493" y="882" on="0"/>
        <pt x="467" y="853" on="0"/>
        <pt x="425" y="823" on="0"/>
        <pt x="373" y="794" on="0"/>
        <pt x="322" y="772" on="0"/>
        <pt x="276" y="758" on="0"/>
      </contour>
    </TTGlyph>
    <TTGlyph name="Ecircumflex" xMin="60" yMin="-7" xMax="529" yMax="925">
      <contour>
        <pt x="66" y="152" on="1"/>
        <pt x="64" y="184" on="0"/>
        <pt x="60" y="294" on="0"/>
        <pt x="60" y="352" on="1"/>
        <pt x="60" y="385" on="0"/>
        <pt x="61" y="456" on="0"/>
        <pt x="62" y="493" on="1"/>
        <pt x="64" y="567" on="0"/>
        <pt x="79" y="651" on="0"/>
        <pt x="124" y="693" on="0"/>
        <pt x="206" y="703" on="0"/>
        <pt x="274" y="703" on="1"/>
        <pt x="275" y="703" on="0"/>
        <pt x="316" y="703" on="0"/>
        <pt x="374" y="702" on="0"/>
        <pt x="437" y="700" on="0"/>
        <pt x="458" y="699" on="1"/>
        <pt x="480" y="697" on="0"/>
        <pt x="507" y="690" on="0"/>
        <pt x="521" y="679" on="0"/>
        <pt x="525" y="664" on="0"/>
        <pt x="525" y="655" on="1"/>
        <pt x="525" y="632" on="0"/>
        <pt x="499" y="611" on="0"/>
        <pt x="459" y="608" on="1"/>
        <pt x="439" y="606" on="0"/>
        <pt x="362" y="605" on="0"/>
        <pt x="282" y="605" on="0"/>
        <pt x="218" y="604" on="0"/>
        <pt x="210" y="604" on="1"/>
        <pt x="184" y="603" on="0"/>
        <pt x="163" y="582" on="0"/>
        <pt x="163" y="543" on="1"/>
        <pt x="163" y="534" on="0"/>
        <pt x="166" y="465" on="0"/>
        <pt x="166" y="403" on="1"/>
        <pt x="249" y="403" on="1"/>
        <pt x="302" y="403" on="0"/>
        <pt x="369" y="400" on="0"/>
        <pt x="406" y="390" on="0"/>
        <pt x="420" y="368" on="0"/>
        <pt x="420" y="350" on="1"/>
        <pt x="420" y="341" on="0"/>
        <pt x="417" y="326" on="0"/>
        <pt x="403" y="315" on="0"/>
        <pt x="377" y="308" on="0"/>
        <pt x="353" y="306" on="1"/>
        <pt x="324" y="304" on="0"/>
        <pt x="273" y="303" on="0"/>
        <pt x="248" y="303" on="1"/>
        <pt x="164" y="303" on="1"/>
        <pt x="164" y="288" on="0"/>
        <pt x="164" y="246" on="0"/>
        <pt x="164" y="202" on="0"/>
        <pt x="165" y="160" on="0"/>
        <pt x="166" y="147" on="1"/>
        <pt x="167" y="131" on="0"/>
        <pt x="174" y="109" on="0"/>
        <pt x="193" y="95" on="0"/>
        <pt x="230" y="89" on="0"/>
        <pt x="261" y="89" on="1"/>
        <pt x="476" y="89" on="1"/>
        <pt x="511" y="89" on="0"/>
        <pt x="529" y="63" on="0"/>
        <pt x="529" y="41" on="1"/>
        <pt x="529" y="23" on="0"/>
        <pt x="513" y="4" on="0"/>
        <pt x="452" y="-5" on="0"/>
        <pt x="331" y="-7" on="0"/>
        <pt x="225" y="-7" on="1"/>
        <pt x="180" y="-7" on="0"/>
        <pt x="122" y="9" on="0"/>
        <pt x="86" y="47" on="0"/>
        <pt x="69" y="108" on="0"/>
      </contour>
      <contour>
        <pt x="310" y="925" on="1"/>
        <pt x="320" y="925" on="0"/>
        <pt x="355" y="908" on="0"/>
        <pt x="393" y="883" on="0"/>
        <pt x="430" y="852" on="0"/>
        <pt x="443" y="839" on="1"/>
        <pt x="454" y="827" on="0"/>
        <pt x="467" y="804" on="0"/>
        <pt x="467" y="791" on="1"/>
        <pt x="467" y="774" on="0"/>
        <pt x="446" y="748" on="0"/>
        <pt x="426" y="748" on="1"/>
        <pt x="409" y="748" on="0"/>
        <pt x="366" y="778" on="0"/>
        <pt x="331" y="810" on="1"/>
        <pt x="310" y="829" on="1"/>
        <pt x="289" y="810" on="1"/>
        <pt x="254" y="778" on="0"/>
        <pt x="209" y="749" on="0"/>
        <pt x="192" y="749" on="1"/>
        <pt x="174" y="749" on="0"/>
        <pt x="151" y="772" on="0"/>
        <pt x="151" y="789" on="1"/>
        <pt x="151" y="798" on="0"/>
        <pt x="162" y="823" on="0"/>
        <pt x="177" y="839" on="1"/>
        <pt x="190" y="852" on="0"/>
        <pt x="227" y="883" on="0"/>
        <pt x="265" y="908" on="0"/>
        <pt x="299" y="925" on="0"/>
      </contour>
    </TTGlyph>
    <TTGlyph name="Edieresis" xMin="60" yMin="-7" xMax="529" yMax="919">
      <contour>
        <pt x="66" y="152" on="1"/>
        <pt x="64" y="184" on="0"/>
        <pt x="60" y="294" on="0"/>
        <pt x="60" y="352" on="1"/>
        <pt x="60" y="385" on="0"/>
        <pt x="61" y="456" on="0"/>
        <pt x="62" y="493" on="1"/>
        <pt x="64" y="567" on="0"/>
        <pt x="79" y="651" on="0"/>
        <pt x="124" y="693" on="0"/>
        <pt x="206" y="703" on="0"/>
        <pt x="274" y="703" on="1"/>
        <pt x="275" y="703" on="0"/>
        <pt x="316" y="703" on="0"/>
        <pt x="374" y="702" on="0"/>
        <pt x="437" y="700" on="0"/>
        <pt x="458" y="699" on="1"/>
        <pt x="480" y="697" on="0"/>
        <pt x="507" y="690" on="0"/>
        <pt x="521" y="679" on="0"/>
        <pt x="525" y="664" on="0"/>
        <pt x="525" y="655" on="1"/>
        <pt x="525" y="632" on="0"/>
        <pt x="499" y="611" on="0"/>
        <pt x="459" y="608" on="1"/>
        <pt x="439" y="606" on="0"/>
        <pt x="362" y="605" on="0"/>
        <pt x="282" y="605" on="0"/>
        <pt x="218" y="604" on="0"/>
        <pt x="210" y="604" on="1"/>
        <pt x="184" y="603" on="0"/>
        <pt x="163" y="582" on="0"/>
        <pt x="163" y="543" on="1"/>
        <pt x="163" y="534" on="0"/>
        <pt x="166" y="465" on="0"/>
        <pt x="166" y="403" on="1"/>
        <pt x="249" y="403" on="1"/>
        <pt x="302" y="403" on="0"/>
        <pt x="369" y="400" on="0"/>
        <pt x="406" y="390" on="0"/>
        <pt x="420" y="368" on="0"/>
        <pt x="420" y="350" on="1"/>
        <pt x="420" y="341" on="0"/>
        <pt x="417" y="326" on="0"/>
        <pt x="403" y="315" on="0"/>
        <pt x="377" y="308" on="0"/>
        <pt x="353" y="306" on="1"/>
        <pt x="324" y="304" on="0"/>
        <pt x="273" y="303" on="0"/>
        <pt x="248" y="303" on="1"/>
        <pt x="164" y="303" on="1"/>
        <pt x="164" y="288" on="0"/>
        <pt x="164" y="246" on="0"/>
        <pt x="164" y="202" on="0"/>
        <pt x="165" y="160" on="0"/>
        <pt x="166" y="147" on="1"/>
        <pt x="167" y="131" on="0"/>
        <pt x="174" y="109" on="0"/>
        <pt x="193" y="95" on="0"/>
        <pt x="230" y="89" on="0"/>
        <pt x="261" y="89" on="1"/>
        <pt x="476" y="89" on="1"/>
        <pt x="511" y="89" on="0"/>
        <pt x="529" y="63" on="0"/>
        <pt x="529" y="41" on="1"/>
        <pt x="529" y="23" on="0"/>
        <pt x="513" y="4" on="0"/>
        <pt x="452" y="-5" on="0"/>
        <pt x="331" y="-7" on="0"/>
        <pt x="225" y="-7" on="1"/>
        <pt x="180" y="-7" on="0"/>
        <pt x="122" y="9" on="0"/>
        <pt x="86" y="47" on="0"/>
        <pt x="69" y="108" on="0"/>
      </contour>
      <contour>
        <pt x="212" y="919" on="1"/>
        <pt x="235" y="919" on="0"/>
        <pt x="274" y="883" on="0"/>
        <pt x="274" y="858" on="1"/>
        <pt x="274" y="834" on="0"/>
        <pt x="234" y="799" on="0"/>
        <pt x="209" y="799" on="1"/>
        <pt x="188" y="799" on="0"/>
        <pt x="151" y="834" on="0"/>
        <pt x="151" y="860" on="1"/>
        <pt x="151" y="884" on="0"/>
        <pt x="188" y="919" on="0"/>
      </contour>
      <contour>
        <pt x="392" y="919" on="1"/>
        <pt x="415" y="919" on="0"/>
        <pt x="454" y="883" on="0"/>
        <pt x="454" y="858" on="1"/>
        <pt x="454" y="834" on="0"/>
        <pt x="414" y="799" on="0"/>
        <pt x="389" y="799" on="1"/>
        <pt x="368" y="799" on="0"/>
        <pt x="331" y="834" on="0"/>
        <pt x="331" y="860" on="1"/>
        <pt x="331" y="884" on="0"/>
        <pt x="368" y="919" on="0"/>
      </contour>
    </TTGlyph>
    <TTGlyph name="Egrave" xMin="60" yMin="-7" xMax="529" yMax="937">
      <contour>
        <pt x="66" y="152" on="1"/>
        <pt x="64" y="184" on="0"/>
        <pt x="60" y="294" on="0"/>
        <pt x="60" y="352" on="1"/>
        <pt x="60" y="385" on="0"/>
        <pt x="61" y="456" on="0"/>
        <pt x="62" y="493" on="1"/>
        <pt x="64" y="567" on="0"/>
        <pt x="79" y="651" on="0"/>
        <pt x="124" y="693" on="0"/>
        <pt x="206" y="703" on="0"/>
        <pt x="274" y="703" on="1"/>
        <pt x="275" y="703" on="0"/>
        <pt x="316" y="703" on="0"/>
        <pt x="374" y="702" on="0"/>
        <pt x="437" y="700" on="0"/>
        <pt x="458" y="699" on="1"/>
        <pt x="480" y="697" on="0"/>
        <pt x="507" y="690" on="0"/>
        <pt x="521" y="679" on="0"/>
        <pt x="525" y="664" on="0"/>
        <pt x="525" y="655" on="1"/>
        <pt x="525" y="632" on="0"/>
        <pt x="499" y="611" on="0"/>
        <pt x="459" y="608" on="1"/>
        <pt x="439" y="606" on="0"/>
        <pt x="362" y="605" on="0"/>
        <pt x="282" y="605" on="0"/>
        <pt x="218" y="604" on="0"/>
        <pt x="210" y="604" on="1"/>
        <pt x="184" y="603" on="0"/>
        <pt x="163" y="582" on="0"/>
        <pt x="163" y="543" on="1"/>
        <pt x="163" y="534" on="0"/>
        <pt x="166" y="465" on="0"/>
        <pt x="166" y="403" on="1"/>
        <pt x="249" y="403" on="1"/>
        <pt x="302" y="403" on="0"/>
        <pt x="369" y="400" on="0"/>
        <pt x="406" y="390" on="0"/>
        <pt x="420" y="368" on="0"/>
        <pt x="420" y="350" on="1"/>
        <pt x="420" y="341" on="0"/>
        <pt x="417" y="326" on="0"/>
        <pt x="403" y="315" on="0"/>
        <pt x="377" y="308" on="0"/>
        <pt x="353" y="306" on="1"/>
        <pt x="324" y="304" on="0"/>
        <pt x="273" y="303" on="0"/>
        <pt x="248" y="303" on="1"/>
        <pt x="164" y="303" on="1"/>
        <pt x="164" y="288" on="0"/>
        <pt x="164" y="246" on="0"/>
        <pt x="164" y="202" on="0"/>
        <pt x="165" y="160" on="0"/>
        <pt x="166" y="147" on="1"/>
        <pt x="167" y="131" on="0"/>
        <pt x="174" y="109" on="0"/>
        <pt x="193" y="95" on="0"/>
        <pt x="230" y="89" on="0"/>
        <pt x="261" y="89" on="1"/>
        <pt x="476" y="89" on="1"/>
        <pt x="511" y="89" on="0"/>
        <pt x="529" y="63" on="0"/>
        <pt x="529" y="41" on="1"/>
        <pt x="529" y="23" on="0"/>
        <pt x="513" y="4" on="0"/>
        <pt x="452" y="-5" on="0"/>
        <pt x="331" y="-7" on="0"/>
        <pt x="225" y="-7" on="1"/>
        <pt x="180" y="-7" on="0"/>
        <pt x="122" y="9" on="0"/>
        <pt x="86" y="47" on="0"/>
        <pt x="69" y="108" on="0"/>
      </contour>
      <contour>
        <pt x="374" y="764" on="1"/>
        <pt x="359" y="764" on="0"/>
        <pt x="313" y="778" on="0"/>
        <pt x="262" y="800" on="0"/>
        <pt x="210" y="829" on="0"/>
        <pt x="168" y="859" on="0"/>
        <pt x="142" y="888" on="0"/>
        <pt x="142" y="900" on="1"/>
        <pt x="142" y="919" on="0"/>
        <pt x="166" y="937" on="0"/>
        <pt x="183" y="937" on="1"/>
        <pt x="202" y="937" on="0"/>
        <pt x="275" y="905" on="0"/>
        <pt x="348" y="859" on="0"/>
        <pt x="403" y="809" on="0"/>
        <pt x="405" y="790" on="1"/>
        <pt x="405" y="775" on="0"/>
        <pt x="385" y="766" on="0"/>
      </contour>
    </TTGlyph>
    <TTGlyph name="Eth" xMin="10" yMin="-11" xMax="619" yMax="707">
      <contour>
        <pt x="305" y="707" on="1"/>
        <pt x="408" y="707" on="0"/>
        <pt x="532" y="645" on="0"/>
        <pt x="598" y="543" on="0"/>
        <pt x="619" y="413" on="0"/>
        <pt x="619" y="346" on="1"/>
        <pt x="619" y="273" on="0"/>
        <pt x="582" y="143" on="0"/>
        <pt x="505" y="46" on="0"/>
        <pt x="385" y="-11" on="0"/>
        <pt x="302" y="-11" on="1"/>
        <pt x="236" y="-11" on="0"/>
        <pt x="157" y="8" on="0"/>
        <pt x="114" y="46" on="0"/>
        <pt x="100" y="104" on="0"/>
        <pt x="100" y="143" on="1"/>
        <pt x="100" y="287" on="1"/>
        <pt x="52" y="288" on="0"/>
        <pt x="10" y="304" on="0"/>
        <pt x="10" y="336" on="1"/>
        <pt x="10" y="359" on="0"/>
        <pt x="51" y="381" on="0"/>
        <pt x="100" y="385" on="1"/>
        <pt x="100" y="519" on="1"/>
        <pt x="100" y="562" on="0"/>
        <pt x="115" y="632" on="0"/>
        <pt x="159" y="681" on="0"/>
        <pt x="240" y="707" on="0"/>
      </contour>
      <contour>
        <pt x="309" y="89" on="1"/>
        <pt x="371" y="89" on="0"/>
        <pt x="452" y="134" on="0"/>
        <pt x="500" y="208" on="0"/>
        <pt x="519" y="302" on="0"/>
        <pt x="519" y="351" on="1"/>
        <pt x="519" y="396" on="0"/>
        <pt x="505" y="487" on="0"/>
        <pt x="461" y="561" on="0"/>
        <pt x="379" y="607" on="0"/>
        <pt x="311" y="607" on="1"/>
        <pt x="249" y="607" on="0"/>
        <pt x="201" y="571" on="0"/>
        <pt x="201" y="534" on="1"/>
        <pt x="201" y="387" on="1"/>
        <pt x="256" y="385" on="0"/>
        <pt x="322" y="381" on="0"/>
        <pt x="358" y="370" on="0"/>
        <pt x="370" y="352" on="0"/>
        <pt x="370" y="336" on="1"/>
        <pt x="370" y="321" on="0"/>
        <pt x="355" y="303" on="0"/>
        <pt x="318" y="292" on="0"/>
        <pt x="252" y="288" on="0"/>
        <pt x="201" y="287" on="1"/>
        <pt x="201" y="151" on="1"/>
        <pt x="201" y="120" on="0"/>
        <pt x="246" y="89" on="0"/>
      </contour>
    </TTGlyph>
    <TTGlyph name="Euro" xMin="22" yMin="-9" xMax="654" yMax="708">
      <contour>
        <pt x="491" y="378" on="1"/>
        <pt x="442" y="375" on="0"/>
        <pt x="314" y="373" on="0"/>
        <pt x="233" y="373" on="1"/>
        <pt x="233" y="351" on="1"/>
        <pt x="233" y="342" on="0"/>
        <pt x="233" y="326" on="0"/>
        <pt x="234" y="318" on="1"/>
        <pt x="309" y="318" on="1"/>
        <pt x="356" y="318" on="0"/>
        <pt x="436" y="316" on="0"/>
        <pt x="480" y="314" on="1"/>
        <pt x="504" y="312" on="0"/>
        <pt x="530" y="305" on="0"/>
        <pt x="544" y="293" on="0"/>
        <pt x="547" y="277" on="0"/>
        <pt x="547" y="267" on="1"/>
        <pt x="547" y="249" on="0"/>
        <pt x="522" y="225" on="0"/>
        <pt x="481" y="223" on="1"/>
        <pt x="437" y="221" on="0"/>
        <pt x="326" y="218" on="0"/>
        <pt x="256" y="218" on="1"/>
        <pt x="283" y="152" on="0"/>
        <pt x="379" y="91" on="0"/>
        <pt x="431" y="91" on="1"/>
        <pt x="474" y="91" on="0"/>
        <pt x="532" y="109" on="0"/>
        <pt x="573" y="131" on="0"/>
        <pt x="603" y="149" on="0"/>
        <pt x="617" y="149" on="1"/>
        <pt x="634" y="149" on="0"/>
        <pt x="654" y="130" on="0"/>
        <pt x="654" y="106" on="1"/>
        <pt x="654" y="86" on="0"/>
        <pt x="623" y="45" on="0"/>
        <pt x="564" y="12" on="0"/>
        <pt x="482" y="-9" on="0"/>
        <pt x="431" y="-9" on="1"/>
        <pt x="386" y="-9" on="0"/>
        <pt x="296" y="19" on="0"/>
        <pt x="217" y="76" on="0"/>
        <pt x="156" y="161" on="0"/>
        <pt x="139" y="218" on="1"/>
        <pt x="107" y="218" on="0"/>
        <pt x="63" y="220" on="0"/>
        <pt x="35" y="229" on="0"/>
        <pt x="22" y="249" on="0"/>
        <pt x="22" y="267" on="1"/>
        <pt x="22" y="277" on="0"/>
        <pt x="29" y="295" on="0"/>
        <pt x="50" y="309" on="0"/>
        <pt x="90" y="316" on="0"/>
        <pt x="123" y="316" on="1"/>
        <pt x="123" y="340" on="1"/>
        <pt x="123" y="348" on="0"/>
        <pt x="123" y="365" on="0"/>
        <pt x="124" y="373" on="1"/>
        <pt x="74" y="374" on="0"/>
        <pt x="32" y="390" on="0"/>
        <pt x="32" y="422" on="1"/>
        <pt x="32" y="430" on="0"/>
        <pt x="36" y="446" on="0"/>
        <pt x="50" y="459" on="0"/>
        <pt x="75" y="467" on="0"/>
        <pt x="95" y="469" on="1"/>
        <pt x="140" y="472" on="1"/>
        <pt x="156" y="528" on="0"/>
        <pt x="214" y="616" on="0"/>
        <pt x="290" y="676" on="0"/>
        <pt x="383" y="708" on="0"/>
        <pt x="434" y="708" on="1"/>
        <pt x="467" y="708" on="0"/>
        <pt x="534" y="697" on="0"/>
        <pt x="588" y="674" on="0"/>
        <pt x="623" y="641" on="0"/>
        <pt x="623" y="619" on="1"/>
        <pt x="623" y="596" on="0"/>
        <pt x="599" y="572" on="0"/>
        <pt x="581" y="572" on="1"/>
        <pt x="564" y="572" on="0"/>
        <pt x="538" y="583" on="0"/>
        <pt x="505" y="597" on="0"/>
        <pt x="459" y="608" on="0"/>
        <pt x="421" y="608" on="1"/>
        <pt x="367" y="608" on="0"/>
        <pt x="279" y="534" on="0"/>
        <pt x="255" y="473" on="1"/>
        <pt x="319" y="473" on="1"/>
        <pt x="366" y="473" on="0"/>
        <pt x="446" y="471" on="0"/>
        <pt x="490" y="469" on="1"/>
        <pt x="514" y="467" on="0"/>
        <pt x="540" y="460" on="0"/>
        <pt x="554" y="448" on="0"/>
        <pt x="557" y="432" on="0"/>
        <pt x="557" y="422" on="1"/>
        <pt x="557" y="404" on="0"/>
        <pt x="532" y="380" on="0"/>
      </contour>
    </TTGlyph>
    <TTGlyph name="F" xMin="60" yMin="-4" xMax="515" yMax="703">
      <contour>
        <pt x="60" y="465" on="1"/>
        <pt x="60" y="549" on="0"/>
        <pt x="72" y="644" on="0"/>
        <pt x="110" y="692" on="0"/>
        <pt x="180" y="703" on="0"/>
        <pt x="237" y="703" on="1"/>
        <pt x="269" y="703" on="0"/>
        <pt x="321" y="703" on="0"/>
        <pt x="370" y="702" on="0"/>
        <pt x="419" y="700" on="0"/>
        <pt x="448" y="699" on="1"/>
        <pt x="472" y="697" on="0"/>
        <pt x="498" y="690" on="0"/>
        <pt x="512" y="678" on="0"/>
        <pt x="515" y="662" on="0"/>
        <pt x="515" y="652" on="1"/>
        <pt x="515" y="634" on="0"/>
        <pt x="490" y="610" on="0"/>
        <pt x="449" y="608" on="1"/>
        <pt x="424" y="607" on="0"/>
        <pt x="377" y="605" on="0"/>
        <pt x="318" y="604" on="0"/>
        <pt x="244" y="603" on="0"/>
        <pt x="192" y="603" on="1"/>
        <pt x="174" y="603" on="0"/>
        <pt x="160" y="578" on="0"/>
        <pt x="160" y="559" on="1"/>
        <pt x="160" y="544" on="0"/>
        <pt x="161" y="514" on="0"/>
        <pt x="162" y="478" on="0"/>
        <pt x="163" y="433" on="0"/>
        <pt x="163" y="403" on="1"/>
        <pt x="200" y="403" on="0"/>
        <pt x="255" y="402" on="0"/>
        <pt x="296" y="401" on="0"/>
        <pt x="328" y="399" on="0"/>
        <pt x="343" y="398" on="1"/>
        <pt x="384" y="396" on="0"/>
        <pt x="409" y="372" on="0"/>
        <pt x="409" y="354" on="1"/>
        <pt x="409" y="344" on="0"/>
        <pt x="406" y="328" on="0"/>
        <pt x="392" y="316" on="0"/>
        <pt x="366" y="308" on="0"/>
        <pt x="342" y="306" on="1"/>
        <pt x="326" y="305" on="0"/>
        <pt x="297" y="304" on="0"/>
        <pt x="258" y="303" on="0"/>
        <pt x="204" y="303" on="0"/>
        <pt x="163" y="303" on="1"/>
        <pt x="162" y="243" on="0"/>
        <pt x="163" y="118" on="0"/>
        <pt x="159" y="52" on="1"/>
        <pt x="157" y="13" on="0"/>
        <pt x="134" y="-4" on="0"/>
        <pt x="111" y="-4" on="1"/>
        <pt x="89" y="-4" on="0"/>
        <pt x="67" y="15" on="0"/>
        <pt x="65" y="51" on="1"/>
        <pt x="63" y="83" on="0"/>
        <pt x="62" y="160" on="0"/>
        <pt x="60" y="259" on="0"/>
        <pt x="60" y="384" on="0"/>
      </contour>
    </TTGlyph>
    <TTGlyph name="G" xMin="40" yMin="-40" xMax="585" yMax="708">
      <contour>
        <pt x="365" y="708" on="1"/>
        <pt x="398" y="708" on="0"/>
        <pt x="468" y="696" on="0"/>
        <pt x="526" y="673" on="0"/>
        <pt x="564" y="639" on="0"/>
        <pt x="564" y="617" on="1"/>
        <pt x="564" y="594" on="0"/>
        <pt x="540" y="570" on="0"/>
        <pt x="522" y="570" on="1"/>
        <pt x="505" y="570" on="0"/>
        <pt x="476" y="582" on="0"/>
        <pt x="440" y="596" on="0"/>
        <pt x="390" y="608" on="0"/>
        <pt x="352" y="608" on="1"/>
        <pt x="310" y="608" on="0"/>
        <pt x="237" y="569" on="0"/>
        <pt x="181" y="500" on="0"/>
        <pt x="149" y="406" on="0"/>
        <pt x="149" y="351" on="1"/>
        <pt x="149" y="284" on="0"/>
        <pt x="183" y="186" on="0"/>
        <pt x="238" y="122" on="0"/>
        <pt x="307" y="91" on="0"/>
        <pt x="342" y="91" on="1"/>
        <pt x="399" y="91" on="0"/>
        <pt x="466" y="124" on="0"/>
        <pt x="486" y="150" on="1"/>
        <pt x="487" y="171" on="0"/>
        <pt x="487" y="229" on="0"/>
        <pt x="487" y="263" on="1"/>
        <pt x="487" y="276" on="0"/>
        <pt x="483" y="291" on="0"/>
        <pt x="467" y="299" on="0"/>
        <pt x="436" y="301" on="0"/>
        <pt x="410" y="301" on="1"/>
        <pt x="378" y="301" on="0"/>
        <pt x="338" y="318" on="0"/>
        <pt x="338" y="346" on="1"/>
        <pt x="338" y="366" on="0"/>
        <pt x="359" y="391" on="0"/>
        <pt x="392" y="393" on="1"/>
        <pt x="398" y="393" on="0"/>
        <pt x="425" y="394" on="0"/>
        <pt x="456" y="394" on="0"/>
        <pt x="486" y="394" on="0"/>
        <pt x="495" y="394" on="1"/>
        <pt x="525" y="394" on="0"/>
        <pt x="561" y="383" on="0"/>
        <pt x="575" y="364" on="1"/>
        <pt x="582" y="354" on="0"/>
        <pt x="585" y="304" on="0"/>
        <pt x="585" y="271" on="1"/>
        <pt x="585" y="13" on="1"/>
        <pt x="585" y="-14" on="0"/>
        <pt x="556" y="-40" on="0"/>
        <pt x="537" y="-40" on="1"/>
        <pt x="514" y="-40" on="0"/>
        <pt x="485" y="-17" on="0"/>
        <pt x="485" y="8" on="1"/>
        <pt x="485" y="47" on="1"/>
        <pt x="459" y="17" on="0"/>
        <pt x="388" y="-9" on="0"/>
        <pt x="334" y="-9" on="1"/>
        <pt x="279" y="-9" on="0"/>
        <pt x="173" y="35" on="0"/>
        <pt x="91" y="122" on="0"/>
        <pt x="40" y="253" on="0"/>
        <pt x="40" y="340" on="1"/>
        <pt x="40" y="427" on="0"/>
        <pt x="91" y="563" on="0"/>
        <pt x="179" y="658" on="0"/>
        <pt x="297" y="708" on="0"/>
      </contour>
    </TTGlyph>
    <TTGlyph name="H" xMin="60" yMin="-4" xMax="550" yMax="702">
      <contour>
        <pt x="455" y="62" on="1"/>
        <pt x="453" y="116" on="0"/>
        <pt x="450" y="235" on="0"/>
        <pt x="450" y="313" on="1"/>
        <pt x="418" y="312" on="0"/>
        <pt x="346" y="311" on="0"/>
        <pt x="308" y="311" on="1"/>
        <pt x="263" y="311" on="0"/>
        <pt x="189" y="311" on="0"/>
        <pt x="160" y="312" on="1"/>
        <pt x="159" y="249" on="0"/>
        <pt x="157" y="132" on="0"/>
        <pt x="154" y="63" on="1"/>
        <pt x="153" y="39" on="0"/>
        <pt x="146" y="13" on="0"/>
        <pt x="134" y="-1" on="0"/>
        <pt x="119" y="-4" on="0"/>
        <pt x="109" y="-4" on="1"/>
        <pt x="91" y="-4" on="0"/>
        <pt x="67" y="21" on="0"/>
        <pt x="65" y="62" on="1"/>
        <pt x="63" y="98" on="0"/>
        <pt x="62" y="176" on="0"/>
        <pt x="60" y="266" on="0"/>
        <pt x="60" y="371" on="0"/>
        <pt x="60" y="436" on="1"/>
        <pt x="60" y="507" on="0"/>
        <pt x="62" y="608" on="0"/>
        <pt x="71" y="672" on="0"/>
        <pt x="91" y="702" on="0"/>
        <pt x="109" y="702" on="1"/>
        <pt x="126" y="702" on="0"/>
        <pt x="152" y="680" on="0"/>
        <pt x="154" y="640" on="1"/>
        <pt x="156" y="606" on="0"/>
        <pt x="158" y="551" on="0"/>
        <pt x="160" y="498" on="0"/>
        <pt x="160" y="442" on="0"/>
        <pt x="160" y="408" on="1"/>
        <pt x="235" y="411" on="0"/>
        <pt x="307" y="411" on="1"/>
        <pt x="342" y="411" on="0"/>
        <pt x="413" y="409" on="0"/>
        <pt x="450" y="407" on="1"/>
        <pt x="450" y="436" on="1"/>
        <pt x="450" y="507" on="0"/>
        <pt x="452" y="608" on="0"/>
        <pt x="461" y="672" on="0"/>
        <pt x="481" y="702" on="0"/>
        <pt x="499" y="702" on="1"/>
        <pt x="516" y="702" on="0"/>
        <pt x="542" y="680" on="0"/>
        <pt x="544" y="640" on="1"/>
        <pt x="546" y="604" on="0"/>
        <pt x="548" y="548" on="0"/>
        <pt x="550" y="493" on="0"/>
        <pt x="550" y="434" on="0"/>
        <pt x="550" y="397" on="1"/>
        <pt x="550" y="352" on="0"/>
        <pt x="550" y="270" on="0"/>
        <pt x="548" y="190" on="0"/>
        <pt x="546" y="108" on="0"/>
        <pt x="544" y="63" on="1"/>
        <pt x="543" y="39" on="0"/>
        <pt x="536" y="13" on="0"/>
        <pt x="524" y="-1" on="0"/>
        <pt x="509" y="-4" on="0"/>
        <pt x="499" y="-4" on="1"/>
        <pt x="481" y="-4" on="0"/>
        <pt x="457" y="21" on="0"/>
      </contour>
    </TTGlyph>
    <TTGlyph name="I" xMin="70" yMin="-4" xMax="174" yMax="702">
      <contour>
        <pt x="75" y="62" on="1"/>
        <pt x="73" y="98" on="0"/>
        <pt x="72" y="176" on="0"/>
        <pt x="70" y="266" on="0"/>
        <pt x="70" y="371" on="0"/>
        <pt x="70" y="436" on="1"/>
        <pt x="70" y="507" on="0"/>
        <pt x="72" y="608" on="0"/>
        <pt x="82" y="672" on="0"/>
        <pt x="103" y="702" on="0"/>
        <pt x="121" y="702" on="1"/>
        <pt x="130" y="702" on="0"/>
        <pt x="146" y="698" on="0"/>
        <pt x="158" y="685" on="0"/>
        <pt x="167" y="660" on="0"/>
        <pt x="168" y="640" on="1"/>
        <pt x="170" y="604" on="0"/>
        <pt x="172" y="548" on="0"/>
        <pt x="174" y="493" on="0"/>
        <pt x="174" y="434" on="0"/>
        <pt x="174" y="397" on="1"/>
        <pt x="174" y="352" on="0"/>
        <pt x="174" y="270" on="0"/>
        <pt x="172" y="190" on="0"/>
        <pt x="170" y="108" on="0"/>
        <pt x="168" y="63" on="1"/>
        <pt x="167" y="39" on="0"/>
        <pt x="159" y="13" on="0"/>
        <pt x="147" y="-1" on="0"/>
        <pt x="131" y="-4" on="0"/>
        <pt x="121" y="-4" on="1"/>
        <pt x="103" y="-4" on="0"/>
        <pt x="77" y="21" on="0"/>
      </contour>
    </TTGlyph>
    <TTGlyph name="Iacute" xMin="32" yMin="-4" xMax="296" yMax="948">
      <contour>
        <pt x="75" y="62" on="1"/>
        <pt x="73" y="98" on="0"/>
        <pt x="72" y="176" on="0"/>
        <pt x="70" y="266" on="0"/>
        <pt x="70" y="371" on="0"/>
        <pt x="70" y="436" on="1"/>
        <pt x="70" y="507" on="0"/>
        <pt x="72" y="608" on="0"/>
        <pt x="82" y="672" on="0"/>
        <pt x="103" y="702" on="0"/>
        <pt x="121" y="702" on="1"/>
        <pt x="130" y="702" on="0"/>
        <pt x="146" y="698" on="0"/>
        <pt x="158" y="685" on="0"/>
        <pt x="167" y="660" on="0"/>
        <pt x="168" y="640" on="1"/>
        <pt x="170" y="604" on="0"/>
        <pt x="172" y="548" on="0"/>
        <pt x="174" y="493" on="0"/>
        <pt x="174" y="434" on="0"/>
        <pt x="174" y="397" on="1"/>
        <pt x="174" y="352" on="0"/>
        <pt x="174" y="270" on="0"/>
        <pt x="172" y="190" on="0"/>
        <pt x="170" y="108" on="0"/>
        <pt x="168" y="63" on="1"/>
        <pt x="167" y="39" on="0"/>
        <pt x="159" y="13" on="0"/>
        <pt x="147" y="-1" on="0"/>
        <pt x="131" y="-4" on="0"/>
        <pt x="121" y="-4" on="1"/>
        <pt x="103" y="-4" on="0"/>
        <pt x="77" y="21" on="0"/>
      </contour>
      <contour>
        <pt x="64" y="773" on="1"/>
        <pt x="53" y="775" on="0"/>
        <pt x="32" y="786" on="0"/>
        <pt x="32" y="801" on="1"/>
        <pt x="33" y="813" on="0"/>
        <pt x="60" y="845" on="0"/>
        <pt x="100" y="878" on="0"/>
        <pt x="150" y="909" on="0"/>
        <pt x="199" y="933" on="0"/>
        <pt x="241" y="948" on="0"/>
        <pt x="254" y="948" on="1"/>
        <pt x="271" y="948" on="0"/>
        <pt x="296" y="928" on="0"/>
        <pt x="296" y="909" on="1"/>
        <pt x="296" y="897" on="0"/>
        <pt x="270" y="868" on="0"/>
        <pt x="228" y="838" on="0"/>
        <pt x="176" y="809" on="0"/>
        <pt x="125" y="787" on="0"/>
        <pt x="79" y="773" on="0"/>
      </contour>
    </TTGlyph>
    <TTGlyph name="Icircumflex" xMin="-39" yMin="-4" xMax="277" yMax="947">
      <contour>
        <pt x="75" y="62" on="1"/>
        <pt x="73" y="98" on="0"/>
        <pt x="72" y="176" on="0"/>
        <pt x="70" y="266" on="0"/>
        <pt x="70" y="371" on="0"/>
        <pt x="70" y="436" on="1"/>
        <pt x="70" y="507" on="0"/>
        <pt x="72" y="608" on="0"/>
        <pt x="82" y="672" on="0"/>
        <pt x="103" y="702" on="0"/>
        <pt x="121" y="702" on="1"/>
        <pt x="130" y="702" on="0"/>
        <pt x="146" y="698" on="0"/>
        <pt x="158" y="685" on="0"/>
        <pt x="167" y="660" on="0"/>
        <pt x="168" y="640" on="1"/>
        <pt x="170" y="604" on="0"/>
        <pt x="172" y="548" on="0"/>
        <pt x="174" y="493" on="0"/>
        <pt x="174" y="434" on="0"/>
        <pt x="174" y="397" on="1"/>
        <pt x="174" y="352" on="0"/>
        <pt x="174" y="270" on="0"/>
        <pt x="172" y="190" on="0"/>
        <pt x="170" y="108" on="0"/>
        <pt x="168" y="63" on="1"/>
        <pt x="167" y="39" on="0"/>
        <pt x="159" y="13" on="0"/>
        <pt x="147" y="-1" on="0"/>
        <pt x="131" y="-4" on="0"/>
        <pt x="121" y="-4" on="1"/>
        <pt x="103" y="-4" on="0"/>
        <pt x="77" y="21" on="0"/>
      </contour>
      <contour>
        <pt x="120" y="947" on="1"/>
        <pt x="130" y="947" on="0"/>
        <pt x="165" y="930" on="0"/>
        <pt x="203" y="905" on="0"/>
        <pt x="240" y="874" on="0"/>
        <pt x="253" y="861" on="1"/>
        <pt x="264" y="849" on="0"/>
        <pt x="277" y="826" on="0"/>
        <pt x="277" y="813" on="1"/>
        <pt x="277" y="796" on="0"/>
        <pt x="256" y="770" on="0"/>
        <pt x="236" y="770" on="1"/>
        <pt x="219" y="770" on="0"/>
        <pt x="176" y="800" on="0"/>
        <pt x="141" y="832" on="1"/>
        <pt x="120" y="851" on="1"/>
        <pt x="99" y="832" on="1"/>
        <pt x="64" y="800" on="0"/>
        <pt x="19" y="771" on="0"/>
        <pt x="2" y="771" on="1"/>
        <pt x="-16" y="771" on="0"/>
        <pt x="-39" y="794" on="0"/>
        <pt x="-39" y="811" on="1"/>
        <pt x="-39" y="820" on="0"/>
        <pt x="-28" y="845" on="0"/>
        <pt x="-13" y="861" on="1"/>
        <pt x="0" y="874" on="0"/>
        <pt x="37" y="905" on="0"/>
        <pt x="75" y="930" on="0"/>
        <pt x="109" y="947" on="0"/>
      </contour>
    </TTGlyph>
    <TTGlyph name="Idieresis" xMin="-32" yMin="-4" xMax="271" yMax="910">
      <contour>
        <pt x="75" y="62" on="1"/>
        <pt x="73" y="98" on="0"/>
        <pt x="72" y="176" on="0"/>
        <pt x="70" y="266" on="0"/>
        <pt x="70" y="371" on="0"/>
        <pt x="70" y="436" on="1"/>
        <pt x="70" y="507" on="0"/>
        <pt x="72" y="608" on="0"/>
        <pt x="82" y="672" on="0"/>
        <pt x="103" y="702" on="0"/>
        <pt x="121" y="702" on="1"/>
        <pt x="130" y="702" on="0"/>
        <pt x="146" y="698" on="0"/>
        <pt x="158" y="685" on="0"/>
        <pt x="167" y="660" on="0"/>
        <pt x="168" y="640" on="1"/>
        <pt x="170" y="604" on="0"/>
        <pt x="172" y="548" on="0"/>
        <pt x="174" y="493" on="0"/>
        <pt x="174" y="434" on="0"/>
        <pt x="174" y="397" on="1"/>
        <pt x="174" y="352" on="0"/>
        <pt x="174" y="270" on="0"/>
        <pt x="172" y="190" on="0"/>
        <pt x="170" y="108" on="0"/>
        <pt x="168" y="63" on="1"/>
        <pt x="167" y="39" on="0"/>
        <pt x="159" y="13" on="0"/>
        <pt x="147" y="-1" on="0"/>
        <pt x="131" y="-4" on="0"/>
        <pt x="121" y="-4" on="1"/>
        <pt x="103" y="-4" on="0"/>
        <pt x="77" y="21" on="0"/>
      </contour>
      <contour>
        <pt x="29" y="910" on="1"/>
        <pt x="52" y="910" on="0"/>
        <pt x="91" y="874" on="0"/>
        <pt x="91" y="849" on="1"/>
        <pt x="91" y="825" on="0"/>
        <pt x="51" y="790" on="0"/>
        <pt x="26" y="790" on="1"/>
        <pt x="5" y="790" on="0"/>
        <pt x="-32" y="825" on="0"/>
        <pt x="-32" y="851" on="1"/>
        <pt x="-32" y="875" on="0"/>
        <pt x="5" y="910" on="0"/>
      </contour>
      <contour>
        <pt x="209" y="910" on="1"/>
        <pt x="232" y="910" on="0"/>
        <pt x="271" y="874" on="0"/>
        <pt x="271" y="849" on="1"/>
        <pt x="271" y="825" on="0"/>
        <pt x="231" y="790" on="0"/>
        <pt x="206" y="790" on="1"/>
        <pt x="185" y="790" on="0"/>
        <pt x="148" y="825" on="0"/>
        <pt x="148" y="851" on="1"/>
        <pt x="148" y="875" on="0"/>
        <pt x="185" y="910" on="0"/>
      </contour>
    </TTGlyph>
    <TTGlyph name="Igrave" xMin="-72" yMin="-4" xMax="191" yMax="950">
      <contour>
        <pt x="75" y="62" on="1"/>
        <pt x="73" y="98" on="0"/>
        <pt x="72" y="176" on="0"/>
        <pt x="70" y="266" on="0"/>
        <pt x="70" y="371" on="0"/>
        <pt x="70" y="436" on="1"/>
        <pt x="70" y="507" on="0"/>
        <pt x="72" y="608" on="0"/>
        <pt x="82" y="672" on="0"/>
        <pt x="103" y="702" on="0"/>
        <pt x="121" y="702" on="1"/>
        <pt x="130" y="702" on="0"/>
        <pt x="146" y="698" on="0"/>
        <pt x="158" y="685" on="0"/>
        <pt x="167" y="660" on="0"/>
        <pt x="168" y="640" on="1"/>
        <pt x="170" y="604" on="0"/>
        <pt x="172" y="548" on="0"/>
        <pt x="174" y="493" on="0"/>
        <pt x="174" y="434" on="0"/>
        <pt x="174" y="397" on="1"/>
        <pt x="174" y="352" on="0"/>
        <pt x="174" y="270" on="0"/>
        <pt x="172" y="190" on="0"/>
        <pt x="170" y="108" on="0"/>
        <pt x="168" y="63" on="1"/>
        <pt x="167" y="39" on="0"/>
        <pt x="159" y="13" on="0"/>
        <pt x="147" y="-1" on="0"/>
        <pt x="131" y="-4" on="0"/>
        <pt x="121" y="-4" on="1"/>
        <pt x="103" y="-4" on="0"/>
        <pt x="77" y="21" on="0"/>
      </contour>
      <contour>
        <pt x="160" y="777" on="1"/>
        <pt x="145" y="777" on="0"/>
        <pt x="99" y="791" on="0"/>
        <pt x="48" y="813" on="0"/>
        <pt x="-4" y="842" on="0"/>
        <pt x="-46" y="872" on="0"/>
        <pt x="-72" y="901" on="0"/>
        <pt x="-72" y="913" on="1"/>
        <pt x="-72" y="932" on="0"/>
        <pt x="-48" y="950" on="0"/>
        <pt x="-31" y="950" on="1"/>
        <pt x="-12" y="950" on="0"/>
        <pt x="61" y="918" on="0"/>
        <pt x="134" y="872" on="0"/>
        <pt x="189" y="822" on="0"/>
        <pt x="191" y="803" on="1"/>
        <pt x="191" y="788" on="0"/>
        <pt x="171" y="779" on="0"/>
      </contour>
    </TTGlyph>
    <TTGlyph name="J" xMin="20" yMin="-4" xMax="366" yMax="715">
      <contour>
        <pt x="266" y="648" on="1"/>
        <pt x="266" y="672" on="0"/>
        <pt x="274" y="698" on="0"/>
        <pt x="288" y="712" on="0"/>
        <pt x="306" y="715" on="0"/>
        <pt x="316" y="715" on="1"/>
        <pt x="326" y="715" on="0"/>
        <pt x="344" y="710" on="0"/>
        <pt x="358" y="695" on="0"/>
        <pt x="366" y="669" on="0"/>
        <pt x="366" y="649" on="1"/>
        <pt x="366" y="229" on="1"/>
        <pt x="366" y="169" on="0"/>
        <pt x="347" y="81" on="0"/>
        <pt x="303" y="24" on="0"/>
        <pt x="231" y="-4" on="0"/>
        <pt x="177" y="-4" on="1"/>
        <pt x="158" y="-4" on="0"/>
        <pt x="104" y="8" on="0"/>
        <pt x="55" y="33" on="0"/>
        <pt x="20" y="74" on="0"/>
        <pt x="20" y="103" on="1"/>
        <pt x="20" y="126" on="0"/>
        <pt x="51" y="144" on="0"/>
        <pt x="70" y="144" on="1"/>
        <pt x="84" y="144" on="0"/>
        <pt x="108" y="129" on="0"/>
        <pt x="133" y="111" on="0"/>
        <pt x="161" y="96" on="0"/>
        <pt x="179" y="96" on="1"/>
        <pt x="201" y="96" on="0"/>
        <pt x="233" y="108" on="0"/>
        <pt x="254" y="142" on="0"/>
        <pt x="265" y="203" on="0"/>
        <pt x="265" y="251" on="1"/>
      </contour>
    </TTGlyph>
    <TTGlyph name="K" xMin="60" yMin="-13" xMax="550" yMax="702">
      <contour>
        <pt x="65" y="62" on="1"/>
        <pt x="63" y="98" on="0"/>
        <pt x="62" y="176" on="0"/>
        <pt x="60" y="266" on="0"/>
        <pt x="60" y="371" on="0"/>
        <pt x="60" y="436" on="1"/>
        <pt x="60" y="507" on="0"/>
        <pt x="62" y="608" on="0"/>
        <pt x="71" y="672" on="0"/>
        <pt x="91" y="702" on="0"/>
        <pt x="109" y="702" on="1"/>
        <pt x="126" y="702" on="0"/>
        <pt x="152" y="680" on="0"/>
        <pt x="154" y="640" on="1"/>
        <pt x="156" y="604" on="0"/>
        <pt x="158" y="548" on="0"/>
        <pt x="160" y="493" on="0"/>
        <pt x="160" y="434" on="0"/>
        <pt x="160" y="397" on="1"/>
        <pt x="160" y="345" on="1"/>
        <pt x="374" y="590" on="1"/>
        <pt x="416" y="638" on="0"/>
        <pt x="462" y="669" on="0"/>
        <pt x="479" y="669" on="1"/>
        <pt x="499" y="669" on="0"/>
        <pt x="518" y="649" on="0"/>
        <pt x="518" y="634" on="1"/>
        <pt x="518" y="628" on="0"/>
        <pt x="514" y="616" on="0"/>
        <pt x="501" y="595" on="0"/>
        <pt x="475" y="564" on="0"/>
        <pt x="453" y="540" on="1"/>
        <pt x="314" y="389" on="1"/>
        <pt x="533" y="77" on="1"/>
        <pt x="541" y="66" on="0"/>
        <pt x="550" y="42" on="0"/>
        <pt x="550" y="31" on="1"/>
        <pt x="550" y="12" on="0"/>
        <pt x="529" y="-13" on="0"/>
        <pt x="503" y="-13" on="1"/>
        <pt x="482" y="-13" on="0"/>
        <pt x="449" y="10" on="0"/>
        <pt x="435" y="32" on="1"/>
        <pt x="245" y="313" on="1"/>
        <pt x="159" y="219" on="1"/>
        <pt x="158" y="181" on="0"/>
        <pt x="156" y="105" on="0"/>
        <pt x="154" y="63" on="1"/>
        <pt x="153" y="39" on="0"/>
        <pt x="146" y="13" on="0"/>
        <pt x="134" y="-1" on="0"/>
        <pt x="119" y="-4" on="0"/>
        <pt x="109" y="-4" on="1"/>
        <pt x="91" y="-4" on="0"/>
        <pt x="67" y="21" on="0"/>
      </contour>
    </TTGlyph>
    <TTGlyph name="L" xMin="60" yMin="-10" xMax="434" yMax="703">
      <contour>
        <pt x="160" y="279" on="1"/>
        <pt x="160" y="247" on="0"/>
        <pt x="160" y="198" on="0"/>
        <pt x="159" y="154" on="0"/>
        <pt x="157" y="110" on="0"/>
        <pt x="156" y="83" on="1"/>
        <pt x="225" y="91" on="0"/>
        <pt x="303" y="101" on="0"/>
        <pt x="348" y="107" on="0"/>
        <pt x="373" y="109" on="0"/>
        <pt x="390" y="109" on="1"/>
        <pt x="434" y="109" on="0"/>
        <pt x="434" y="66" on="1"/>
        <pt x="434" y="49" on="0"/>
        <pt x="399" y="25" on="0"/>
        <pt x="346" y="8" on="0"/>
        <pt x="281" y="-3" on="0"/>
        <pt x="220" y="-8" on="0"/>
        <pt x="171" y="-10" on="0"/>
        <pt x="161" y="-10" on="1"/>
        <pt x="125" y="-10" on="0"/>
        <pt x="85" y="-1" on="0"/>
        <pt x="65" y="44" on="0"/>
        <pt x="60" y="136" on="0"/>
        <pt x="60" y="220" on="1"/>
        <pt x="60" y="301" on="0"/>
        <pt x="60" y="427" on="0"/>
        <pt x="62" y="527" on="0"/>
        <pt x="63" y="605" on="0"/>
        <pt x="65" y="637" on="1"/>
        <pt x="67" y="678" on="0"/>
        <pt x="91" y="703" on="0"/>
        <pt x="109" y="703" on="1"/>
        <pt x="119" y="703" on="0"/>
        <pt x="134" y="700" on="0"/>
        <pt x="146" y="686" on="0"/>
        <pt x="153" y="660" on="0"/>
        <pt x="154" y="636" on="1"/>
        <pt x="158" y="548" on="0"/>
        <pt x="160" y="376" on="0"/>
      </contour>
    </TTGlyph>
    <TTGlyph name="Lslash" xMin="16" yMin="-10" xMax="499" yMax="703">
      <contour>
        <pt x="225" y="330" on="1"/>
        <pt x="225" y="279" on="0"/>
        <pt x="225" y="209" on="0"/>
        <pt x="224" y="155" on="0"/>
        <pt x="222" y="110" on="0"/>
        <pt x="221" y="83" on="1"/>
        <pt x="290" y="91" on="0"/>
        <pt x="368" y="101" on="0"/>
        <pt x="413" y="107" on="0"/>
        <pt x="438" y="109" on="0"/>
        <pt x="455" y="109" on="1"/>
        <pt x="499" y="109" on="0"/>
        <pt x="499" y="66" on="1"/>
        <pt x="499" y="49" on="0"/>
        <pt x="464" y="25" on="0"/>
        <pt x="411" y="8" on="0"/>
        <pt x="346" y="-3" on="0"/>
        <pt x="285" y="-8" on="0"/>
        <pt x="236" y="-10" on="0"/>
        <pt x="226" y="-10" on="1"/>
        <pt x="190" y="-10" on="0"/>
        <pt x="150" y="-1" on="0"/>
        <pt x="130" y="44" on="0"/>
        <pt x="125" y="136" on="0"/>
        <pt x="125" y="220" on="1"/>
        <pt x="125" y="255" on="1"/>
        <pt x="106" y="243" on="0"/>
        <pt x="82" y="229" on="0"/>
        <pt x="67" y="221" on="0"/>
        <pt x="58" y="219" on="0"/>
        <pt x="54" y="219" on="1"/>
        <pt x="39" y="219" on="0"/>
        <pt x="16" y="245" on="0"/>
        <pt x="16" y="261" on="1"/>
        <pt x="16" y="268" on="0"/>
        <pt x="22" y="281" on="0"/>
        <pt x="45" y="304" on="0"/>
        <pt x="88" y="342" on="0"/>
        <pt x="125" y="372" on="1"/>
        <pt x="125" y="464" on="0"/>
        <pt x="128" y="589" on="0"/>
        <pt x="130" y="637" on="1"/>
        <pt x="132" y="678" on="0"/>
        <pt x="156" y="703" on="0"/>
        <pt x="174" y="703" on="1"/>
        <pt x="184" y="703" on="0"/>
        <pt x="199" y="700" on="0"/>
        <pt x="211" y="686" on="0"/>
        <pt x="218" y="660" on="0"/>
        <pt x="219" y="636" on="1"/>
        <pt x="221" y="588" on="0"/>
        <pt x="223" y="492" on="0"/>
        <pt x="224" y="443" on="1"/>
        <pt x="261" y="472" on="0"/>
        <pt x="316" y="506" on="0"/>
        <pt x="334" y="506" on="1"/>
        <pt x="348" y="506" on="0"/>
        <pt x="369" y="482" on="0"/>
        <pt x="369" y="467" on="1"/>
        <pt x="369" y="455" on="0"/>
        <pt x="336" y="418" on="0"/>
        <pt x="290" y="378" on="0"/>
        <pt x="241" y="342" on="0"/>
      </contour>
    </TTGlyph>
    <TTGlyph name="M" xMin="20" yMin="0" xMax="717" yMax="705">
      <contour>
        <pt x="328" y="170" on="1"/>
        <pt x="282" y="271" on="0"/>
        <pt x="211" y="460" on="0"/>
        <pt x="186" y="534" on="1"/>
        <pt x="163" y="410" on="0"/>
        <pt x="132" y="158" on="0"/>
        <pt x="108" y="43" on="1"/>
        <pt x="102" y="17" on="0"/>
        <pt x="70" y="0" on="0"/>
        <pt x="59" y="0" on="1"/>
        <pt x="41" y="0" on="0"/>
        <pt x="20" y="22" on="0"/>
        <pt x="20" y="39" on="1"/>
        <pt x="20" y="62" on="0"/>
        <pt x="31" y="157" on="0"/>
        <pt x="48" y="277" on="0"/>
        <pt x="70" y="409" on="0"/>
        <pt x="93" y="532" on="0"/>
        <pt x="114" y="632" on="0"/>
        <pt x="122" y="659" on="1"/>
        <pt x="135" y="705" on="0"/>
        <pt x="175" y="705" on="1"/>
        <pt x="199" y="705" on="0"/>
        <pt x="233" y="658" on="0"/>
        <pt x="272" y="561" on="0"/>
        <pt x="327" y="413" on="0"/>
        <pt x="371" y="313" on="1"/>
        <pt x="414" y="413" on="0"/>
        <pt x="467" y="560" on="0"/>
        <pt x="504" y="657" on="0"/>
        <pt x="538" y="704" on="0"/>
        <pt x="563" y="704" on="1"/>
        <pt x="586" y="704" on="0"/>
        <pt x="610" y="681" on="0"/>
        <pt x="616" y="658" on="1"/>
        <pt x="623" y="630" on="0"/>
        <pt x="643" y="531" on="0"/>
        <pt x="666" y="410" on="0"/>
        <pt x="688" y="278" on="0"/>
        <pt x="706" y="158" on="0"/>
        <pt x="717" y="61" on="0"/>
        <pt x="717" y="35" on="1"/>
        <pt x="717" y="19" on="0"/>
        <pt x="695" y="0" on="0"/>
        <pt x="678" y="0" on="1"/>
        <pt x="667" y="0" on="0"/>
        <pt x="635" y="17" on="0"/>
        <pt x="629" y="43" on="1"/>
        <pt x="617" y="100" on="0"/>
        <pt x="598" y="222" on="0"/>
        <pt x="581" y="347" on="0"/>
        <pt x="565" y="472" on="0"/>
        <pt x="556" y="534" on="1"/>
        <pt x="543" y="494" on="0"/>
        <pt x="509" y="398" on="0"/>
        <pt x="471" y="301" on="0"/>
        <pt x="431" y="207" on="0"/>
        <pt x="412" y="169" on="1"/>
        <pt x="405" y="156" on="0"/>
        <pt x="382" y="143" on="0"/>
        <pt x="370" y="143" on="1"/>
        <pt x="357" y="143" on="0"/>
        <pt x="334" y="156" on="0"/>
      </contour>
    </TTGlyph>
    <TTGlyph name="N" xMin="60" yMin="-4" xMax="571" yMax="702">
      <contour>
        <pt x="456" y="47" on="1"/>
        <pt x="424" y="91" on="0"/>
        <pt x="367" y="178" on="0"/>
        <pt x="302" y="282" on="0"/>
        <pt x="219" y="409" on="0"/>
        <pt x="161" y="494" on="1"/>
        <pt x="161" y="419" on="0"/>
        <pt x="161" y="300" on="0"/>
        <pt x="159" y="198" on="0"/>
        <pt x="157" y="108" on="0"/>
        <pt x="155" y="63" on="1"/>
        <pt x="154" y="39" on="0"/>
        <pt x="147" y="13" on="0"/>
        <pt x="135" y="-1" on="0"/>
        <pt x="120" y="-4" on="0"/>
        <pt x="110" y="-4" on="1"/>
        <pt x="92" y="-4" on="0"/>
        <pt x="68" y="21" on="0"/>
        <pt x="66" y="62" on="1"/>
        <pt x="61" y="172" on="0"/>
        <pt x="60" y="393" on="0"/>
        <pt x="60" y="511" on="1"/>
        <pt x="60" y="578" on="0"/>
        <pt x="63" y="654" on="0"/>
        <pt x="74" y="692" on="0"/>
        <pt x="93" y="702" on="0"/>
        <pt x="109" y="702" on="1"/>
        <pt x="125" y="702" on="0"/>
        <pt x="177" y="653" on="0"/>
        <pt x="239" y="573" on="0"/>
        <pt x="310" y="469" on="0"/>
        <pt x="380" y="359" on="0"/>
        <pt x="445" y="251" on="0"/>
        <pt x="472" y="207" on="1"/>
        <pt x="471" y="254" on="0"/>
        <pt x="471" y="367" on="0"/>
        <pt x="471" y="436" on="1"/>
        <pt x="471" y="515" on="0"/>
        <pt x="473" y="618" on="0"/>
        <pt x="482" y="678" on="0"/>
        <pt x="502" y="702" on="0"/>
        <pt x="520" y="702" on="1"/>
        <pt x="537" y="702" on="0"/>
        <pt x="563" y="680" on="0"/>
        <pt x="565" y="640" on="1"/>
        <pt x="567" y="604" on="0"/>
        <pt x="569" y="548" on="0"/>
        <pt x="571" y="493" on="0"/>
        <pt x="571" y="434" on="0"/>
        <pt x="571" y="397" on="1"/>
        <pt x="571" y="352" on="0"/>
        <pt x="571" y="270" on="0"/>
        <pt x="569" y="190" on="0"/>
        <pt x="567" y="108" on="0"/>
        <pt x="565" y="63" on="1"/>
        <pt x="564" y="39" on="0"/>
        <pt x="557" y="13" on="0"/>
        <pt x="545" y="-1" on="0"/>
        <pt x="530" y="-4" on="0"/>
        <pt x="520" y="-4" on="1"/>
        <pt x="503" y="-4" on="0"/>
        <pt x="479" y="16" on="0"/>
      </contour>
    </TTGlyph>
    <TTGlyph name="Ntilde" xMin="60" yMin="-4" xMax="571" yMax="942">
      <contour>
        <pt x="456" y="47" on="1"/>
        <pt x="424" y="91" on="0"/>
        <pt x="367" y="178" on="0"/>
        <pt x="302" y="282" on="0"/>
        <pt x="219" y="409" on="0"/>
        <pt x="161" y="494" on="1"/>
        <pt x="161" y="419" on="0"/>
        <pt x="161" y="300" on="0"/>
        <pt x="159" y="198" on="0"/>
        <pt x="157" y="108" on="0"/>
        <pt x="155" y="63" on="1"/>
        <pt x="154" y="39" on="0"/>
        <pt x="147" y="13" on="0"/>
        <pt x="135" y="-1" on="0"/>
        <pt x="120" y="-4" on="0"/>
        <pt x="110" y="-4" on="1"/>
        <pt x="92" y="-4" on="0"/>
        <pt x="68" y="21" on="0"/>
        <pt x="66" y="62" on="1"/>
        <pt x="61" y="172" on="0"/>
        <pt x="60" y="393" on="0"/>
        <pt x="60" y="511" on="1"/>
        <pt x="60" y="578" on="0"/>
        <pt x="63" y="654" on="0"/>
        <pt x="74" y="692" on="0"/>
        <pt x="93" y="702" on="0"/>
        <pt x="109" y="702" on="1"/>
        <pt x="125" y="702" on="0"/>
        <pt x="177" y="653" on="0"/>
        <pt x="239" y="573" on="0"/>
        <pt x="310" y="469" on="0"/>
        <pt x="380" y="359" on="0"/>
        <pt x="445" y="251" on="0"/>
        <pt x="472" y="207" on="1"/>
        <pt x="471" y="254" on="0"/>
        <pt x="471" y="367" on="0"/>
        <pt x="471" y="436" on="1"/>
        <pt x="471" y="515" on="0"/>
        <pt x="473" y="618" on="0"/>
        <pt x="482" y="678" on="0"/>
        <pt x="502" y="702" on="0"/>
        <pt x="520" y="702" on="1"/>
        <pt x="537" y="702" on="0"/>
        <pt x="563" y="680" on="0"/>
        <pt x="565" y="640" on="1"/>
        <pt x="567" y="604" on="0"/>
        <pt x="569" y="548" on="0"/>
        <pt x="571" y="493" on="0"/>
        <pt x="571" y="434" on="0"/>
        <pt x="571" y="397" on="1"/>
        <pt x="571" y="352" on="0"/>
        <pt x="571" y="270" on="0"/>
        <pt x="569" y="190" on="0"/>
        <pt x="567" y="108" on="0"/>
        <pt x="565" y="63" on="1"/>
        <pt x="564" y="39" on="0"/>
        <pt x="557" y="13" on="0"/>
        <pt x="545" y="-1" on="0"/>
        <pt x="530" y="-4" on="0"/>
        <pt x="520" y="-4" on="1"/>
        <pt x="503" y="-4" on="0"/>
        <pt x="479" y="16" on="0"/>
      </contour>
      <contour>
        <pt x="237" y="843" on="1"/>
        <pt x="221" y="843" on="0"/>
        <pt x="197" y="829" on="0"/>
        <pt x="176" y="811" on="0"/>
        <pt x="155" y="797" on="0"/>
        <pt x="143" y="797" on="1"/>
        <pt x="130" y="797" on="0"/>
        <pt x="113" y="818" on="0"/>
        <pt x="113" y="835" on="1"/>
        <pt x="113" y="852" on="0"/>
        <pt x="127" y="890" on="0"/>
        <pt x="156" y="921" on="0"/>
        <pt x="198" y="942" on="0"/>
        <pt x="226" y="942" on="1"/>
        <pt x="255" y="942" on="0"/>
        <pt x="295" y="927" on="0"/>
        <pt x="326" y="908" on="0"/>
        <pt x="356" y="893" on="0"/>
        <pt x="376" y="893" on="1"/>
        <pt x="406" y="893" on="0"/>
        <pt x="435" y="907" on="0"/>
        <pt x="450" y="925" on="0"/>
        <pt x="460" y="939" on="0"/>
        <pt x="471" y="939" on="1"/>
        <pt x="485" y="939" on="0"/>
        <pt x="509" y="923" on="0"/>
        <pt x="509" y="908" on="1"/>
        <pt x="509" y="885" on="0"/>
        <pt x="492" y="844" on="0"/>
        <pt x="458" y="812" on="0"/>
        <pt x="407" y="793" on="0"/>
        <pt x="374" y="793" on="1"/>
        <pt x="353" y="793" on="0"/>
        <pt x="319" y="809" on="0"/>
        <pt x="287" y="827" on="0"/>
        <pt x="255" y="843" on="0"/>
      </contour>
    </TTGlyph>
    <TTGlyph name="O" xMin="40" yMin="-10" xMax="647" yMax="705">
      <contour>
        <pt x="328" y="-10" on="1"/>
        <pt x="268" y="-10" on="0"/>
        <pt x="163" y="38" on="0"/>
        <pt x="85" y="129" on="0"/>
        <pt x="40" y="261" on="0"/>
        <pt x="40" y="345" on="1"/>
        <pt x="40" y="424" on="0"/>
        <pt x="79" y="556" on="0"/>
        <pt x="156" y="652" on="0"/>
        <pt x="270" y="705" on="0"/>
        <pt x="345" y="705" on="1"/>
        <pt x="406" y="705" on="0"/>
        <pt x="516" y="661" on="0"/>
        <pt x="599" y="573" on="0"/>
        <pt x="647" y="441" on="0"/>
        <pt x="647" y="353" on="1"/>
        <pt x="647" y="280" on="0"/>
        <pt x="608" y="148" on="0"/>
        <pt x="529" y="49" on="0"/>
        <pt x="409" y="-10" on="0"/>
      </contour>
      <contour>
        <pt x="330" y="84" on="1"/>
        <pt x="385" y="84" on="0"/>
        <pt x="467" y="129" on="0"/>
        <pt x="521" y="203" on="0"/>
        <pt x="547" y="300" on="0"/>
        <pt x="547" y="351" on="1"/>
        <pt x="547" y="413" on="0"/>
        <pt x="514" y="510" on="0"/>
        <pt x="458" y="576" on="0"/>
        <pt x="384" y="611" on="0"/>
        <pt x="342" y="611" on="1"/>
        <pt x="292" y="611" on="0"/>
        <pt x="217" y="569" on="0"/>
        <pt x="166" y="497" on="0"/>
        <pt x="140" y="400" on="0"/>
        <pt x="140" y="345" on="1"/>
        <pt x="140" y="286" on="0"/>
        <pt x="170" y="189" on="0"/>
        <pt x="221" y="121" on="0"/>
        <pt x="291" y="84" on="0"/>
      </contour>
    </TTGlyph>
    <TTGlyph name="OE" xMin="40" yMin="-9" xMax="907" yMax="708">
      <contour>
        <pt x="351" y="708" on="1"/>
        <pt x="387" y="708" on="0"/>
        <pt x="461" y="694" on="0"/>
        <pt x="490" y="680" on="1"/>
        <pt x="513" y="695" on="0"/>
        <pt x="591" y="703" on="0"/>
        <pt x="652" y="703" on="1"/>
        <pt x="653" y="703" on="0"/>
        <pt x="694" y="703" on="0"/>
        <pt x="752" y="702" on="0"/>
        <pt x="815" y="700" on="0"/>
        <pt x="836" y="699" on="1"/>
        <pt x="858" y="697" on="0"/>
        <pt x="885" y="690" on="0"/>
        <pt x="899" y="679" on="0"/>
        <pt x="903" y="664" on="0"/>
        <pt x="903" y="655" on="1"/>
        <pt x="903" y="632" on="0"/>
        <pt x="877" y="611" on="0"/>
        <pt x="837" y="608" on="1"/>
        <pt x="817" y="606" on="0"/>
        <pt x="740" y="605" on="0"/>
        <pt x="660" y="605" on="0"/>
        <pt x="596" y="604" on="0"/>
        <pt x="588" y="604" on="1"/>
        <pt x="562" y="603" on="0"/>
        <pt x="541" y="582" on="0"/>
        <pt x="541" y="543" on="1"/>
        <pt x="541" y="534" on="0"/>
        <pt x="544" y="465" on="0"/>
        <pt x="544" y="403" on="1"/>
        <pt x="627" y="403" on="1"/>
        <pt x="680" y="403" on="0"/>
        <pt x="747" y="400" on="0"/>
        <pt x="784" y="390" on="0"/>
        <pt x="798" y="368" on="0"/>
        <pt x="798" y="350" on="1"/>
        <pt x="798" y="341" on="0"/>
        <pt x="795" y="326" on="0"/>
        <pt x="781" y="315" on="0"/>
        <pt x="755" y="308" on="0"/>
        <pt x="731" y="306" on="1"/>
        <pt x="702" y="304" on="0"/>
        <pt x="651" y="303" on="0"/>
        <pt x="626" y="303" on="1"/>
        <pt x="542" y="303" on="1"/>
        <pt x="542" y="288" on="0"/>
        <pt x="542" y="246" on="0"/>
        <pt x="542" y="202" on="0"/>
        <pt x="543" y="160" on="0"/>
        <pt x="544" y="147" on="1"/>
        <pt x="545" y="131" on="0"/>
        <pt x="552" y="109" on="0"/>
        <pt x="571" y="95" on="0"/>
        <pt x="608" y="89" on="0"/>
        <pt x="639" y="89" on="1"/>
        <pt x="854" y="89" on="1"/>
        <pt x="889" y="89" on="0"/>
        <pt x="907" y="63" on="0"/>
        <pt x="907" y="41" on="1"/>
        <pt x="907" y="23" on="0"/>
        <pt x="891" y="4" on="0"/>
        <pt x="830" y="-5" on="0"/>
        <pt x="709" y="-7" on="0"/>
        <pt x="603" y="-7" on="1"/>
        <pt x="564" y="-7" on="0"/>
        <pt x="510" y="5" on="0"/>
        <pt x="492" y="19" on="1"/>
        <pt x="463" y="6" on="0"/>
        <pt x="391" y="-9" on="0"/>
        <pt x="348" y="-9" on="1"/>
        <pt x="292" y="-9" on="0"/>
        <pt x="181" y="35" on="0"/>
        <pt x="94" y="122" on="0"/>
        <pt x="40" y="253" on="0"/>
        <pt x="40" y="340" on="1"/>
        <pt x="40" y="427" on="0"/>
        <pt x="89" y="563" on="0"/>
        <pt x="174" y="658" on="0"/>
        <pt x="287" y="708" on="0"/>
      </contour>
      <contour>
        <pt x="444" y="152" on="1"/>
        <pt x="442" y="184" on="0"/>
        <pt x="438" y="294" on="0"/>
        <pt x="438" y="352" on="1"/>
        <pt x="438" y="385" on="0"/>
        <pt x="439" y="456" on="0"/>
        <pt x="440" y="493" on="1"/>
        <pt x="441" y="521" on="0"/>
        <pt x="443" y="567" on="0"/>
        <pt x="446" y="587" on="1"/>
        <pt x="429" y="595" on="0"/>
        <pt x="380" y="608" on="0"/>
        <pt x="338" y="608" on="1"/>
        <pt x="300" y="608" on="0"/>
        <pt x="231" y="569" on="0"/>
        <pt x="180" y="500" on="0"/>
        <pt x="150" y="406" on="0"/>
        <pt x="150" y="351" on="1"/>
        <pt x="150" y="283" on="0"/>
        <pt x="185" y="185" on="0"/>
        <pt x="241" y="122" on="0"/>
        <pt x="312" y="91" on="0"/>
        <pt x="348" y="91" on="1"/>
        <pt x="380" y="91" on="0"/>
        <pt x="429" y="102" on="0"/>
        <pt x="448" y="110" on="1"/>
        <pt x="446" y="120" on="0"/>
        <pt x="445" y="140" on="0"/>
      </contour>
    </TTGlyph>
    <TTGlyph name="Oacute" xMin="40" yMin="-10" xMax="647" yMax="952">
      <contour>
        <pt x="328" y="-10" on="1"/>
        <pt x="268" y="-10" on="0"/>
        <pt x="163" y="38" on="0"/>
        <pt x="85" y="129" on="0"/>
        <pt x="40" y="261" on="0"/>
        <pt x="40" y="345" on="1"/>
        <pt x="40" y="424" on="0"/>
        <pt x="79" y="556" on="0"/>
        <pt x="156" y="652" on="0"/>
        <pt x="270" y="705" on="0"/>
        <pt x="345" y="705" on="1"/>
        <pt x="406" y="705" on="0"/>
        <pt x="516" y="661" on="0"/>
        <pt x="599" y="573" on="0"/>
        <pt x="647" y="441" on="0"/>
        <pt x="647" y="353" on="1"/>
        <pt x="647" y="280" on="0"/>
        <pt x="608" y="148" on="0"/>
        <pt x="529" y="49" on="0"/>
        <pt x="409" y="-10" on="0"/>
      </contour>
      <contour>
        <pt x="330" y="84" on="1"/>
        <pt x="385" y="84" on="0"/>
        <pt x="467" y="129" on="0"/>
        <pt x="521" y="203" on="0"/>
        <pt x="547" y="300" on="0"/>
        <pt x="547" y="351" on="1"/>
        <pt x="547" y="413" on="0"/>
        <pt x="514" y="510" on="0"/>
        <pt x="458" y="576" on="0"/>
        <pt x="384" y="611" on="0"/>
        <pt x="342" y="611" on="1"/>
        <pt x="292" y="611" on="0"/>
        <pt x="217" y="569" on="0"/>
        <pt x="166" y="497" on="0"/>
        <pt x="140" y="400" on="0"/>
        <pt x="140" y="345" on="1"/>
        <pt x="140" y="286" on="0"/>
        <pt x="170" y="189" on="0"/>
        <pt x="221" y="121" on="0"/>
        <pt x="291" y="84" on="0"/>
      </contour>
      <contour>
        <pt x="281" y="777" on="1"/>
        <pt x="270" y="779" on="0"/>
        <pt x="249" y="790" on="0"/>
        <pt x="249" y="805" on="1"/>
        <pt x="250" y="817" on="0"/>
        <pt x="277" y="849" on="0"/>
        <pt x="317" y="882" on="0"/>
        <pt x="367" y="913" on="0"/>
        <pt x="416" y="937" on="0"/>
        <pt x="458" y="952" on="0"/>
        <pt x="471" y="952" on="1"/>
        <pt x="488" y="952" on="0"/>
        <pt x="513" y="932" on="0"/>
        <pt x="513" y="913" on="1"/>
        <pt x="513" y="901" on="0"/>
        <pt x="487" y="872" on="0"/>
        <pt x="445" y="842" on="0"/>
        <pt x="393" y="813" on="0"/>
        <pt x="342" y="791" on="0"/>
        <pt x="296" y="777" on="0"/>
      </contour>
    </TTGlyph>
    <TTGlyph name="Ocircumflex" xMin="40" yMin="-10" xMax="647" yMax="942">
      <contour>
        <pt x="328" y="-10" on="1"/>
        <pt x="268" y="-10" on="0"/>
        <pt x="163" y="38" on="0"/>
        <pt x="85" y="129" on="0"/>
        <pt x="40" y="261" on="0"/>
        <pt x="40" y="345" on="1"/>
        <pt x="40" y="424" on="0"/>
        <pt x="79" y="556" on="0"/>
        <pt x="156" y="652" on="0"/>
        <pt x="270" y="705" on="0"/>
        <pt x="345" y="705" on="1"/>
        <pt x="406" y="705" on="0"/>
        <pt x="516" y="661" on="0"/>
        <pt x="599" y="573" on="0"/>
        <pt x="647" y="441" on="0"/>
        <pt x="647" y="353" on="1"/>
        <pt x="647" y="280" on="0"/>
        <pt x="608" y="148" on="0"/>
        <pt x="529" y="49" on="0"/>
        <pt x="409" y="-10" on="0"/>
      </contour>
      <contour>
        <pt x="330" y="84" on="1"/>
        <pt x="385" y="84" on="0"/>
        <pt x="467" y="129" on="0"/>
        <pt x="521" y="203" on="0"/>
        <pt x="547" y="300" on="0"/>
        <pt x="547" y="351" on="1"/>
        <pt x="547" y="413" on="0"/>
        <pt x="514" y="510" on="0"/>
        <pt x="458" y="576" on="0"/>
        <pt x="384" y="611" on="0"/>
        <pt x="342" y="611" on="1"/>
        <pt x="292" y="611" on="0"/>
        <pt x="217" y="569" on="0"/>
        <pt x="166" y="497" on="0"/>
        <pt x="140" y="400" on="0"/>
        <pt x="140" y="345" on="1"/>
        <pt x="140" y="286" on="0"/>
        <pt x="170" y="189" on="0"/>
        <pt x="221" y="121" on="0"/>
        <pt x="291" y="84" on="0"/>
      </contour>
      <contour>
        <pt x="334" y="942" on="1"/>
        <pt x="344" y="942" on="0"/>
        <pt x="379" y="925" on="0"/>
        <pt x="417" y="900" on="0"/>
        <pt x="454" y="869" on="0"/>
        <pt x="467" y="856" on="1"/>
        <pt x="478" y="844" on="0"/>
        <pt x="491" y="821" on="0"/>
        <pt x="491" y="808" on="1"/>
        <pt x="491" y="791" on="0"/>
        <pt x="470" y="765" on="0"/>
        <pt x="450" y="765" on="1"/>
        <pt x="433" y="765" on="0"/>
        <pt x="390" y="795" on="0"/>
        <pt x="355" y="827" on="1"/>
        <pt x="334" y="846" on="1"/>
        <pt x="313" y="827" on="1"/>
        <pt x="278" y="795" on="0"/>
        <pt x="233" y="766" on="0"/>
        <pt x="216" y="766" on="1"/>
        <pt x="198" y="766" on="0"/>
        <pt x="175" y="789" on="0"/>
        <pt x="175" y="806" on="1"/>
        <pt x="175" y="815" on="0"/>
        <pt x="186" y="840" on="0"/>
        <pt x="201" y="856" on="1"/>
        <pt x="214" y="869" on="0"/>
        <pt x="251" y="900" on="0"/>
        <pt x="289" y="925" on="0"/>
        <pt x="323" y="942" on="0"/>
      </contour>
    </TTGlyph>
    <TTGlyph name="Odieresis" xMin="40" yMin="-10" xMax="647" yMax="922">
      <contour>
        <pt x="328" y="-10" on="1"/>
        <pt x="268" y="-10" on="0"/>
        <pt x="163" y="38" on="0"/>
        <pt x="85" y="129" on="0"/>
        <pt x="40" y="261" on="0"/>
        <pt x="40" y="345" on="1"/>
        <pt x="40" y="424" on="0"/>
        <pt x="79" y="556" on="0"/>
        <pt x="156" y="652" on="0"/>
        <pt x="270" y="705" on="0"/>
        <pt x="345" y="705" on="1"/>
        <pt x="406" y="705" on="0"/>
        <pt x="516" y="661" on="0"/>
        <pt x="599" y="573" on="0"/>
        <pt x="647" y="441" on="0"/>
        <pt x="647" y="353" on="1"/>
        <pt x="647" y="280" on="0"/>
        <pt x="608" y="148" on="0"/>
        <pt x="529" y="49" on="0"/>
        <pt x="409" y="-10" on="0"/>
      </contour>
      <contour>
        <pt x="330" y="84" on="1"/>
        <pt x="385" y="84" on="0"/>
        <pt x="467" y="129" on="0"/>
        <pt x="521" y="203" on="0"/>
        <pt x="547" y="300" on="0"/>
        <pt x="547" y="351" on="1"/>
        <pt x="547" y="413" on="0"/>
        <pt x="514" y="510" on="0"/>
        <pt x="458" y="576" on="0"/>
        <pt x="384" y="611" on="0"/>
        <pt x="342" y="611" on="1"/>
        <pt x="292" y="611" on="0"/>
        <pt x="217" y="569" on="0"/>
        <pt x="166" y="497" on="0"/>
        <pt x="140" y="400" on="0"/>
        <pt x="140" y="345" on="1"/>
        <pt x="140" y="286" on="0"/>
        <pt x="170" y="189" on="0"/>
        <pt x="221" y="121" on="0"/>
        <pt x="291" y="84" on="0"/>
      </contour>
      <contour>
        <pt x="248" y="922" on="1"/>
        <pt x="271" y="922" on="0"/>
        <pt x="310" y="886" on="0"/>
        <pt x="310" y="861" on="1"/>
        <pt x="310" y="837" on="0"/>
        <pt x="270" y="802" on="0"/>
        <pt x="245" y="802" on="1"/>
        <pt x="224" y="802" on="0"/>
        <pt x="187" y="837" on="0"/>
        <pt x="187" y="863" on="1"/>
        <pt x="187" y="887" on="0"/>
        <pt x="224" y="922" on="0"/>
      </contour>
      <contour>
        <pt x="428" y="922" on="1"/>
        <pt x="451" y="922" on="0"/>
        <pt x="490" y="886" on="0"/>
        <pt x="490" y="861" on="1"/>
        <pt x="490" y="837" on="0"/>
        <pt x="450" y="802" on="0"/>
        <pt x="425" y="802" on="1"/>
        <pt x="404" y="802" on="0"/>
        <pt x="367" y="837" on="0"/>
        <pt x="367" y="863" on="1"/>
        <pt x="367" y="887" on="0"/>
        <pt x="404" y="922" on="0"/>
      </contour>
    </TTGlyph>
    <TTGlyph name="Ograve" xMin="40" yMin="-10" xMax="647" yMax="952">
      <contour>
        <pt x="328" y="-10" on="1"/>
        <pt x="268" y="-10" on="0"/>
        <pt x="163" y="38" on="0"/>
        <pt x="85" y="129" on="0"/>
        <pt x="40" y="261" on="0"/>
        <pt x="40" y="345" on="1"/>
        <pt x="40" y="424" on="0"/>
        <pt x="79" y="556" on="0"/>
        <pt x="156" y="652" on="0"/>
        <pt x="270" y="705" on="0"/>
        <pt x="345" y="705" on="1"/>
        <pt x="406" y="705" on="0"/>
        <pt x="516" y="661" on="0"/>
        <pt x="599" y="573" on="0"/>
        <pt x="647" y="441" on="0"/>
        <pt x="647" y="353" on="1"/>
        <pt x="647" y="280" on="0"/>
        <pt x="608" y="148" on="0"/>
        <pt x="529" y="49" on="0"/>
        <pt x="409" y="-10" on="0"/>
      </contour>
      <contour>
        <pt x="330" y="84" on="1"/>
        <pt x="385" y="84" on="0"/>
        <pt x="467" y="129" on="0"/>
        <pt x="521" y="203" on="0"/>
        <pt x="547" y="300" on="0"/>
        <pt x="547" y="351" on="1"/>
        <pt x="547" y="413" on="0"/>
        <pt x="514" y="510" on="0"/>
        <pt x="458" y="576" on="0"/>
        <pt x="384" y="611" on="0"/>
        <pt x="342" y="611" on="1"/>
        <pt x="292" y="611" on="0"/>
        <pt x="217" y="569" on="0"/>
        <pt x="166" y="497" on="0"/>
        <pt x="140" y="400" on="0"/>
        <pt x="140" y="345" on="1"/>
        <pt x="140" y="286" on="0"/>
        <pt x="170" y="189" on="0"/>
        <pt x="221" y="121" on="0"/>
        <pt x="291" y="84" on="0"/>
      </contour>
      <contour>
        <pt x="375" y="779" on="1"/>
        <pt x="360" y="779" on="0"/>
        <pt x="314" y="793" on="0"/>
        <pt x="263" y="815" on="0"/>
        <pt x="211" y="844" on="0"/>
        <pt x="169" y="874" on="0"/>
        <pt x="143" y="903" on="0"/>
        <pt x="143" y="915" on="1"/>
        <pt x="143" y="934" on="0"/>
        <pt x="167" y="952" on="0"/>
        <pt x="184" y="952" on="1"/>
        <pt x="203" y="952" on="0"/>
        <pt x="276" y="920" on="0"/>
        <pt x="349" y="874" on="0"/>
        <pt x="404" y="824" on="0"/>
        <pt x="406" y="805" on="1"/>
        <pt x="406" y="790" on="0"/>
        <pt x="386" y="781" on="0"/>
      </contour>
    </TTGlyph>
    <TTGlyph name="Oslash" xMin="1" yMin="-21" xMax="681" yMax="705">
      <contour>
        <pt x="328" y="-10" on="1"/>
        <pt x="222" y="-10" on="0"/>
        <pt x="146" y="60" on="1"/>
        <pt x="132" y="46" on="0"/>
        <pt x="106" y="20" on="0"/>
        <pt x="93" y="9" on="1"/>
        <pt x="75" y="-8" on="0"/>
        <pt x="50" y="-21" on="0"/>
        <pt x="40" y="-21" on="1"/>
        <pt x="25" y="-21" on="0"/>
        <pt x="1" y="4" on="0"/>
        <pt x="1" y="19" on="1"/>
        <pt x="1" y="32" on="0"/>
        <pt x="13" y="54" on="0"/>
        <pt x="29" y="72" on="1"/>
        <pt x="87" y="136" on="1"/>
        <pt x="64" y="178" on="0"/>
        <pt x="40" y="282" on="0"/>
        <pt x="40" y="345" on="1"/>
        <pt x="40" y="424" on="0"/>
        <pt x="79" y="556" on="0"/>
        <pt x="156" y="652" on="0"/>
        <pt x="270" y="705" on="0"/>
        <pt x="345" y="705" on="1"/>
        <pt x="402" y="705" on="0"/>
        <pt x="505" y="666" on="0"/>
        <pt x="546" y="628" on="1"/>
        <pt x="578" y="662" on="0"/>
        <pt x="627" y="703" on="0"/>
        <pt x="644" y="703" on="1"/>
        <pt x="658" y="703" on="0"/>
        <pt x="681" y="679" on="0"/>
        <pt x="681" y="664" on="1"/>
        <pt x="681" y="644" on="0"/>
        <pt x="657" y="617" on="1"/>
        <pt x="601" y="555" on="1"/>
        <pt x="623" y="515" on="0"/>
        <pt x="647" y="414" on="0"/>
        <pt x="647" y="353" on="1"/>
        <pt x="647" y="280" on="0"/>
        <pt x="608" y="148" on="0"/>
        <pt x="529" y="49" on="0"/>
        <pt x="409" y="-10" on="0"/>
      </contour>
      <contour>
        <pt x="478" y="552" on="1"/>
        <pt x="421" y="611" on="0"/>
        <pt x="342" y="611" on="1"/>
        <pt x="292" y="611" on="0"/>
        <pt x="217" y="569" on="0"/>
        <pt x="166" y="497" on="0"/>
        <pt x="140" y="400" on="0"/>
        <pt x="140" y="345" on="1"/>
        <pt x="140" y="274" on="0"/>
        <pt x="162" y="216" on="1"/>
        <pt x="228" y="287" on="0"/>
        <pt x="358" y="425" on="0"/>
        <pt x="429" y="499" on="1"/>
      </contour>
      <contour>
        <pt x="330" y="84" on="1"/>
        <pt x="385" y="84" on="0"/>
        <pt x="467" y="129" on="0"/>
        <pt x="521" y="203" on="0"/>
        <pt x="547" y="300" on="0"/>
        <pt x="547" y="351" on="1"/>
        <pt x="547" y="417" on="0"/>
        <pt x="527" y="471" on="1"/>
        <pt x="453" y="387" on="0"/>
        <pt x="294" y="210" on="0"/>
        <pt x="217" y="131" on="1"/>
        <pt x="264" y="84" on="0"/>
      </contour>
    </TTGlyph>
    <TTGlyph name="Otilde" xMin="40" yMin="-10" xMax="647" yMax="951">
      <contour>
        <pt x="328" y="-10" on="1"/>
        <pt x="268" y="-10" on="0"/>
        <pt x="163" y="38" on="0"/>
        <pt x="85" y="129" on="0"/>
        <pt x="40" y="261" on="0"/>
        <pt x="40" y="345" on="1"/>
        <pt x="40" y="424" on="0"/>
        <pt x="79" y="556" on="0"/>
        <pt x="156" y="652" on="0"/>
        <pt x="270" y="705" on="0"/>
        <pt x="345" y="705" on="1"/>
        <pt x="406" y="705" on="0"/>
        <pt x="516" y="661" on="0"/>
        <pt x="599" y="573" on="0"/>
        <pt x="647" y="441" on="0"/>
        <pt x="647" y="353" on="1"/>
        <pt x="647" y="280" on="0"/>
        <pt x="608" y="148" on="0"/>
        <pt x="529" y="49" on="0"/>
        <pt x="409" y="-10" on="0"/>
      </contour>
      <contour>
        <pt x="330" y="84" on="1"/>
        <pt x="385" y="84" on="0"/>
        <pt x="467" y="129" on="0"/>
        <pt x="521" y="203" on="0"/>
        <pt x="547" y="300" on="0"/>
        <pt x="547" y="351" on="1"/>
        <pt x="547" y="413" on="0"/>
        <pt x="514" y="510" on="0"/>
        <pt x="458" y="576" on="0"/>
        <pt x="384" y="611" on="0"/>
        <pt x="342" y="611" on="1"/>
        <pt x="292" y="611" on="0"/>
        <pt x="217" y="569" on="0"/>
        <pt x="166" y="497" on="0"/>
        <pt x="140" y="400" on="0"/>
        <pt x="140" y="345" on="1"/>
        <pt x="140" y="286" on="0"/>
        <pt x="170" y="189" on="0"/>
        <pt x="221" y="121" on="0"/>
        <pt x="291" y="84" on="0"/>
      </contour>
      <contour>
        <pt x="261" y="852" on="1"/>
        <pt x="245" y="852" on="0"/>
        <pt x="221" y="838" on="0"/>
        <pt x="200" y="820" on="0"/>
        <pt x="179" y="806" on="0"/>
        <pt x="167" y="806" on="1"/>
        <pt x="154" y="806" on="0"/>
        <pt x="137" y="827" on="0"/>
        <pt x="137" y="844" on="1"/>
        <pt x="137" y="861" on="0"/>
        <pt x="151" y="899" on="0"/>
        <pt x="180" y="930" on="0"/>
        <pt x="222" y="951" on="0"/>
        <pt x="250" y="951" on="1"/>
        <pt x="279" y="951" on="0"/>
        <pt x="319" y="936" on="0"/>
        <pt x="350" y="917" on="0"/>
        <pt x="380" y="902" on="0"/>
        <pt x="400" y="902" on="1"/>
        <pt x="430" y="902" on="0"/>
        <pt x="459" y="916" on="0"/>
        <pt x="474" y="934" on="0"/>
        <pt x="484" y="948" on="0"/>
        <pt x="495" y="948" on="1"/>
        <pt x="509" y="948" on="0"/>
        <pt x="533" y="932" on="0"/>
        <pt x="533" y="917" on="1"/>
        <pt x="533" y="894" on="0"/>
        <pt x="516" y="853" on="0"/>
        <pt x="482" y="821" on="0"/>
        <pt x="431" y="802" on="0"/>
        <pt x="398" y="802" on="1"/>
        <pt x="377" y="802" on="0"/>
        <pt x="343" y="818" on="0"/>
        <pt x="311" y="836" on="0"/>
        <pt x="279" y="852" on="0"/>
      </contour>
    </TTGlyph>
    <TTGlyph name="P" xMin="60" yMin="-4" xMax="548" yMax="715">
      <contour>
        <pt x="160" y="63" on="1"/>
        <pt x="160" y="39" on="0"/>
        <pt x="151" y="13" on="0"/>
        <pt x="138" y="-1" on="0"/>
        <pt x="121" y="-4" on="0"/>
        <pt x="113" y="-4" on="1"/>
        <pt x="86" y="-4" on="0"/>
        <pt x="69" y="20" on="0"/>
        <pt x="66" y="62" on="1"/>
        <pt x="64" y="84" on="0"/>
        <pt x="62" y="168" on="0"/>
        <pt x="61" y="284" on="0"/>
        <pt x="60" y="424" on="0"/>
        <pt x="60" y="502" on="1"/>
        <pt x="60" y="539" on="0"/>
        <pt x="78" y="615" on="0"/>
        <pt x="129" y="677" on="0"/>
        <pt x="220" y="715" on="0"/>
        <pt x="293" y="715" on="1"/>
        <pt x="344" y="715" on="0"/>
        <pt x="436" y="693" on="0"/>
        <pt x="506" y="639" on="0"/>
        <pt x="548" y="549" on="0"/>
        <pt x="548" y="482" on="1"/>
        <pt x="548" y="412" on="0"/>
        <pt x="502" y="320" on="0"/>
        <pt x="418" y="266" on="0"/>
        <pt x="302" y="244" on="0"/>
        <pt x="233" y="244" on="1"/>
        <pt x="216" y="244" on="0"/>
        <pt x="182" y="244" on="0"/>
        <pt x="161" y="246" on="1"/>
      </contour>
      <contour>
        <pt x="448" y="484" on="1"/>
        <pt x="448" y="551" on="0"/>
        <pt x="373" y="619" on="0"/>
        <pt x="286" y="619" on="1"/>
        <pt x="253" y="619" on="0"/>
        <pt x="206" y="608" on="0"/>
        <pt x="176" y="581" on="0"/>
        <pt x="161" y="535" on="0"/>
        <pt x="161" y="500" on="1"/>
        <pt x="161" y="466" on="0"/>
        <pt x="161" y="379" on="0"/>
        <pt x="162" y="341" on="1"/>
        <pt x="185" y="340" on="0"/>
        <pt x="242" y="340" on="0"/>
        <pt x="267" y="340" on="1"/>
        <pt x="297" y="340" on="0"/>
        <pt x="362" y="348" on="0"/>
        <pt x="414" y="377" on="0"/>
        <pt x="448" y="434" on="0"/>
      </contour>
    </TTGlyph>
    <TTGlyph name="Q" xMin="40" yMin="-41" xMax="659" yMax="705">
      <contour>
        <pt x="328" y="-10" on="1"/>
        <pt x="268" y="-10" on="0"/>
        <pt x="163" y="38" on="0"/>
        <pt x="85" y="129" on="0"/>
        <pt x="40" y="261" on="0"/>
        <pt x="40" y="345" on="1"/>
        <pt x="40" y="424" on="0"/>
        <pt x="79" y="556" on="0"/>
        <pt x="156" y="652" on="0"/>
        <pt x="270" y="705" on="0"/>
        <pt x="345" y="705" on="1"/>
        <pt x="406" y="705" on="0"/>
        <pt x="516" y="661" on="0"/>
        <pt x="599" y="573" on="0"/>
        <pt x="647" y="441" on="0"/>
        <pt x="647" y="353" on="1"/>
        <pt x="647" y="281" on="0"/>
        <pt x="610" y="153" on="0"/>
        <pt x="572" y="103" on="1"/>
        <pt x="629" y="56" on="1"/>
        <pt x="640" y="47" on="0"/>
        <pt x="659" y="20" on="0"/>
        <pt x="659" y="3" on="1"/>
        <pt x="659" y="-17" on="0"/>
        <pt x="627" y="-41" on="0"/>
        <pt x="605" y="-41" on="1"/>
        <pt x="577" y="-41" on="0"/>
        <pt x="546" y="-13" on="1"/>
        <pt x="494" y="32" on="1"/>
        <pt x="460" y="12" on="0"/>
        <pt x="378" y="-10" on="0"/>
      </contour>
      <contour>
        <pt x="330" y="84" on="1"/>
        <pt x="385" y="84" on="0"/>
        <pt x="467" y="129" on="0"/>
        <pt x="521" y="203" on="0"/>
        <pt x="547" y="300" on="0"/>
        <pt x="547" y="351" on="1"/>
        <pt x="547" y="413" on="0"/>
        <pt x="514" y="510" on="0"/>
        <pt x="458" y="576" on="0"/>
        <pt x="384" y="611" on="0"/>
        <pt x="342" y="611" on="1"/>
        <pt x="292" y="611" on="0"/>
        <pt x="217" y="569" on="0"/>
        <pt x="166" y="497" on="0"/>
        <pt x="140" y="400" on="0"/>
        <pt x="140" y="345" on="1"/>
        <pt x="140" y="286" on="0"/>
        <pt x="170" y="189" on="0"/>
        <pt x="221" y="121" on="0"/>
        <pt x="291" y="84" on="0"/>
      </contour>
    </TTGlyph>
    <TTGlyph name="R" xMin="60" yMin="-12" xMax="552" yMax="715">
      <contour>
        <pt x="291" y="246" on="1"/>
        <pt x="277" y="245" on="0"/>
        <pt x="248" y="244" on="0"/>
        <pt x="233" y="244" on="1"/>
        <pt x="216" y="244" on="0"/>
        <pt x="182" y="244" on="0"/>
        <pt x="161" y="246" on="1"/>
        <pt x="161" y="43" on="1"/>
        <pt x="161" y="11" on="0"/>
        <pt x="130" y="-4" on="0"/>
        <pt x="107" y="-4" on="1"/>
        <pt x="95" y="-4" on="0"/>
        <pt x="81" y="-1" on="0"/>
        <pt x="72" y="8" on="0"/>
        <pt x="67" y="26" on="0"/>
        <pt x="66" y="42" on="1"/>
        <pt x="64" y="60" on="0"/>
        <pt x="62" y="129" on="0"/>
        <pt x="61" y="239" on="0"/>
        <pt x="60" y="396" on="0"/>
        <pt x="60" y="502" on="1"/>
        <pt x="60" y="543" on="0"/>
        <pt x="80" y="620" on="0"/>
        <pt x="132" y="679" on="0"/>
        <pt x="221" y="715" on="0"/>
        <pt x="290" y="715" on="1"/>
        <pt x="339" y="715" on="0"/>
        <pt x="432" y="693" on="0"/>
        <pt x="504" y="639" on="0"/>
        <pt x="548" y="547" on="0"/>
        <pt x="548" y="478" on="1"/>
        <pt x="548" y="386" on="0"/>
        <pt x="469" y="285" on="0"/>
        <pt x="400" y="264" on="1"/>
        <pt x="534" y="80" on="1"/>
        <pt x="552" y="56" on="0"/>
        <pt x="552" y="31" on="1"/>
        <pt x="552" y="11" on="0"/>
        <pt x="525" y="-12" on="0"/>
        <pt x="505" y="-12" on="1"/>
        <pt x="483" y="-12" on="0"/>
        <pt x="451" y="13" on="0"/>
        <pt x="437" y="33" on="1"/>
      </contour>
      <contour>
        <pt x="448" y="479" on="1"/>
        <pt x="448" y="548" on="0"/>
        <pt x="365" y="615" on="0"/>
        <pt x="275" y="615" on="1"/>
        <pt x="242" y="615" on="0"/>
        <pt x="198" y="604" on="0"/>
        <pt x="172" y="574" on="0"/>
        <pt x="161" y="521" on="0"/>
        <pt x="161" y="480" on="1"/>
        <pt x="161" y="451" on="0"/>
        <pt x="161" y="373" on="0"/>
        <pt x="162" y="341" on="1"/>
        <pt x="185" y="340" on="0"/>
        <pt x="242" y="340" on="0"/>
        <pt x="267" y="340" on="1"/>
        <pt x="295" y="340" on="0"/>
        <pt x="358" y="347" on="0"/>
        <pt x="412" y="376" on="0"/>
        <pt x="448" y="431" on="0"/>
      </contour>
    </TTGlyph>
    <TTGlyph name="S" xMin="50" yMin="-8" xMax="532" yMax="706">
      <contour>
        <pt x="304" y="706" on="1"/>
        <pt x="332" y="706" on="0"/>
        <pt x="405" y="697" on="0"/>
        <pt x="469" y="674" on="0"/>
        <pt x="513" y="637" on="0"/>
        <pt x="513" y="610" on="1"/>
        <pt x="513" y="594" on="0"/>
        <pt x="495" y="572" on="0"/>
        <pt x="475" y="572" on="1"/>
        <pt x="460" y="572" on="0"/>
        <pt x="429" y="584" on="0"/>
        <pt x="390" y="597" on="0"/>
        <pt x="339" y="609" on="0"/>
        <pt x="305" y="609" on="1"/>
        <pt x="239" y="609" on="0"/>
        <pt x="176" y="562" on="0"/>
        <pt x="176" y="521" on="1"/>
        <pt x="176" y="493" on="0"/>
        <pt x="204" y="455" on="0"/>
        <pt x="251" y="428" on="0"/>
        <pt x="310" y="410" on="0"/>
        <pt x="341" y="402" on="1"/>
        <pt x="376" y="393" on="0"/>
        <pt x="445" y="367" on="0"/>
        <pt x="499" y="325" on="0"/>
        <pt x="532" y="261" on="0"/>
        <pt x="532" y="212" on="1"/>
        <pt x="532" y="161" on="0"/>
        <pt x="494" y="80" on="0"/>
        <pt x="428" y="23" on="0"/>
        <pt x="336" y="-8" on="0"/>
        <pt x="282" y="-8" on="1"/>
        <pt x="252" y="-8" on="0"/>
        <pt x="172" y="3" on="0"/>
        <pt x="100" y="30" on="0"/>
        <pt x="50" y="75" on="0"/>
        <pt x="50" y="108" on="1"/>
        <pt x="50" y="128" on="0"/>
        <pt x="71" y="152" on="0"/>
        <pt x="92" y="152" on="1"/>
        <pt x="109" y="152" on="0"/>
        <pt x="131" y="139" on="0"/>
        <pt x="139" y="131" on="1"/>
        <pt x="169" y="105" on="0"/>
        <pt x="245" y="87" on="0"/>
        <pt x="285" y="87" on="1"/>
        <pt x="308" y="87" on="0"/>
        <pt x="359" y="94" on="0"/>
        <pt x="401" y="116" on="0"/>
        <pt x="429" y="157" on="0"/>
        <pt x="429" y="192" on="1"/>
        <pt x="429" y="224" on="0"/>
        <pt x="404" y="265" on="0"/>
        <pt x="362" y="293" on="0"/>
        <pt x="305" y="311" on="0"/>
        <pt x="272" y="320" on="1"/>
        <pt x="235" y="330" on="0"/>
        <pt x="163" y="354" on="0"/>
        <pt x="107" y="395" on="0"/>
        <pt x="72" y="458" on="0"/>
        <pt x="72" y="507" on="1"/>
        <pt x="72" y="556" on="0"/>
        <pt x="108" y="630" on="0"/>
        <pt x="170" y="680" on="0"/>
        <pt x="255" y="706" on="0"/>
      </contour>
    </TTGlyph>
    <TTGlyph name="Scaron" xMin="50" yMin="-8" xMax="532" yMax="951">
      <contour>
        <pt x="304" y="706" on="1"/>
        <pt x="332" y="706" on="0"/>
        <pt x="405" y="697" on="0"/>
        <pt x="469" y="674" on="0"/>
        <pt x="513" y="637" on="0"/>
        <pt x="513" y="610" on="1"/>
        <pt x="513" y="594" on="0"/>
        <pt x="495" y="572" on="0"/>
        <pt x="475" y="572" on="1"/>
        <pt x="460" y="572" on="0"/>
        <pt x="429" y="584" on="0"/>
        <pt x="390" y="597" on="0"/>
        <pt x="339" y="609" on="0"/>
        <pt x="305" y="609" on="1"/>
        <pt x="239" y="609" on="0"/>
        <pt x="176" y="562" on="0"/>
        <pt x="176" y="521" on="1"/>
        <pt x="176" y="493" on="0"/>
        <pt x="204" y="455" on="0"/>
        <pt x="251" y="428" on="0"/>
        <pt x="310" y="410" on="0"/>
        <pt x="341" y="402" on="1"/>
        <pt x="376" y="393" on="0"/>
        <pt x="445" y="367" on="0"/>
        <pt x="499" y="325" on="0"/>
        <pt x="532" y="261" on="0"/>
        <pt x="532" y="212" on="1"/>
        <pt x="532" y="161" on="0"/>
        <pt x="494" y="80" on="0"/>
        <pt x="428" y="23" on="0"/>
        <pt x="336" y="-8" on="0"/>
        <pt x="282" y="-8" on="1"/>
        <pt x="252" y="-8" on="0"/>
        <pt x="172" y="3" on="0"/>
        <pt x="100" y="30" on="0"/>
        <pt x="50" y="75" on="0"/>
        <pt x="50" y="108" on="1"/>
        <pt x="50" y="128" on="0"/>
        <pt x="71" y="152" on="0"/>
        <pt x="92" y="152" on="1"/>
        <pt x="109" y="152" on="0"/>
        <pt x="131" y="139" on="0"/>
        <pt x="139" y="131" on="1"/>
        <pt x="169" y="105" on="0"/>
        <pt x="245" y="87" on="0"/>
        <pt x="285" y="87" on="1"/>
        <pt x="308" y="87" on="0"/>
        <pt x="359" y="94" on="0"/>
        <pt x="401" y="116" on="0"/>
        <pt x="429" y="157" on="0"/>
        <pt x="429" y="192" on="1"/>
        <pt x="429" y="224" on="0"/>
        <pt x="404" y="265" on="0"/>
        <pt x="362" y="293" on="0"/>
        <pt x="305" y="311" on="0"/>
        <pt x="272" y="320" on="1"/>
        <pt x="235" y="330" on="0"/>
        <pt x="163" y="354" on="0"/>
        <pt x="107" y="395" on="0"/>
        <pt x="72" y="458" on="0"/>
        <pt x="72" y="507" on="1"/>
        <pt x="72" y="556" on="0"/>
        <pt x="108" y="630" on="0"/>
        <pt x="170" y="680" on="0"/>
        <pt x="255" y="706" on="0"/>
      </contour>
      <contour>
        <pt x="286" y="774" on="1"/>
        <pt x="275" y="774" on="0"/>
        <pt x="241" y="791" on="0"/>
        <pt x="203" y="816" on="0"/>
        <pt x="166" y="846" on="0"/>
        <pt x="153" y="860" on="1"/>
        <pt x="138" y="876" on="0"/>
        <pt x="127" y="901" on="0"/>
        <pt x="127" y="910" on="1"/>
        <pt x="127" y="927" on="0"/>
        <pt x="150" y="950" on="0"/>
        <pt x="168" y="950" on="1"/>
        <pt x="185" y="950" on="0"/>
        <pt x="230" y="921" on="0"/>
        <pt x="265" y="889" on="1"/>
        <pt x="286" y="870" on="1"/>
        <pt x="307" y="889" on="1"/>
        <pt x="342" y="921" on="0"/>
        <pt x="385" y="951" on="0"/>
        <pt x="402" y="951" on="1"/>
        <pt x="422" y="951" on="0"/>
        <pt x="443" y="925" on="0"/>
        <pt x="443" y="908" on="1"/>
        <pt x="443" y="895" on="0"/>
        <pt x="430" y="872" on="0"/>
        <pt x="419" y="860" on="1"/>
        <pt x="406" y="846" on="0"/>
        <pt x="369" y="816" on="0"/>
        <pt x="331" y="791" on="0"/>
        <pt x="296" y="774" on="0"/>
      </contour>
    </TTGlyph>
    <TTGlyph name="T" xMin="30" yMin="-10" xMax="515" yMax="704">
      <contour>
        <pt x="449" y="608" on="1"/>
        <pt x="421" y="606" on="0"/>
        <pt x="358" y="604" on="0"/>
        <pt x="320" y="603" on="1"/>
        <pt x="321" y="576" on="0"/>
        <pt x="323" y="529" on="0"/>
        <pt x="325" y="481" on="0"/>
        <pt x="326" y="429" on="0"/>
        <pt x="326" y="397" on="1"/>
        <pt x="326" y="352" on="0"/>
        <pt x="326" y="269" on="0"/>
        <pt x="324" y="186" on="0"/>
        <pt x="322" y="102" on="0"/>
        <pt x="320" y="57" on="1"/>
        <pt x="319" y="33" on="0"/>
        <pt x="312" y="7" on="0"/>
        <pt x="300" y="-7" on="0"/>
        <pt x="284" y="-10" on="0"/>
        <pt x="274" y="-10" on="1"/>
        <pt x="256" y="-10" on="0"/>
        <pt x="231" y="15" on="0"/>
        <pt x="229" y="56" on="1"/>
        <pt x="227" y="92" on="0"/>
        <pt x="226" y="172" on="0"/>
        <pt x="224" y="264" on="0"/>
        <pt x="224" y="371" on="0"/>
        <pt x="224" y="436" on="1"/>
        <pt x="224" y="491" on="0"/>
        <pt x="225" y="573" on="0"/>
        <pt x="227" y="603" on="1"/>
        <pt x="186" y="603" on="1"/>
        <pt x="144" y="603" on="0"/>
        <pt x="85" y="605" on="0"/>
        <pt x="47" y="614" on="0"/>
        <pt x="30" y="634" on="0"/>
        <pt x="30" y="652" on="1"/>
        <pt x="30" y="661" on="0"/>
        <pt x="34" y="676" on="0"/>
        <pt x="48" y="689" on="0"/>
        <pt x="73" y="697" on="0"/>
        <pt x="93" y="699" on="1"/>
        <pt x="112" y="700" on="0"/>
        <pt x="142" y="702" on="0"/>
        <pt x="172" y="704" on="0"/>
        <pt x="204" y="704" on="0"/>
        <pt x="225" y="704" on="1"/>
        <pt x="284" y="704" on="0"/>
        <pt x="389" y="702" on="0"/>
        <pt x="448" y="699" on="1"/>
        <pt x="472" y="697" on="0"/>
        <pt x="498" y="690" on="0"/>
        <pt x="512" y="678" on="0"/>
        <pt x="515" y="662" on="0"/>
        <pt x="515" y="652" on="1"/>
        <pt x="515" y="634" on="0"/>
        <pt x="490" y="610" on="0"/>
      </contour>
    </TTGlyph>
    <TTGlyph name="Thorn" xMin="31" yMin="-17" xMax="520" yMax="704">
      <contour>
        <pt x="35" y="49" on="1"/>
        <pt x="33" y="85" on="0"/>
        <pt x="32" y="184" on="0"/>
        <pt x="31" y="300" on="0"/>
        <pt x="31" y="426" on="0"/>
        <pt x="31" y="491" on="1"/>
        <pt x="31" y="562" on="0"/>
        <pt x="33" y="646" on="0"/>
        <pt x="42" y="691" on="0"/>
        <pt x="62" y="704" on="0"/>
        <pt x="80" y="704" on="1"/>
        <pt x="87" y="704" on="0"/>
        <pt x="103" y="700" on="0"/>
        <pt x="115" y="687" on="0"/>
        <pt x="124" y="662" on="0"/>
        <pt x="125" y="642" on="1"/>
        <pt x="129" y="553" on="1"/>
        <pt x="156" y="567" on="0"/>
        <pt x="230" y="582" on="0"/>
        <pt x="281" y="582" on="1"/>
        <pt x="319" y="582" on="0"/>
        <pt x="403" y="559" on="0"/>
        <pt x="474" y="509" on="0"/>
        <pt x="520" y="429" on="0"/>
        <pt x="520" y="372" on="1"/>
        <pt x="520" y="307" on="0"/>
        <pt x="479" y="222" on="0"/>
        <pt x="400" y="172" on="0"/>
        <pt x="282" y="151" on="0"/>
        <pt x="205" y="151" on="1"/>
        <pt x="188" y="151" on="0"/>
        <pt x="154" y="151" on="0"/>
        <pt x="133" y="153" on="1"/>
        <pt x="133" y="91" on="0"/>
        <pt x="124" y="22" on="0"/>
        <pt x="110" y="-11" on="0"/>
        <pt x="91" y="-17" on="0"/>
        <pt x="80" y="-17" on="1"/>
        <pt x="71" y="-17" on="0"/>
        <pt x="56" y="-13" on="0"/>
        <pt x="44" y="1" on="0"/>
        <pt x="36" y="27" on="0"/>
      </contour>
      <contour>
        <pt x="420" y="362" on="1"/>
        <pt x="420" y="396" on="0"/>
        <pt x="394" y="442" on="0"/>
        <pt x="354" y="470" on="0"/>
        <pt x="303" y="482" on="0"/>
        <pt x="279" y="482" on="1"/>
        <pt x="238" y="482" on="0"/>
        <pt x="182" y="473" on="0"/>
        <pt x="148" y="448" on="0"/>
        <pt x="133" y="403" on="0"/>
        <pt x="133" y="367" on="1"/>
        <pt x="133" y="338" on="0"/>
        <pt x="133" y="280" on="0"/>
        <pt x="134" y="248" on="1"/>
        <pt x="157" y="247" on="0"/>
        <pt x="214" y="247" on="0"/>
        <pt x="239" y="247" on="1"/>
        <pt x="270" y="247" on="0"/>
        <pt x="335" y="254" on="0"/>
        <pt x="387" y="277" on="0"/>
        <pt x="420" y="323" on="0"/>
      </contour>
    </TTGlyph>
    <TTGlyph name="U" xMin="60" yMin="-17" xMax="552" yMax="705">
      <contour>
        <pt x="301" y="-17" on="1"/>
        <pt x="187" y="-17" on="0"/>
        <pt x="134" y="45" on="1"/>
        <pt x="113" y="69" on="0"/>
        <pt x="84" y="144" on="0"/>
        <pt x="67" y="264" on="0"/>
        <pt x="60" y="441" on="0"/>
        <pt x="60" y="568" on="1"/>
        <pt x="60" y="609" on="0"/>
        <pt x="64" y="662" on="0"/>
        <pt x="76" y="693" on="0"/>
        <pt x="95" y="705" on="0"/>
        <pt x="110" y="705" on="1"/>
        <pt x="139" y="705" on="0"/>
        <pt x="163" y="653" on="0"/>
        <pt x="163" y="589" on="1"/>
        <pt x="163" y="567" on="0"/>
        <pt x="162" y="533" on="0"/>
        <pt x="162" y="498" on="0"/>
        <pt x="161" y="456" on="0"/>
        <pt x="161" y="426" on="1"/>
        <pt x="161" y="326" on="0"/>
        <pt x="174" y="194" on="0"/>
        <pt x="206" y="115" on="0"/>
        <pt x="261" y="83" on="0"/>
        <pt x="302" y="83" on="1"/>
        <pt x="345" y="83" on="0"/>
        <pt x="402" y="118" on="0"/>
        <pt x="436" y="201" on="0"/>
        <pt x="451" y="339" on="0"/>
        <pt x="451" y="442" on="1"/>
        <pt x="451" y="487" on="0"/>
        <pt x="450" y="551" on="0"/>
        <pt x="450" y="577" on="1"/>
        <pt x="450" y="614" on="0"/>
        <pt x="455" y="664" on="0"/>
        <pt x="466" y="693" on="0"/>
        <pt x="486" y="705" on="0"/>
        <pt x="501" y="705" on="1"/>
        <pt x="516" y="705" on="0"/>
        <pt x="536" y="693" on="0"/>
        <pt x="548" y="663" on="0"/>
        <pt x="552" y="610" on="0"/>
        <pt x="552" y="568" on="1"/>
        <pt x="552" y="392" on="0"/>
        <pt x="530" y="165" on="0"/>
        <pt x="474" y="34" on="0"/>
        <pt x="377" y="-17" on="0"/>
      </contour>
    </TTGlyph>
    <TTGlyph name="Uacute" xMin="60" yMin="-17" xMax="552" yMax="952">
      <contour>
        <pt x="301" y="-17" on="1"/>
        <pt x="187" y="-17" on="0"/>
        <pt x="134" y="45" on="1"/>
        <pt x="113" y="69" on="0"/>
        <pt x="84" y="144" on="0"/>
        <pt x="67" y="264" on="0"/>
        <pt x="60" y="441" on="0"/>
        <pt x="60" y="568" on="1"/>
        <pt x="60" y="609" on="0"/>
        <pt x="64" y="662" on="0"/>
        <pt x="76" y="693" on="0"/>
        <pt x="95" y="705" on="0"/>
        <pt x="110" y="705" on="1"/>
        <pt x="139" y="705" on="0"/>
        <pt x="163" y="653" on="0"/>
        <pt x="163" y="589" on="1"/>
        <pt x="163" y="567" on="0"/>
        <pt x="162" y="533" on="0"/>
        <pt x="162" y="498" on="0"/>
        <pt x="161" y="456" on="0"/>
        <pt x="161" y="426" on="1"/>
        <pt x="161" y="326" on="0"/>
        <pt x="174" y="194" on="0"/>
        <pt x="206" y="115" on="0"/>
        <pt x="261" y="83" on="0"/>
        <pt x="302" y="83" on="1"/>
        <pt x="345" y="83" on="0"/>
        <pt x="402" y="118" on="0"/>
        <pt x="436" y="201" on="0"/>
        <pt x="451" y="339" on="0"/>
        <pt x="451" y="442" on="1"/>
        <pt x="451" y="487" on="0"/>
        <pt x="450" y="551" on="0"/>
        <pt x="450" y="577" on="1"/>
        <pt x="450" y="614" on="0"/>
        <pt x="455" y="664" on="0"/>
        <pt x="466" y="693" on="0"/>
        <pt x="486" y="705" on="0"/>
        <pt x="501" y="705" on="1"/>
        <pt x="516" y="705" on="0"/>
        <pt x="536" y="693" on="0"/>
        <pt x="548" y="663" on="0"/>
        <pt x="552" y="610" on="0"/>
        <pt x="552" y="568" on="1"/>
        <pt x="552" y="392" on="0"/>
        <pt x="530" y="165" on="0"/>
        <pt x="474" y="34" on="0"/>
        <pt x="377" y="-17" on="0"/>
      </contour>
      <contour>
        <pt x="239" y="777" on="1"/>
        <pt x="228" y="779" on="0"/>
        <pt x="207" y="790" on="0"/>
        <pt x="207" y="805" on="1"/>
        <pt x="208" y="817" on="0"/>
        <pt x="235" y="849" on="0"/>
        <pt x="275" y="882" on="0"/>
        <pt x="325" y="913" on="0"/>
        <pt x="374" y="937" on="0"/>
        <pt x="416" y="952" on="0"/>
        <pt x="429" y="952" on="1"/>
        <pt x="446" y="952" on="0"/>
        <pt x="471" y="932" on="0"/>
        <pt x="471" y="913" on="1"/>
        <pt x="471" y="901" on="0"/>
        <pt x="445" y="872" on="0"/>
        <pt x="403" y="842" on="0"/>
        <pt x="351" y="813" on="0"/>
        <pt x="300" y="791" on="0"/>
        <pt x="254" y="777" on="0"/>
      </contour>
    </TTGlyph>
    <TTGlyph name="Ucircumflex" xMin="60" yMin="-17" xMax="552" yMax="951">
      <contour>
        <pt x="301" y="-17" on="1"/>
        <pt x="187" y="-17" on="0"/>
        <pt x="134" y="45" on="1"/>
        <pt x="113" y="69" on="0"/>
        <pt x="84" y="144" on="0"/>
        <pt x="67" y="264" on="0"/>
        <pt x="60" y="441" on="0"/>
        <pt x="60" y="568" on="1"/>
        <pt x="60" y="609" on="0"/>
        <pt x="64" y="662" on="0"/>
        <pt x="76" y="693" on="0"/>
        <pt x="95" y="705" on="0"/>
        <pt x="110" y="705" on="1"/>
        <pt x="139" y="705" on="0"/>
        <pt x="163" y="653" on="0"/>
        <pt x="163" y="589" on="1"/>
        <pt x="163" y="567" on="0"/>
        <pt x="162" y="533" on="0"/>
        <pt x="162" y="498" on="0"/>
        <pt x="161" y="456" on="0"/>
        <pt x="161" y="426" on="1"/>
        <pt x="161" y="326" on="0"/>
        <pt x="174" y="194" on="0"/>
        <pt x="206" y="115" on="0"/>
        <pt x="261" y="83" on="0"/>
        <pt x="302" y="83" on="1"/>
        <pt x="345" y="83" on="0"/>
        <pt x="402" y="118" on="0"/>
        <pt x="436" y="201" on="0"/>
        <pt x="451" y="339" on="0"/>
        <pt x="451" y="442" on="1"/>
        <pt x="451" y="487" on="0"/>
        <pt x="450" y="551" on="0"/>
        <pt x="450" y="577" on="1"/>
        <pt x="450" y="614" on="0"/>
        <pt x="455" y="664" on="0"/>
        <pt x="466" y="693" on="0"/>
        <pt x="486" y="705" on="0"/>
        <pt x="501" y="705" on="1"/>
        <pt x="516" y="705" on="0"/>
        <pt x="536" y="693" on="0"/>
        <pt x="548" y="663" on="0"/>
        <pt x="552" y="610" on="0"/>
        <pt x="552" y="568" on="1"/>
        <pt x="552" y="392" on="0"/>
        <pt x="530" y="165" on="0"/>
        <pt x="474" y="34" on="0"/>
        <pt x="377" y="-17" on="0"/>
      </contour>
      <contour>
        <pt x="308" y="951" on="1"/>
        <pt x="318" y="951" on="0"/>
        <pt x="353" y="934" on="0"/>
        <pt x="391" y="909" on="0"/>
        <pt x="428" y="878" on="0"/>
        <pt x="441" y="865" on="1"/>
        <pt x="452" y="853" on="0"/>
        <pt x="465" y="830" on="0"/>
        <pt x="465" y="817" on="1"/>
        <pt x="465" y="800" on="0"/>
        <pt x="444" y="774" on="0"/>
        <pt x="424" y="774" on="1"/>
        <pt x="407" y="774" on="0"/>
        <pt x="364" y="804" on="0"/>
        <pt x="329" y="836" on="1"/>
        <pt x="308" y="855" on="1"/>
        <pt x="287" y="836" on="1"/>
        <pt x="252" y="804" on="0"/>
        <pt x="207" y="775" on="0"/>
        <pt x="190" y="775" on="1"/>
        <pt x="172" y="775" on="0"/>
        <pt x="149" y="798" on="0"/>
        <pt x="149" y="815" on="1"/>
        <pt x="149" y="824" on="0"/>
        <pt x="160" y="849" on="0"/>
        <pt x="175" y="865" on="1"/>
        <pt x="188" y="878" on="0"/>
        <pt x="225" y="909" on="0"/>
        <pt x="263" y="934" on="0"/>
        <pt x="297" y="951" on="0"/>
      </contour>
    </TTGlyph>
    <TTGlyph name="Udieresis" xMin="60" yMin="-17" xMax="552" yMax="905">
      <contour>
        <pt x="301" y="-17" on="1"/>
        <pt x="187" y="-17" on="0"/>
        <pt x="134" y="45" on="1"/>
        <pt x="113" y="69" on="0"/>
        <pt x="84" y="144" on="0"/>
        <pt x="67" y="264" on="0"/>
        <pt x="60" y="441" on="0"/>
        <pt x="60" y="568" on="1"/>
        <pt x="60" y="609" on="0"/>
        <pt x="64" y="662" on="0"/>
        <pt x="76" y="693" on="0"/>
        <pt x="95" y="705" on="0"/>
        <pt x="110" y="705" on="1"/>
        <pt x="139" y="705" on="0"/>
        <pt x="163" y="653" on="0"/>
        <pt x="163" y="589" on="1"/>
        <pt x="163" y="567" on="0"/>
        <pt x="162" y="533" on="0"/>
        <pt x="162" y="498" on="0"/>
        <pt x="161" y="456" on="0"/>
        <pt x="161" y="426" on="1"/>
        <pt x="161" y="326" on="0"/>
        <pt x="174" y="194" on="0"/>
        <pt x="206" y="115" on="0"/>
        <pt x="261" y="83" on="0"/>
        <pt x="302" y="83" on="1"/>
        <pt x="345" y="83" on="0"/>
        <pt x="402" y="118" on="0"/>
        <pt x="436" y="201" on="0"/>
        <pt x="451" y="339" on="0"/>
        <pt x="451" y="442" on="1"/>
        <pt x="451" y="487" on="0"/>
        <pt x="450" y="551" on="0"/>
        <pt x="450" y="577" on="1"/>
        <pt x="450" y="614" on="0"/>
        <pt x="455" y="664" on="0"/>
        <pt x="466" y="693" on="0"/>
        <pt x="486" y="705" on="0"/>
        <pt x="501" y="705" on="1"/>
        <pt x="516" y="705" on="0"/>
        <pt x="536" y="693" on="0"/>
        <pt x="548" y="663" on="0"/>
        <pt x="552" y="610" on="0"/>
        <pt x="552" y="568" on="1"/>
        <pt x="552" y="392" on="0"/>
        <pt x="530" y="165" on="0"/>
        <pt x="474" y="34" on="0"/>
        <pt x="377" y="-17" on="0"/>
      </contour>
      <contour>
        <pt x="215" y="905" on="1"/>
        <pt x="238" y="905" on="0"/>
        <pt x="277" y="869" on="0"/>
        <pt x="277" y="844" on="1"/>
        <pt x="277" y="820" on="0"/>
        <pt x="237" y="785" on="0"/>
        <pt x="212" y="785" on="1"/>
        <pt x="191" y="785" on="0"/>
        <pt x="154" y="820" on="0"/>
        <pt x="154" y="846" on="1"/>
        <pt x="154" y="870" on="0"/>
        <pt x="191" y="905" on="0"/>
      </contour>
      <contour>
        <pt x="395" y="905" on="1"/>
        <pt x="418" y="905" on="0"/>
        <pt x="457" y="869" on="0"/>
        <pt x="457" y="844" on="1"/>
        <pt x="457" y="820" on="0"/>
        <pt x="417" y="785" on="0"/>
        <pt x="392" y="785" on="1"/>
        <pt x="371" y="785" on="0"/>
        <pt x="334" y="820" on="0"/>
        <pt x="334" y="846" on="1"/>
        <pt x="334" y="870" on="0"/>
        <pt x="371" y="905" on="0"/>
      </contour>
    </TTGlyph>
    <TTGlyph name="Ugrave" xMin="60" yMin="-17" xMax="552" yMax="952">
      <contour>
        <pt x="301" y="-17" on="1"/>
        <pt x="187" y="-17" on="0"/>
        <pt x="134" y="45" on="1"/>
        <pt x="113" y="69" on="0"/>
        <pt x="84" y="144" on="0"/>
        <pt x="67" y="264" on="0"/>
        <pt x="60" y="441" on="0"/>
        <pt x="60" y="568" on="1"/>
        <pt x="60" y="609" on="0"/>
        <pt x="64" y="662" on="0"/>
        <pt x="76" y="693" on="0"/>
        <pt x="95" y="705" on="0"/>
        <pt x="110" y="705" on="1"/>
        <pt x="139" y="705" on="0"/>
        <pt x="163" y="653" on="0"/>
        <pt x="163" y="589" on="1"/>
        <pt x="163" y="567" on="0"/>
        <pt x="162" y="533" on="0"/>
        <pt x="162" y="498" on="0"/>
        <pt x="161" y="456" on="0"/>
        <pt x="161" y="426" on="1"/>
        <pt x="161" y="326" on="0"/>
        <pt x="174" y="194" on="0"/>
        <pt x="206" y="115" on="0"/>
        <pt x="261" y="83" on="0"/>
        <pt x="302" y="83" on="1"/>
        <pt x="345" y="83" on="0"/>
        <pt x="402" y="118" on="0"/>
        <pt x="436" y="201" on="0"/>
        <pt x="451" y="339" on="0"/>
        <pt x="451" y="442" on="1"/>
        <pt x="451" y="487" on="0"/>
        <pt x="450" y="551" on="0"/>
        <pt x="450" y="577" on="1"/>
        <pt x="450" y="614" on="0"/>
        <pt x="455" y="664" on="0"/>
        <pt x="466" y="693" on="0"/>
        <pt x="486" y="705" on="0"/>
        <pt x="501" y="705" on="1"/>
        <pt x="516" y="705" on="0"/>
        <pt x="536" y="693" on="0"/>
        <pt x="548" y="663" on="0"/>
        <pt x="552" y="610" on="0"/>
        <pt x="552" y="568" on="1"/>
        <pt x="552" y="392" on="0"/>
        <pt x="530" y="165" on="0"/>
        <pt x="474" y="34" on="0"/>
        <pt x="377" y="-17" on="0"/>
      </contour>
      <contour>
        <pt x="309" y="779" on="1"/>
        <pt x="294" y="779" on="0"/>
        <pt x="248" y="793" on="0"/>
        <pt x="197" y="815" on="0"/>
        <pt x="145" y="844" on="0"/>
        <pt x="103" y="874" on="0"/>
        <pt x="77" y="903" on="0"/>
        <pt x="77" y="915" on="1"/>
        <pt x="77" y="934" on="0"/>
        <pt x="101" y="952" on="0"/>
        <pt x="118" y="952" on="1"/>
        <pt x="137" y="952" on="0"/>
        <pt x="210" y="920" on="0"/>
        <pt x="283" y="874" on="0"/>
        <pt x="338" y="824" on="0"/>
        <pt x="340" y="805" on="1"/>
        <pt x="340" y="790" on="0"/>
        <pt x="320" y="781" on="0"/>
      </contour>
    </TTGlyph>
    <TTGlyph name="V" xMin="20" yMin="-6" xMax="544" yMax="700">
      <contour>
        <pt x="333" y="40" on="1"/>
        <pt x="320" y="16" on="0"/>
        <pt x="299" y="-6" on="0"/>
        <pt x="283" y="-6" on="1"/>
        <pt x="267" y="-6" on="0"/>
        <pt x="243" y="16" on="0"/>
        <pt x="229" y="39" on="1"/>
        <pt x="211" y="69" on="0"/>
        <pt x="166" y="175" on="0"/>
        <pt x="120" y="300" on="0"/>
        <pt x="76" y="434" on="0"/>
        <pt x="41" y="552" on="0"/>
        <pt x="20" y="641" on="0"/>
        <pt x="20" y="660" on="1"/>
        <pt x="20" y="680" on="0"/>
        <pt x="36" y="700" on="0"/>
        <pt x="59" y="700" on="1"/>
        <pt x="72" y="700" on="0"/>
        <pt x="91" y="687" on="0"/>
        <pt x="106" y="657" on="1"/>
        <pt x="118" y="634" on="0"/>
        <pt x="146" y="560" on="0"/>
        <pt x="177" y="470" on="0"/>
        <pt x="209" y="371" on="0"/>
        <pt x="241" y="273" on="0"/>
        <pt x="269" y="183" on="0"/>
        <pt x="281" y="147" on="1"/>
        <pt x="293" y="184" on="0"/>
        <pt x="323" y="275" on="0"/>
        <pt x="355" y="372" on="0"/>
        <pt x="387" y="471" on="0"/>
        <pt x="419" y="559" on="0"/>
        <pt x="447" y="633" on="0"/>
        <pt x="458" y="657" on="1"/>
        <pt x="472" y="686" on="0"/>
        <pt x="493" y="700" on="0"/>
        <pt x="504" y="700" on="1"/>
        <pt x="527" y="700" on="0"/>
        <pt x="544" y="677" on="0"/>
        <pt x="544" y="655" on="1"/>
        <pt x="544" y="635" on="0"/>
        <pt x="532" y="579" on="0"/>
        <pt x="503" y="486" on="0"/>
        <pt x="455" y="348" on="0"/>
        <pt x="420" y="248" on="1"/>
        <pt x="411" y="221" on="0"/>
        <pt x="388" y="163" on="0"/>
        <pt x="365" y="108" on="0"/>
        <pt x="343" y="58" on="0"/>
      </contour>
    </TTGlyph>
    <TTGlyph name="W" xMin="25" yMin="0" xMax="735" yMax="705">
      <contour>
        <pt x="334" y="510" on="1"/>
        <pt x="340" y="524" on="0"/>
        <pt x="365" y="542" on="0"/>
        <pt x="379" y="542" on="1"/>
        <pt x="392" y="542" on="0"/>
        <pt x="416" y="525" on="0"/>
        <pt x="423" y="511" on="1"/>
        <pt x="461" y="433" on="0"/>
        <pt x="535" y="252" on="0"/>
        <pt x="565" y="171" on="1"/>
        <pt x="582" y="295" on="0"/>
        <pt x="622" y="547" on="0"/>
        <pt x="647" y="662" on="1"/>
        <pt x="650" y="675" on="0"/>
        <pt x="662" y="692" on="0"/>
        <pt x="676" y="701" on="0"/>
        <pt x="691" y="705" on="0"/>
        <pt x="696" y="705" on="1"/>
        <pt x="713" y="705" on="0"/>
        <pt x="735" y="686" on="0"/>
        <pt x="735" y="670" on="1"/>
        <pt x="735" y="652" on="0"/>
        <pt x="723" y="561" on="0"/>
        <pt x="703" y="440" on="0"/>
        <pt x="678" y="304" on="0"/>
        <pt x="654" y="178" on="0"/>
        <pt x="632" y="74" on="0"/>
        <pt x="625" y="47" on="1"/>
        <pt x="619" y="24" on="0"/>
        <pt x="595" y="1" on="0"/>
        <pt x="572" y="1" on="1"/>
        <pt x="548" y="1" on="0"/>
        <pt x="515" y="44" on="0"/>
        <pt x="476" y="136" on="0"/>
        <pt x="422" y="279" on="0"/>
        <pt x="379" y="379" on="1"/>
        <pt x="335" y="279" on="0"/>
        <pt x="280" y="135" on="0"/>
        <pt x="241" y="43" on="0"/>
        <pt x="207" y="0" on="0"/>
        <pt x="184" y="0" on="1"/>
        <pt x="144" y="0" on="0"/>
        <pt x="131" y="46" on="1"/>
        <pt x="123" y="73" on="0"/>
        <pt x="101" y="176" on="0"/>
        <pt x="78" y="302" on="0"/>
        <pt x="54" y="437" on="0"/>
        <pt x="36" y="557" on="0"/>
        <pt x="25" y="648" on="0"/>
        <pt x="25" y="666" on="1"/>
        <pt x="25" y="683" on="0"/>
        <pt x="47" y="705" on="0"/>
        <pt x="67" y="705" on="1"/>
        <pt x="81" y="705" on="0"/>
        <pt x="107" y="688" on="0"/>
        <pt x="113" y="662" on="1"/>
        <pt x="137" y="547" on="0"/>
        <pt x="174" y="295" on="0"/>
        <pt x="195" y="171" on="1"/>
        <pt x="226" y="244" on="0"/>
        <pt x="288" y="408" on="0"/>
      </contour>
    </TTGlyph>
    <TTGlyph name="X" xMin="30" yMin="-13" xMax="558" yMax="699">
      <contour>
        <pt x="294" y="263" on="1"/>
        <pt x="145" y="32" on="1"/>
        <pt x="131" y="10" on="0"/>
        <pt x="98" y="-13" on="0"/>
        <pt x="77" y="-13" on="1"/>
        <pt x="51" y="-13" on="0"/>
        <pt x="30" y="12" on="0"/>
        <pt x="30" y="31" on="1"/>
        <pt x="30" y="42" on="0"/>
        <pt x="39" y="66" on="0"/>
        <pt x="47" y="77" on="1"/>
        <pt x="233" y="343" on="1"/>
        <pt x="47" y="609" on="1"/>
        <pt x="39" y="620" on="0"/>
        <pt x="30" y="644" on="0"/>
        <pt x="30" y="655" on="1"/>
        <pt x="30" y="674" on="0"/>
        <pt x="51" y="699" on="0"/>
        <pt x="77" y="699" on="1"/>
        <pt x="98" y="699" on="0"/>
        <pt x="131" y="676" on="0"/>
        <pt x="145" y="654" on="1"/>
        <pt x="294" y="423" on="1"/>
        <pt x="443" y="654" on="1"/>
        <pt x="457" y="676" on="0"/>
        <pt x="490" y="699" on="0"/>
        <pt x="511" y="699" on="1"/>
        <pt x="537" y="699" on="0"/>
        <pt x="558" y="674" on="0"/>
        <pt x="558" y="655" on="1"/>
        <pt x="558" y="644" on="0"/>
        <pt x="549" y="620" on="0"/>
        <pt x="541" y="609" on="1"/>
        <pt x="355" y="343" on="1"/>
        <pt x="541" y="77" on="1"/>
        <pt x="549" y="66" on="0"/>
        <pt x="558" y="42" on="0"/>
        <pt x="558" y="31" on="1"/>
        <pt x="558" y="12" on="0"/>
        <pt x="537" y="-13" on="0"/>
        <pt x="511" y="-13" on="1"/>
        <pt x="490" y="-13" on="0"/>
        <pt x="457" y="10" on="0"/>
        <pt x="443" y="32" on="1"/>
      </contour>
    </TTGlyph>
    <TTGlyph name="Y" xMin="20" yMin="-4" xMax="548" yMax="699">
      <contour>
        <pt x="241" y="62" on="1"/>
        <pt x="239" y="117" on="0"/>
        <pt x="236" y="242" on="0"/>
        <pt x="236" y="324" on="1"/>
        <pt x="37" y="609" on="1"/>
        <pt x="29" y="620" on="0"/>
        <pt x="20" y="644" on="0"/>
        <pt x="20" y="655" on="1"/>
        <pt x="20" y="674" on="0"/>
        <pt x="41" y="699" on="0"/>
        <pt x="67" y="699" on="1"/>
        <pt x="88" y="699" on="0"/>
        <pt x="121" y="676" on="0"/>
        <pt x="135" y="654" on="1"/>
        <pt x="284" y="417" on="1"/>
        <pt x="433" y="654" on="1"/>
        <pt x="447" y="676" on="0"/>
        <pt x="480" y="699" on="0"/>
        <pt x="501" y="699" on="1"/>
        <pt x="527" y="699" on="0"/>
        <pt x="548" y="674" on="0"/>
        <pt x="548" y="655" on="1"/>
        <pt x="548" y="644" on="0"/>
        <pt x="539" y="620" on="0"/>
        <pt x="531" y="609" on="1"/>
        <pt x="336" y="330" on="1"/>
        <pt x="336" y="262" on="0"/>
        <pt x="333" y="137" on="0"/>
        <pt x="330" y="63" on="1"/>
        <pt x="329" y="39" on="0"/>
        <pt x="322" y="13" on="0"/>
        <pt x="310" y="-1" on="0"/>
        <pt x="295" y="-4" on="0"/>
        <pt x="285" y="-4" on="1"/>
        <pt x="267" y="-4" on="0"/>
        <pt x="243" y="21" on="0"/>
      </contour>
    </TTGlyph>
    <TTGlyph name="Yacute" xMin="20" yMin="-4" xMax="548" yMax="951">
      <contour>
        <pt x="241" y="62" on="1"/>
        <pt x="239" y="117" on="0"/>
        <pt x="236" y="242" on="0"/>
        <pt x="236" y="324" on="1"/>
        <pt x="37" y="609" on="1"/>
        <pt x="29" y="620" on="0"/>
        <pt x="20" y="644" on="0"/>
        <pt x="20" y="655" on="1"/>
        <pt x="20" y="674" on="0"/>
        <pt x="41" y="699" on="0"/>
        <pt x="67" y="699" on="1"/>
        <pt x="88" y="699" on="0"/>
        <pt x="121" y="676" on="0"/>
        <pt x="135" y="654" on="1"/>
        <pt x="284" y="417" on="1"/>
        <pt x="433" y="654" on="1"/>
        <pt x="447" y="676" on="0"/>
        <pt x="480" y="699" on="0"/>
        <pt x="501" y="699" on="1"/>
        <pt x="527" y="699" on="0"/>
        <pt x="548" y="674" on="0"/>
        <pt x="548" y="655" on="1"/>
        <pt x="548" y="644" on="0"/>
        <pt x="539" y="620" on="0"/>
        <pt x="531" y="609" on="1"/>
        <pt x="336" y="330" on="1"/>
        <pt x="336" y="262" on="0"/>
        <pt x="333" y="137" on="0"/>
        <pt x="330" y="63" on="1"/>
        <pt x="329" y="39" on="0"/>
        <pt x="322" y="13" on="0"/>
        <pt x="310" y="-1" on="0"/>
        <pt x="295" y="-4" on="0"/>
        <pt x="285" y="-4" on="1"/>
        <pt x="267" y="-4" on="0"/>
        <pt x="243" y="21" on="0"/>
      </contour>
      <contour>
        <pt x="235" y="776" on="1"/>
        <pt x="224" y="778" on="0"/>
        <pt x="203" y="789" on="0"/>
        <pt x="203" y="804" on="1"/>
        <pt x="204" y="816" on="0"/>
        <pt x="231" y="848" on="0"/>
        <pt x="271" y="881" on="0"/>
        <pt x="321" y="912" on="0"/>
        <pt x="370" y="936" on="0"/>
        <pt x="412" y="951" on="0"/>
        <pt x="425" y="951" on="1"/>
        <pt x="442" y="951" on="0"/>
        <pt x="467" y="931" on="0"/>
        <pt x="467" y="912" on="1"/>
        <pt x="467" y="900" on="0"/>
        <pt x="441" y="871" on="0"/>
        <pt x="399" y="841" on="0"/>
        <pt x="347" y="812" on="0"/>
        <pt x="296" y="790" on="0"/>
        <pt x="250" y="776" on="0"/>
      </contour>
    </TTGlyph>
    <TTGlyph name="Ydieresis" xMin="20" yMin="-4" xMax="548" yMax="931">
      <contour>
        <pt x="241" y="62" on="1"/>
        <pt x="239" y="117" on="0"/>
        <pt x="236" y="242" on="0"/>
        <pt x="236" y="324" on="1"/>
        <pt x="37" y="609" on="1"/>
        <pt x="29" y="620" on="0"/>
        <pt x="20" y="644" on="0"/>
        <pt x="20" y="655" on="1"/>
        <pt x="20" y="674" on="0"/>
        <pt x="41" y="699" on="0"/>
        <pt x="67" y="699" on="1"/>
        <pt x="88" y="699" on="0"/>
        <pt x="121" y="676" on="0"/>
        <pt x="135" y="654" on="1"/>
        <pt x="284" y="417" on="1"/>
        <pt x="433" y="654" on="1"/>
        <pt x="447" y="676" on="0"/>
        <pt x="480" y="699" on="0"/>
        <pt x="501" y="699" on="1"/>
        <pt x="527" y="699" on="0"/>
        <pt x="548" y="674" on="0"/>
        <pt x="548" y="655" on="1"/>
        <pt x="548" y="644" on="0"/>
        <pt x="539" y="620" on="0"/>
        <pt x="531" y="609" on="1"/>
        <pt x="336" y="330" on="1"/>
        <pt x="336" y="262" on="0"/>
        <pt x="333" y="137" on="0"/>
        <pt x="330" y="63" on="1"/>
        <pt x="329" y="39" on="0"/>
        <pt x="322" y="13" on="0"/>
        <pt x="310" y="-1" on="0"/>
        <pt x="295" y="-4" on="0"/>
        <pt x="285" y="-4" on="1"/>
        <pt x="267" y="-4" on="0"/>
        <pt x="243" y="21" on="0"/>
      </contour>
      <contour>
        <pt x="194" y="931" on="1"/>
        <pt x="217" y="931" on="0"/>
        <pt x="256" y="895" on="0"/>
        <pt x="256" y="870" on="1"/>
        <pt x="256" y="846" on="0"/>
        <pt x="216" y="811" on="0"/>
        <pt x="191" y="811" on="1"/>
        <pt x="170" y="811" on="0"/>
        <pt x="133" y="846" on="0"/>
        <pt x="133" y="872" on="1"/>
        <pt x="133" y="896" on="0"/>
        <pt x="170" y="931" on="0"/>
      </contour>
      <contour>
        <pt x="374" y="931" on="1"/>
        <pt x="397" y="931" on="0"/>
        <pt x="436" y="895" on="0"/>
        <pt x="436" y="870" on="1"/>
        <pt x="436" y="846" on="0"/>
        <pt x="396" y="811" on="0"/>
        <pt x="371" y="811" on="1"/>
        <pt x="350" y="811" on="0"/>
        <pt x="313" y="846" on="0"/>
        <pt x="313" y="872" on="1"/>
        <pt x="313" y="896" on="0"/>
        <pt x="350" y="931" on="0"/>
      </contour>
    </TTGlyph>
    <TTGlyph name="Z" xMin="30" yMin="-7" xMax="497" yMax="699">
      <contour>
        <pt x="431" y="2" on="1"/>
        <pt x="413" y="0" on="0"/>
        <pt x="360" y="-3" on="0"/>
        <pt x="299" y="-5" on="0"/>
        <pt x="232" y="-7" on="0"/>
        <pt x="201" y="-7" on="1"/>
        <pt x="147" y="-7" on="0"/>
        <pt x="80" y="-5" on="0"/>
        <pt x="43" y="2" on="0"/>
        <pt x="30" y="16" on="0"/>
        <pt x="30" y="28" on="1"/>
        <pt x="30" y="50" on="0"/>
        <pt x="54" y="109" on="0"/>
        <pt x="87" y="169" on="0"/>
        <pt x="121" y="222" on="0"/>
        <pt x="130" y="237" on="1"/>
        <pt x="352" y="598" on="1"/>
        <pt x="333" y="598" on="0"/>
        <pt x="320" y="597" on="0"/>
        <pt x="301" y="596" on="0"/>
        <pt x="262" y="596" on="0"/>
        <pt x="219" y="596" on="1"/>
        <pt x="157" y="596" on="0"/>
        <pt x="84" y="599" on="0"/>
        <pt x="47" y="609" on="0"/>
        <pt x="36" y="627" on="0"/>
        <pt x="36" y="643" on="1"/>
        <pt x="36" y="668" on="0"/>
        <pt x="60" y="689" on="0"/>
        <pt x="99" y="693" on="1"/>
        <pt x="115" y="694" on="0"/>
        <pt x="155" y="697" on="0"/>
        <pt x="198" y="698" on="0"/>
        <pt x="240" y="699" on="0"/>
        <pt x="258" y="699" on="1"/>
        <pt x="276" y="699" on="0"/>
        <pt x="309" y="698" on="0"/>
        <pt x="344" y="697" on="0"/>
        <pt x="384" y="695" on="0"/>
        <pt x="410" y="694" on="1"/>
        <pt x="418" y="694" on="0"/>
        <pt x="443" y="691" on="0"/>
        <pt x="466" y="685" on="0"/>
        <pt x="482" y="672" on="0"/>
        <pt x="482" y="661" on="1"/>
        <pt x="482" y="643" on="0"/>
        <pt x="449" y="570" on="0"/>
        <pt x="394" y="475" on="0"/>
        <pt x="323" y="364" on="0"/>
        <pt x="249" y="249" on="0"/>
        <pt x="177" y="137" on="0"/>
        <pt x="148" y="89" on="1"/>
        <pt x="166" y="90" on="0"/>
        <pt x="235" y="91" on="0"/>
        <pt x="265" y="91" on="1"/>
        <pt x="294" y="91" on="0"/>
        <pt x="383" y="89" on="0"/>
        <pt x="430" y="85" on="1"/>
        <pt x="454" y="83" on="0"/>
        <pt x="480" y="77" on="0"/>
        <pt x="494" y="66" on="0"/>
        <pt x="497" y="50" on="0"/>
        <pt x="497" y="38" on="1"/>
        <pt x="497" y="30" on="0"/>
        <pt x="495" y="18" on="0"/>
        <pt x="483" y="9" on="0"/>
        <pt x="456" y="4" on="0"/>
      </contour>
    </TTGlyph>
    <TTGlyph name="Zcaron" xMin="30" yMin="-7" xMax="497" yMax="952">
      <contour>
        <pt x="431" y="2" on="1"/>
        <pt x="413" y="0" on="0"/>
        <pt x="360" y="-3" on="0"/>
        <pt x="299" y="-5" on="0"/>
        <pt x="232" y="-7" on="0"/>
        <pt x="201" y="-7" on="1"/>
        <pt x="147" y="-7" on="0"/>
        <pt x="80" y="-5" on="0"/>
        <pt x="43" y="2" on="0"/>
        <pt x="30" y="16" on="0"/>
        <pt x="30" y="28" on="1"/>
        <pt x="30" y="50" on="0"/>
        <pt x="54" y="109" on="0"/>
        <pt x="87" y="169" on="0"/>
        <pt x="121" y="222" on="0"/>
        <pt x="130" y="237" on="1"/>
        <pt x="352" y="598" on="1"/>
        <pt x="333" y="598" on="0"/>
        <pt x="320" y="597" on="0"/>
        <pt x="301" y="596" on="0"/>
        <pt x="262" y="596" on="0"/>
        <pt x="219" y="596" on="1"/>
        <pt x="157" y="596" on="0"/>
        <pt x="84" y="599" on="0"/>
        <pt x="47" y="609" on="0"/>
        <pt x="36" y="627" on="0"/>
        <pt x="36" y="643" on="1"/>
        <pt x="36" y="668" on="0"/>
        <pt x="60" y="689" on="0"/>
        <pt x="99" y="693" on="1"/>
        <pt x="115" y="694" on="0"/>
        <pt x="155" y="697" on="0"/>
        <pt x="198" y="698" on="0"/>
        <pt x="240" y="699" on="0"/>
        <pt x="258" y="699" on="1"/>
        <pt x="276" y="699" on="0"/>
        <pt x="309" y="698" on="0"/>
        <pt x="344" y="697" on="0"/>
        <pt x="384" y="695" on="0"/>
        <pt x="410" y="694" on="1"/>
        <pt x="418" y="694" on="0"/>
        <pt x="443" y="691" on="0"/>
        <pt x="466" y="685" on="0"/>
        <pt x="482" y="672" on="0"/>
        <pt x="482" y="661" on="1"/>
        <pt x="482" y="643" on="0"/>
        <pt x="449" y="570" on="0"/>
        <pt x="394" y="475" on="0"/>
        <pt x="323" y="364" on="0"/>
        <pt x="249" y="249" on="0"/>
        <pt x="177" y="137" on="0"/>
        <pt x="148" y="89" on="1"/>
        <pt x="166" y="90" on="0"/>
        <pt x="235" y="91" on="0"/>
        <pt x="265" y="91" on="1"/>
        <pt x="294" y="91" on="0"/>
        <pt x="383" y="89" on="0"/>
        <pt x="430" y="85" on="1"/>
        <pt x="454" y="83" on="0"/>
        <pt x="480" y="77" on="0"/>
        <pt x="494" y="66" on="0"/>
        <pt x="497" y="50" on="0"/>
        <pt x="497" y="38" on="1"/>
        <pt x="497" y="30" on="0"/>
        <pt x="495" y="18" on="0"/>
        <pt x="483" y="9" on="0"/>
        <pt x="456" y="4" on="0"/>
      </contour>
      <contour>
        <pt x="271" y="775" on="1"/>
        <pt x="260" y="775" on="0"/>
        <pt x="226" y="792" on="0"/>
        <pt x="188" y="817" on="0"/>
        <pt x="151" y="847" on="0"/>
        <pt x="138" y="861" on="1"/>
        <pt x="123" y="877" on="0"/>
        <pt x="112" y="902" on="0"/>
        <pt x="112" y="911" on="1"/>
        <pt x="112" y="928" on="0"/>
        <pt x="135" y="951" on="0"/>
        <pt x="153" y="951" on="1"/>
        <pt x="170" y="951" on="0"/>
        <pt x="215" y="922" on="0"/>
        <pt x="250" y="890" on="1"/>
        <pt x="271" y="871" on="1"/>
        <pt x="292" y="890" on="1"/>
        <pt x="327" y="922" on="0"/>
        <pt x="370" y="952" on="0"/>
        <pt x="387" y="952" on="1"/>
        <pt x="407" y="952" on="0"/>
        <pt x="428" y="926" on="0"/>
        <pt x="428" y="909" on="1"/>
        <pt x="428" y="896" on="0"/>
        <pt x="415" y="873" on="0"/>
        <pt x="404" y="861" on="1"/>
        <pt x="391" y="847" on="0"/>
        <pt x="354" y="817" on="0"/>
        <pt x="316" y="792" on="0"/>
        <pt x="281" y="775" on="0"/>
      </contour>
    </TTGlyph>
    <TTGlyph name="a" xMin="28" yMin="-9" xMax="517" yMax="516">
      <contour>
        <pt x="471" y="-4" on="1"/>
        <pt x="455" y="-4" on="0"/>
        <pt x="436" y="7" on="0"/>
        <pt x="426" y="25" on="0"/>
        <pt x="422" y="50" on="0"/>
        <pt x="421" y="64" on="1"/>
        <pt x="396" y="33" on="0"/>
        <pt x="317" y="-9" on="0"/>
        <pt x="256" y="-9" on="1"/>
        <pt x="217" y="-9" on="0"/>
        <pt x="136" y="14" on="0"/>
        <pt x="70" y="71" on="0"/>
        <pt x="28" y="167" on="0"/>
        <pt x="28" y="240" on="1"/>
        <pt x="28" y="297" on="0"/>
        <pt x="56" y="397" on="0"/>
        <pt x="113" y="472" on="0"/>
        <pt x="199" y="516" on="0"/>
        <pt x="257" y="516" on="1"/>
        <pt x="308" y="516" on="0"/>
        <pt x="388" y="479" on="0"/>
        <pt x="420" y="437" on="1"/>
        <pt x="420" y="449" on="0"/>
        <pt x="422" y="474" on="0"/>
        <pt x="431" y="495" on="0"/>
        <pt x="451" y="508" on="0"/>
        <pt x="468" y="508" on="1"/>
        <pt x="483" y="508" on="0"/>
        <pt x="509" y="484" on="0"/>
        <pt x="511" y="444" on="1"/>
        <pt x="514" y="391" on="0"/>
        <pt x="517" y="307" on="0"/>
        <pt x="517" y="262" on="1"/>
        <pt x="517" y="207" on="0"/>
        <pt x="515" y="115" on="0"/>
        <pt x="511" y="63" on="1"/>
        <pt x="509" y="40" on="0"/>
        <pt x="502" y="13" on="0"/>
        <pt x="492" y="0" on="0"/>
        <pt x="478" y="-4" on="0"/>
      </contour>
      <contour>
        <pt x="417" y="250" on="1"/>
        <pt x="417" y="302" on="0"/>
        <pt x="386" y="368" on="0"/>
        <pt x="339" y="405" on="0"/>
        <pt x="285" y="419" on="0"/>
        <pt x="262" y="419" on="1"/>
        <pt x="226" y="419" on="0"/>
        <pt x="175" y="393" on="0"/>
        <pt x="143" y="348" on="0"/>
        <pt x="128" y="287" on="0"/>
        <pt x="128" y="251" on="1"/>
        <pt x="128" y="163" on="0"/>
        <pt x="205" y="79" on="0"/>
        <pt x="271" y="79" on="1"/>
        <pt x="310" y="79" on="0"/>
        <pt x="365" y="106" on="0"/>
        <pt x="400" y="152" on="0"/>
        <pt x="417" y="215" on="0"/>
      </contour>
    </TTGlyph>
    <TTGlyph name="aacute" xMin="28" yMin="-9" xMax="517" yMax="760">
      <contour>
        <pt x="471" y="-4" on="1"/>
        <pt x="455" y="-4" on="0"/>
        <pt x="436" y="7" on="0"/>
        <pt x="426" y="25" on="0"/>
        <pt x="422" y="50" on="0"/>
        <pt x="421" y="64" on="1"/>
        <pt x="396" y="33" on="0"/>
        <pt x="317" y="-9" on="0"/>
        <pt x="256" y="-9" on="1"/>
        <pt x="217" y="-9" on="0"/>
        <pt x="136" y="14" on="0"/>
        <pt x="70" y="71" on="0"/>
        <pt x="28" y="167" on="0"/>
        <pt x="28" y="240" on="1"/>
        <pt x="28" y="297" on="0"/>
        <pt x="56" y="397" on="0"/>
        <pt x="113" y="472" on="0"/>
        <pt x="199" y="516" on="0"/>
        <pt x="257" y="516" on="1"/>
        <pt x="308" y="516" on="0"/>
        <pt x="388" y="479" on="0"/>
        <pt x="420" y="437" on="1"/>
        <pt x="420" y="449" on="0"/>
        <pt x="422" y="474" on="0"/>
        <pt x="431" y="495" on="0"/>
        <pt x="451" y="508" on="0"/>
        <pt x="468" y="508" on="1"/>
        <pt x="483" y="508" on="0"/>
        <pt x="509" y="484" on="0"/>
        <pt x="511" y="444" on="1"/>
        <pt x="514" y="391" on="0"/>
        <pt x="517" y="307" on="0"/>
        <pt x="517" y="262" on="1"/>
        <pt x="517" y="207" on="0"/>
        <pt x="515" y="115" on="0"/>
        <pt x="511" y="63" on="1"/>
        <pt x="509" y="40" on="0"/>
        <pt x="502" y="13" on="0"/>
        <pt x="492" y="0" on="0"/>
        <pt x="478" y="-4" on="0"/>
      </contour>
      <contour>
        <pt x="417" y="250" on="1"/>
        <pt x="417" y="302" on="0"/>
        <pt x="386" y="368" on="0"/>
        <pt x="339" y="405" on="0"/>
        <pt x="285" y="419" on="0"/>
        <pt x="262" y="419" on="1"/>
        <pt x="226" y="419" on="0"/>
        <pt x="175" y="393" on="0"/>
        <pt x="143" y="348" on="0"/>
        <pt x="128" y="287" on="0"/>
        <pt x="128" y="251" on="1"/>
        <pt x="128" y="163" on="0"/>
        <pt x="205" y="79" on="0"/>
        <pt x="271" y="79" on="1"/>
        <pt x="310" y="79" on="0"/>
        <pt x="365" y="106" on="0"/>
        <pt x="400" y="152" on="0"/>
        <pt x="417" y="215" on="0"/>
      </contour>
      <contour>
        <pt x="194" y="585" on="1"/>
        <pt x="183" y="587" on="0"/>
        <pt x="162" y="598" on="0"/>
        <pt x="162" y="613" on="1"/>
        <pt x="163" y="625" on="0"/>
        <pt x="190" y="657" on="0"/>
        <pt x="230" y="690" on="0"/>
        <pt x="280" y="721" on="0"/>
        <pt x="329" y="745" on="0"/>
        <pt x="371" y="760" on="0"/>
        <pt x="384" y="760" on="1"/>
        <pt x="401" y="760" on="0"/>
        <pt x="426" y="740" on="0"/>
        <pt x="426" y="721" on="1"/>
        <pt x="426" y="709" on="0"/>
        <pt x="400" y="680" on="0"/>
        <pt x="358" y="650" on="0"/>
        <pt x="306" y="621" on="0"/>
        <pt x="255" y="599" on="0"/>
        <pt x="209" y="585" on="0"/>
      </contour>
    </TTGlyph>
    <TTGlyph name="acircumflex" xMin="28" yMin="-9" xMax="517" yMax="760">
      <contour>
        <pt x="471" y="-4" on="1"/>
        <pt x="455" y="-4" on="0"/>
        <pt x="436" y="7" on="0"/>
        <pt x="426" y="25" on="0"/>
        <pt x="422" y="50" on="0"/>
        <pt x="421" y="64" on="1"/>
        <pt x="396" y="33" on="0"/>
        <pt x="317" y="-9" on="0"/>
        <pt x="256" y="-9" on="1"/>
        <pt x="217" y="-9" on="0"/>
        <pt x="136" y="14" on="0"/>
        <pt x="70" y="71" on="0"/>
        <pt x="28" y="167" on="0"/>
        <pt x="28" y="240" on="1"/>
        <pt x="28" y="297" on="0"/>
        <pt x="56" y="397" on="0"/>
        <pt x="113" y="472" on="0"/>
        <pt x="199" y="516" on="0"/>
        <pt x="257" y="516" on="1"/>
        <pt x="308" y="516" on="0"/>
        <pt x="388" y="479" on="0"/>
        <pt x="420" y="437" on="1"/>
        <pt x="420" y="449" on="0"/>
        <pt x="422" y="474" on="0"/>
        <pt x="431" y="495" on="0"/>
        <pt x="451" y="508" on="0"/>
        <pt x="468" y="508" on="1"/>
        <pt x="483" y="508" on="0"/>
        <pt x="509" y="484" on="0"/>
        <pt x="511" y="444" on="1"/>
        <pt x="514" y="391" on="0"/>
        <pt x="517" y="307" on="0"/>
        <pt x="517" y="262" on="1"/>
        <pt x="517" y="207" on="0"/>
        <pt x="515" y="115" on="0"/>
        <pt x="511" y="63" on="1"/>
        <pt x="509" y="40" on="0"/>
        <pt x="502" y="13" on="0"/>
        <pt x="492" y="0" on="0"/>
        <pt x="478" y="-4" on="0"/>
      </contour>
      <contour>
        <pt x="417" y="250" on="1"/>
        <pt x="417" y="302" on="0"/>
        <pt x="386" y="368" on="0"/>
        <pt x="339" y="405" on="0"/>
        <pt x="285" y="419" on="0"/>
        <pt x="262" y="419" on="1"/>
        <pt x="226" y="419" on="0"/>
        <pt x="175" y="393" on="0"/>
        <pt x="143" y="348" on="0"/>
        <pt x="128" y="287" on="0"/>
        <pt x="128" y="251" on="1"/>
        <pt x="128" y="163" on="0"/>
        <pt x="205" y="79" on="0"/>
        <pt x="271" y="79" on="1"/>
        <pt x="310" y="79" on="0"/>
        <pt x="365" y="106" on="0"/>
        <pt x="400" y="152" on="0"/>
        <pt x="417" y="215" on="0"/>
      </contour>
      <contour>
        <pt x="281" y="760" on="1"/>
        <pt x="291" y="760" on="0"/>
        <pt x="326" y="743" on="0"/>
        <pt x="364" y="718" on="0"/>
        <pt x="401" y="687" on="0"/>
        <pt x="414" y="674" on="1"/>
        <pt x="425" y="662" on="0"/>
        <pt x="438" y="639" on="0"/>
        <pt x="438" y="626" on="1"/>
        <pt x="438" y="609" on="0"/>
        <pt x="417" y="583" on="0"/>
        <pt x="397" y="583" on="1"/>
        <pt x="380" y="583" on="0"/>
        <pt x="337" y="613" on="0"/>
        <pt x="302" y="645" on="1"/>
        <pt x="281" y="664" on="1"/>
        <pt x="260" y="645" on="1"/>
        <pt x="225" y="613" on="0"/>
        <pt x="180" y="584" on="0"/>
        <pt x="163" y="584" on="1"/>
        <pt x="145" y="584" on="0"/>
        <pt x="122" y="607" on="0"/>
        <pt x="122" y="624" on="1"/>
        <pt x="122" y="633" on="0"/>
        <pt x="133" y="658" on="0"/>
        <pt x="148" y="674" on="1"/>
        <pt x="161" y="687" on="0"/>
        <pt x="198" y="718" on="0"/>
        <pt x="236" y="743" on="0"/>
        <pt x="270" y="760" on="0"/>
      </contour>
    </TTGlyph>
    <TTGlyph name="acute" xMin="31" yMin="575" xMax="295" yMax="750">
      <contour>
        <pt x="63" y="575" on="1"/>
        <pt x="52" y="577" on="0"/>
        <pt x="31" y="588" on="0"/>
        <pt x="31" y="603" on="1"/>
        <pt x="32" y="615" on="0"/>
        <pt x="59" y="647" on="0"/>
        <pt x="99" y="680" on="0"/>
        <pt x="149" y="711" on="0"/>
        <pt x="198" y="735" on="0"/>
        <pt x="240" y="750" on="0"/>
        <pt x="253" y="750" on="1"/>
        <pt x="270" y="750" on="0"/>
        <pt x="295" y="730" on="0"/>
        <pt x="295" y="711" on="1"/>
        <pt x="295" y="699" on="0"/>
        <pt x="269" y="670" on="0"/>
        <pt x="227" y="640" on="0"/>
        <pt x="175" y="611" on="0"/>
        <pt x="124" y="589" on="0"/>
        <pt x="78" y="575" on="0"/>
      </contour>
    </TTGlyph>
    <TTGlyph name="adieresis" xMin="28" yMin="-9" xMax="517" yMax="751">
      <contour>
        <pt x="471" y="-4" on="1"/>
        <pt x="455" y="-4" on="0"/>
        <pt x="436" y="7" on="0"/>
        <pt x="426" y="25" on="0"/>
        <pt x="422" y="50" on="0"/>
        <pt x="421" y="64" on="1"/>
        <pt x="396" y="33" on="0"/>
        <pt x="317" y="-9" on="0"/>
        <pt x="256" y="-9" on="1"/>
        <pt x="217" y="-9" on="0"/>
        <pt x="136" y="14" on="0"/>
        <pt x="70" y="71" on="0"/>
        <pt x="28" y="167" on="0"/>
        <pt x="28" y="240" on="1"/>
        <pt x="28" y="297" on="0"/>
        <pt x="56" y="397" on="0"/>
        <pt x="113" y="472" on="0"/>
        <pt x="199" y="516" on="0"/>
        <pt x="257" y="516" on="1"/>
        <pt x="308" y="516" on="0"/>
        <pt x="388" y="479" on="0"/>
        <pt x="420" y="437" on="1"/>
        <pt x="420" y="449" on="0"/>
        <pt x="422" y="474" on="0"/>
        <pt x="431" y="495" on="0"/>
        <pt x="451" y="508" on="0"/>
        <pt x="468" y="508" on="1"/>
        <pt x="483" y="508" on="0"/>
        <pt x="509" y="484" on="0"/>
        <pt x="511" y="444" on="1"/>
        <pt x="514" y="391" on="0"/>
        <pt x="517" y="307" on="0"/>
        <pt x="517" y="262" on="1"/>
        <pt x="517" y="207" on="0"/>
        <pt x="515" y="115" on="0"/>
        <pt x="511" y="63" on="1"/>
        <pt x="509" y="40" on="0"/>
        <pt x="502" y="13" on="0"/>
        <pt x="492" y="0" on="0"/>
        <pt x="478" y="-4" on="0"/>
      </contour>
      <contour>
        <pt x="417" y="250" on="1"/>
        <pt x="417" y="302" on="0"/>
        <pt x="386" y="368" on="0"/>
        <pt x="339" y="405" on="0"/>
        <pt x="285" y="419" on="0"/>
        <pt x="262" y="419" on="1"/>
        <pt x="226" y="419" on="0"/>
        <pt x="175" y="393" on="0"/>
        <pt x="143" y="348" on="0"/>
        <pt x="128" y="287" on="0"/>
        <pt x="128" y="251" on="1"/>
        <pt x="128" y="163" on="0"/>
        <pt x="205" y="79" on="0"/>
        <pt x="271" y="79" on="1"/>
        <pt x="310" y="79" on="0"/>
        <pt x="365" y="106" on="0"/>
        <pt x="400" y="152" on="0"/>
        <pt x="417" y="215" on="0"/>
      </contour>
      <contour>
        <pt x="198" y="751" on="1"/>
        <pt x="221" y="751" on="0"/>
        <pt x="260" y="715" on="0"/>
        <pt x="260" y="690" on="1"/>
        <pt x="260" y="666" on="0"/>
        <pt x="220" y="631" on="0"/>
        <pt x="195" y="631" on="1"/>
        <pt x="174" y="631" on="0"/>
        <pt x="137" y="666" on="0"/>
        <pt x="137" y="692" on="1"/>
        <pt x="137" y="716" on="0"/>
        <pt x="174" y="751" on="0"/>
      </contour>
      <contour>
        <pt x="378" y="751" on="1"/>
        <pt x="401" y="751" on="0"/>
        <pt x="440" y="715" on="0"/>
        <pt x="440" y="690" on="1"/>
        <pt x="440" y="666" on="0"/>
        <pt x="400" y="631" on="0"/>
        <pt x="375" y="631" on="1"/>
        <pt x="354" y="631" on="0"/>
        <pt x="317" y="666" on="0"/>
        <pt x="317" y="692" on="1"/>
        <pt x="317" y="716" on="0"/>
        <pt x="354" y="751" on="0"/>
      </contour>
    </TTGlyph>
    <TTGlyph name="ae" xMin="28" yMin="-9" xMax="879" yMax="516">
      <contour>
        <pt x="471" y="-4" on="1"/>
        <pt x="455" y="-4" on="0"/>
        <pt x="436" y="7" on="0"/>
        <pt x="426" y="25" on="0"/>
        <pt x="422" y="50" on="0"/>
        <pt x="421" y="64" on="1"/>
        <pt x="396" y="33" on="0"/>
        <pt x="317" y="-9" on="0"/>
        <pt x="256" y="-9" on="1"/>
        <pt x="217" y="-9" on="0"/>
        <pt x="136" y="14" on="0"/>
        <pt x="70" y="71" on="0"/>
        <pt x="28" y="167" on="0"/>
        <pt x="28" y="240" on="1"/>
        <pt x="28" y="297" on="0"/>
        <pt x="56" y="397" on="0"/>
        <pt x="113" y="472" on="0"/>
        <pt x="199" y="516" on="0"/>
        <pt x="257" y="516" on="1"/>
        <pt x="308" y="516" on="0"/>
        <pt x="388" y="479" on="0"/>
        <pt x="420" y="437" on="1"/>
        <pt x="420" y="449" on="0"/>
        <pt x="422" y="474" on="0"/>
        <pt x="431" y="495" on="0"/>
        <pt x="451" y="508" on="0"/>
        <pt x="468" y="508" on="1"/>
        <pt x="482" y="508" on="0"/>
        <pt x="505" y="489" on="0"/>
        <pt x="509" y="457" on="1"/>
        <pt x="563" y="508" on="0"/>
        <pt x="660" y="508" on="1"/>
        <pt x="702" y="508" on="0"/>
        <pt x="781" y="486" on="0"/>
        <pt x="842" y="442" on="0"/>
        <pt x="879" y="375" on="0"/>
        <pt x="879" y="330" on="1"/>
        <pt x="879" y="290" on="0"/>
        <pt x="849" y="234" on="0"/>
        <pt x="794" y="200" on="0"/>
        <pt x="717" y="184" on="0"/>
        <pt x="670" y="184" on="1"/>
        <pt x="635" y="184" on="0"/>
        <pt x="558" y="195" on="0"/>
        <pt x="513" y="213" on="1"/>
        <pt x="522" y="152" on="0"/>
        <pt x="605" y="90" on="0"/>
        <pt x="683" y="90" on="1"/>
        <pt x="711" y="90" on="0"/>
        <pt x="756" y="97" on="0"/>
        <pt x="790" y="106" on="0"/>
        <pt x="816" y="113" on="0"/>
        <pt x="827" y="113" on="1"/>
        <pt x="841" y="113" on="0"/>
        <pt x="867" y="96" on="0"/>
        <pt x="867" y="76" on="1"/>
        <pt x="867" y="51" on="0"/>
        <pt x="826" y="19" on="0"/>
        <pt x="767" y="0" on="0"/>
        <pt x="701" y="-7" on="0"/>
        <pt x="676" y="-7" on="1"/>
        <pt x="611" y="-7" on="0"/>
        <pt x="535" y="21" on="0"/>
        <pt x="509" y="47" on="1"/>
        <pt x="507" y="30" on="0"/>
        <pt x="500" y="9" on="0"/>
        <pt x="490" y="-1" on="0"/>
        <pt x="478" y="-4" on="0"/>
      </contour>
      <contour>
        <pt x="417" y="250" on="1"/>
        <pt x="417" y="302" on="0"/>
        <pt x="386" y="368" on="0"/>
        <pt x="339" y="405" on="0"/>
        <pt x="285" y="419" on="0"/>
        <pt x="262" y="419" on="1"/>
        <pt x="226" y="419" on="0"/>
        <pt x="175" y="393" on="0"/>
        <pt x="143" y="348" on="0"/>
        <pt x="128" y="287" on="0"/>
        <pt x="128" y="251" on="1"/>
        <pt x="128" y="163" on="0"/>
        <pt x="205" y="79" on="0"/>
        <pt x="271" y="79" on="1"/>
        <pt x="310" y="79" on="0"/>
        <pt x="365" y="106" on="0"/>
        <pt x="400" y="152" on="0"/>
        <pt x="417" y="215" on="0"/>
      </contour>
      <contour>
        <pt x="663" y="416" on="1"/>
        <pt x="636" y="416" on="0"/>
        <pt x="586" y="403" on="0"/>
        <pt x="545" y="374" on="0"/>
        <pt x="517" y="327" on="0"/>
        <pt x="512" y="292" on="1"/>
        <pt x="550" y="275" on="0"/>
        <pt x="622" y="262" on="0"/>
        <pt x="662" y="262" on="1"/>
        <pt x="721" y="262" on="0"/>
        <pt x="778" y="291" on="0"/>
        <pt x="778" y="329" on="1"/>
        <pt x="778" y="364" on="0"/>
        <pt x="725" y="416" on="0"/>
      </contour>
    </TTGlyph>
    <TTGlyph name="agrave" xMin="28" yMin="-9" xMax="517" yMax="757">
      <contour>
        <pt x="471" y="-4" on="1"/>
        <pt x="455" y="-4" on="0"/>
        <pt x="436" y="7" on="0"/>
        <pt x="426" y="25" on="0"/>
        <pt x="422" y="50" on="0"/>
        <pt x="421" y="64" on="1"/>
        <pt x="396" y="33" on="0"/>
        <pt x="317" y="-9" on="0"/>
        <pt x="256" y="-9" on="1"/>
        <pt x="217" y="-9" on="0"/>
        <pt x="136" y="14" on="0"/>
        <pt x="70" y="71" on="0"/>
        <pt x="28" y="167" on="0"/>
        <pt x="28" y="240" on="1"/>
        <pt x="28" y="297" on="0"/>
        <pt x="56" y="397" on="0"/>
        <pt x="113" y="472" on="0"/>
        <pt x="199" y="516" on="0"/>
        <pt x="257" y="516" on="1"/>
        <pt x="308" y="516" on="0"/>
        <pt x="388" y="479" on="0"/>
        <pt x="420" y="437" on="1"/>
        <pt x="420" y="449" on="0"/>
        <pt x="422" y="474" on="0"/>
        <pt x="431" y="495" on="0"/>
        <pt x="451" y="508" on="0"/>
        <pt x="468" y="508" on="1"/>
        <pt x="483" y="508" on="0"/>
        <pt x="509" y="484" on="0"/>
        <pt x="511" y="444" on="1"/>
        <pt x="514" y="391" on="0"/>
        <pt x="517" y="307" on="0"/>
        <pt x="517" y="262" on="1"/>
        <pt x="517" y="207" on="0"/>
        <pt x="515" y="115" on="0"/>
        <pt x="511" y="63" on="1"/>
        <pt x="509" y="40" on="0"/>
        <pt x="502" y="13" on="0"/>
        <pt x="492" y="0" on="0"/>
        <pt x="478" y="-4" on="0"/>
      </contour>
      <contour>
        <pt x="417" y="250" on="1"/>
        <pt x="417" y="302" on="0"/>
        <pt x="386" y="368" on="0"/>
        <pt x="339" y="405" on="0"/>
        <pt x="285" y="419" on="0"/>
        <pt x="262" y="419" on="1"/>
        <pt x="226" y="419" on="0"/>
        <pt x="175" y="393" on="0"/>
        <pt x="143" y="348" on="0"/>
        <pt x="128" y="287" on="0"/>
        <pt x="128" y="251" on="1"/>
        <pt x="128" y="163" on="0"/>
        <pt x="205" y="79" on="0"/>
        <pt x="271" y="79" on="1"/>
        <pt x="310" y="79" on="0"/>
        <pt x="365" y="106" on="0"/>
        <pt x="400" y="152" on="0"/>
        <pt x="417" y="215" on="0"/>
      </contour>
      <contour>
        <pt x="342" y="584" on="1"/>
        <pt x="327" y="584" on="0"/>
        <pt x="281" y="598" on="0"/>
        <pt x="230" y="620" on="0"/>
        <pt x="178" y="649" on="0"/>
        <pt x="136" y="679" on="0"/>
        <pt x="110" y="708" on="0"/>
        <pt x="110" y="720" on="1"/>
        <pt x="110" y="739" on="0"/>
        <pt x="134" y="757" on="0"/>
        <pt x="151" y="757" on="1"/>
        <pt x="170" y="757" on="0"/>
        <pt x="243" y="725" on="0"/>
        <pt x="316" y="679" on="0"/>
        <pt x="371" y="629" on="0"/>
        <pt x="373" y="610" on="1"/>
        <pt x="373" y="595" on="0"/>
        <pt x="353" y="586" on="0"/>
      </contour>
    </TTGlyph>
    <TTGlyph name="ampersand" xMin="27" yMin="-64" xMax="619" yMax="757">
      <contour>
        <pt x="190" y="425" on="1"/>
        <pt x="163" y="464" on="0"/>
        <pt x="122" y="551" on="0"/>
        <pt x="122" y="603" on="1"/>
        <pt x="122" y="641" on="0"/>
        <pt x="148" y="698" on="0"/>
        <pt x="194" y="737" on="0"/>
        <pt x="257" y="757" on="0"/>
        <pt x="293" y="757" on="1"/>
        <pt x="339" y="757" on="0"/>
        <pt x="398" y="728" on="0"/>
        <pt x="431" y="681" on="0"/>
        <pt x="444" y="623" on="0"/>
        <pt x="444" y="595" on="1"/>
        <pt x="444" y="560" on="0"/>
        <pt x="426" y="508" on="0"/>
        <pt x="394" y="466" on="0"/>
        <pt x="347" y="428" on="0"/>
        <pt x="319" y="408" on="1"/>
        <pt x="460" y="173" on="1"/>
        <pt x="510" y="232" on="1"/>
        <pt x="516" y="240" on="0"/>
        <pt x="531" y="259" on="0"/>
        <pt x="548" y="276" on="0"/>
        <pt x="567" y="288" on="0"/>
        <pt x="579" y="288" on="1"/>
        <pt x="594" y="288" on="0"/>
        <pt x="619" y="267" on="0"/>
        <pt x="619" y="249" on="1"/>
        <pt x="619" y="230" on="0"/>
        <pt x="593" y="199" on="0"/>
        <pt x="581" y="184" on="1"/>
        <pt x="572" y="173" on="0"/>
        <pt x="529" y="122" on="0"/>
        <pt x="506" y="96" on="1"/>
        <pt x="551" y="25" on="1"/>
        <pt x="558" y="14" on="0"/>
        <pt x="567" y="-10" on="0"/>
        <pt x="567" y="-21" on="1"/>
        <pt x="567" y="-39" on="0"/>
        <pt x="540" y="-64" on="0"/>
        <pt x="526" y="-64" on="1"/>
        <pt x="515" y="-64" on="0"/>
        <pt x="491" y="-46" on="0"/>
        <pt x="474" y="-21" on="1"/>
        <pt x="439" y="30" on="1"/>
        <pt x="391" y="-11" on="0"/>
        <pt x="298" y="-54" on="0"/>
        <pt x="243" y="-54" on="1"/>
        <pt x="206" y="-54" on="0"/>
        <pt x="129" y="-32" on="0"/>
        <pt x="67" y="19" on="0"/>
        <pt x="27" y="100" on="0"/>
        <pt x="27" y="160" on="1"/>
        <pt x="27" y="209" on="0"/>
        <pt x="54" y="287" on="0"/>
        <pt x="99" y="350" on="0"/>
        <pt x="158" y="402" on="0"/>
      </contour>
      <contour>
        <pt x="246" y="39" on="1"/>
        <pt x="290" y="39" on="0"/>
        <pt x="357" y="75" on="0"/>
        <pt x="391" y="103" on="1"/>
        <pt x="352" y="163" on="0"/>
        <pt x="274" y="287" on="0"/>
        <pt x="237" y="347" on="1"/>
        <pt x="187" y="306" on="0"/>
        <pt x="119" y="218" on="0"/>
        <pt x="119" y="159" on="1"/>
        <pt x="119" y="126" on="0"/>
        <pt x="140" y="81" on="0"/>
        <pt x="176" y="52" on="0"/>
        <pt x="222" y="39" on="0"/>
      </contour>
      <contour>
        <pt x="222" y="597" on="1"/>
        <pt x="222" y="574" on="0"/>
        <pt x="247" y="523" on="0"/>
        <pt x="274" y="481" on="1"/>
        <pt x="303" y="502" on="0"/>
        <pt x="348" y="566" on="0"/>
        <pt x="348" y="604" on="1"/>
        <pt x="348" y="638" on="0"/>
        <pt x="311" y="674" on="0"/>
        <pt x="287" y="674" on="1"/>
        <pt x="257" y="674" on="0"/>
        <pt x="222" y="626" on="0"/>
      </contour>
    </TTGlyph>
    <TTGlyph name="aring" xMin="28" yMin="-9" xMax="517" yMax="775">
      <contour>
        <pt x="471" y="-4" on="1"/>
        <pt x="455" y="-4" on="0"/>
        <pt x="436" y="7" on="0"/>
        <pt x="426" y="25" on="0"/>
        <pt x="422" y="50" on="0"/>
        <pt x="421" y="64" on="1"/>
        <pt x="396" y="33" on="0"/>
        <pt x="317" y="-9" on="0"/>
        <pt x="256" y="-9" on="1"/>
        <pt x="217" y="-9" on="0"/>
        <pt x="136" y="14" on="0"/>
        <pt x="70" y="71" on="0"/>
        <pt x="28" y="167" on="0"/>
        <pt x="28" y="240" on="1"/>
        <pt x="28" y="297" on="0"/>
        <pt x="56" y="397" on="0"/>
        <pt x="113" y="472" on="0"/>
        <pt x="199" y="516" on="0"/>
        <pt x="257" y="516" on="1"/>
        <pt x="308" y="516" on="0"/>
        <pt x="388" y="479" on="0"/>
        <pt x="420" y="437" on="1"/>
        <pt x="420" y="449" on="0"/>
        <pt x="422" y="474" on="0"/>
        <pt x="431" y="495" on="0"/>
        <pt x="451" y="508" on="0"/>
        <pt x="468" y="508" on="1"/>
        <pt x="483" y="508" on="0"/>
        <pt x="509" y="484" on="0"/>
        <pt x="511" y="444" on="1"/>
        <pt x="514" y="391" on="0"/>
        <pt x="517" y="307" on="0"/>
        <pt x="517" y="262" on="1"/>
        <pt x="517" y="207" on="0"/>
        <pt x="515" y="115" on="0"/>
        <pt x="511" y="63" on="1"/>
        <pt x="509" y="40" on="0"/>
        <pt x="502" y="13" on="0"/>
        <pt x="492" y="0" on="0"/>
        <pt x="478" y="-4" on="0"/>
      </contour>
      <contour>
        <pt x="417" y="250" on="1"/>
        <pt x="417" y="302" on="0"/>
        <pt x="386" y="368" on="0"/>
        <pt x="339" y="405" on="0"/>
        <pt x="285" y="419" on="0"/>
        <pt x="262" y="419" on="1"/>
        <pt x="226" y="419" on="0"/>
        <pt x="175" y="393" on="0"/>
        <pt x="143" y="348" on="0"/>
        <pt x="128" y="287" on="0"/>
        <pt x="128" y="251" on="1"/>
        <pt x="128" y="163" on="0"/>
        <pt x="205" y="79" on="0"/>
        <pt x="271" y="79" on="1"/>
        <pt x="310" y="79" on="0"/>
        <pt x="365" y="106" on="0"/>
        <pt x="400" y="152" on="0"/>
        <pt x="417" y="215" on="0"/>
      </contour>
      <contour>
        <pt x="386" y="660" on="1"/>
        <pt x="386" y="636" on="0"/>
        <pt x="367" y="594" on="0"/>
        <pt x="334" y="563" on="0"/>
        <pt x="289" y="545" on="0"/>
        <pt x="264" y="545" on="1"/>
        <pt x="239" y="545" on="0"/>
        <pt x="195" y="563" on="0"/>
        <pt x="161" y="594" on="0"/>
        <pt x="141" y="636" on="0"/>
        <pt x="141" y="660" on="1"/>
        <pt x="141" y="685" on="0"/>
        <pt x="162" y="727" on="0"/>
        <pt x="196" y="758" on="0"/>
        <pt x="241" y="775" on="0"/>
        <pt x="264" y="775" on="1"/>
        <pt x="288" y="775" on="0"/>
        <pt x="333" y="757" on="0"/>
        <pt x="366" y="726" on="0"/>
        <pt x="386" y="684" on="0"/>
      </contour>
      <contour>
        <pt x="198" y="659" on="1"/>
        <pt x="198" y="629" on="0"/>
        <pt x="237" y="599" on="0"/>
        <pt x="263" y="599" on="1"/>
        <pt x="293" y="599" on="0"/>
        <pt x="327" y="634" on="0"/>
        <pt x="327" y="661" on="1"/>
        <pt x="327" y="687" on="0"/>
        <pt x="294" y="725" on="0"/>
        <pt x="268" y="725" on="1"/>
        <pt x="234" y="725" on="0"/>
        <pt x="198" y="688" on="0"/>
      </contour>
    </TTGlyph>
    <TTGlyph name="asciicircum" xMin="41" yMin="425" xMax="591" yMax="751">
      <contour>
        <pt x="315" y="751" on="1"/>
        <pt x="322" y="751" on="0"/>
        <pt x="360" y="721" on="0"/>
        <pt x="410" y="675" on="0"/>
        <pt x="467" y="619" on="0"/>
        <pt x="518" y="567" on="0"/>
        <pt x="558" y="525" on="0"/>
        <pt x="567" y="516" on="1"/>
        <pt x="578" y="504" on="0"/>
        <pt x="591" y="481" on="0"/>
        <pt x="591" y="468" on="1"/>
        <pt x="591" y="451" on="0"/>
        <pt x="570" y="425" on="0"/>
        <pt x="550" y="425" on="1"/>
        <pt x="545" y="425" on="0"/>
        <pt x="515" y="450" on="0"/>
        <pt x="475" y="490" on="0"/>
        <pt x="428" y="539" on="0"/>
        <pt x="384" y="586" on="0"/>
        <pt x="346" y="625" on="0"/>
        <pt x="335" y="636" on="1"/>
        <pt x="315" y="655" on="1"/>
        <pt x="295" y="636" on="1"/>
        <pt x="283" y="625" on="0"/>
        <pt x="246" y="586" on="0"/>
        <pt x="203" y="539" on="0"/>
        <pt x="157" y="490" on="0"/>
        <pt x="117" y="450" on="0"/>
        <pt x="88" y="425" on="0"/>
        <pt x="82" y="425" on="1"/>
        <pt x="64" y="425" on="0"/>
        <pt x="41" y="448" on="0"/>
        <pt x="41" y="465" on="1"/>
        <pt x="41" y="482" on="0"/>
        <pt x="63" y="512" on="0"/>
        <pt x="76" y="525" on="1"/>
        <pt x="88" y="538" on="0"/>
        <pt x="130" y="582" on="0"/>
        <pt x="179" y="632" on="0"/>
        <pt x="230" y="683" on="0"/>
        <pt x="275" y="725" on="0"/>
        <pt x="308" y="751" on="0"/>
      </contour>
    </TTGlyph>
    <TTGlyph name="asciitilde" xMin="34" yMin="173" xMax="431" yMax="325">
      <contour>
        <pt x="158" y="223" on="1"/>
        <pt x="142" y="223" on="0"/>
        <pt x="118" y="209" on="0"/>
        <pt x="97" y="191" on="0"/>
        <pt x="76" y="177" on="0"/>
        <pt x="64" y="177" on="1"/>
        <pt x="51" y="177" on="0"/>
        <pt x="34" y="198" on="0"/>
        <pt x="34" y="215" on="1"/>
        <pt x="34" y="226" on="0"/>
        <pt x="51" y="262" on="0"/>
        <pt x="82" y="297" on="0"/>
        <pt x="123" y="322" on="0"/>
        <pt x="147" y="322" on="1"/>
        <pt x="176" y="322" on="0"/>
        <pt x="212" y="307" on="0"/>
        <pt x="240" y="288" on="0"/>
        <pt x="267" y="273" on="0"/>
        <pt x="287" y="273" on="1"/>
        <pt x="317" y="273" on="0"/>
        <pt x="349" y="289" on="0"/>
        <pt x="369" y="309" on="0"/>
        <pt x="382" y="325" on="0"/>
        <pt x="393" y="325" on="1"/>
        <pt x="407" y="325" on="0"/>
        <pt x="431" y="309" on="0"/>
        <pt x="431" y="294" on="1"/>
        <pt x="431" y="271" on="0"/>
        <pt x="410" y="228" on="0"/>
        <pt x="372" y="194" on="0"/>
        <pt x="318" y="173" on="0"/>
        <pt x="285" y="173" on="1"/>
        <pt x="264" y="173" on="0"/>
        <pt x="230" y="189" on="0"/>
        <pt x="200" y="207" on="0"/>
        <pt x="173" y="223" on="0"/>
      </contour>
    </TTGlyph>
</ttFont>
